<svg id="圖層_1" data-name="圖層 1" xmlns="http://www.w3.org/2000/svg" xmlns:xlink="http://www.w3.org/1999/xlink" viewBox="0 0 157.26 150.74"><defs><style>.cls-1,.cls-3,.cls-4{fill:none;}.cls-2{clip-path:url(#clip-path);}.cls-3,.cls-4{stroke:#fff;stroke-linejoin:round;stroke-width:3px;}.cls-3{stroke-linecap:round;}</style><clipPath id="clip-path"><rect class="cls-1" x="-788.22" width="728.36" height="985.85"/></clipPath></defs><g class="cls-2"><image width="1500" height="1500" transform="translate(-1275.51 -29.17) scale(1.16)" xlink:href="../../../04_%E5%BE%85%E5%88%87%E7%89%88%20%20%E5%85%A7%E9%A0%81/%E5%85%A7%E9%A0%81%20%E4%B8%8D%E5%8F%AA%E8%BC%95%E6%9B%B4%E8%B6%85%E8%B6%8A%E6%80%A7%E8%83%BD/WRJ016_05.jpg"/></g><path class="cls-3" d="M57.69,112.44a5.8,5.8,0,0,0-5.8,5.8c0,4.52,4.49,8.18,9,8.18,6.37,0,10.7-5.16,10.7-11.53,0-9-7-18.45-23.4-18.45H3.48"/><path class="cls-3" d="M89.48,65.85a5.8,5.8,0,0,1-5.8-5.8,8.18,8.18,0,0,1,8.18-8.18A11.54,11.54,0,0,1,103.4,63.4c0,9-6.75,17.07-20.06,17.07H35.42"/><path class="cls-3" d="M55.35,49.81a5.81,5.81,0,0,1-6-5.61,8.18,8.18,0,0,1,7.9-8.45A11.53,11.53,0,0,1,69.17,46.89c.31,9-6.4,17.61-21,17.61H16.26"/><line class="cls-4" x1="118.48" y1="150.74" x2="118.48" y2="3.8"/><line class="cls-4" x1="150.42" y1="3.8" x2="150.42" y2="150.74"/><line class="cls-4" x1="131.25" y1="141.16" x2="131.25" y2="131.58"/><line class="cls-4" x1="137.64" y1="121.99" x2="137.64" y2="112.41"/><line class="cls-4" x1="131.25" y1="102.83" x2="131.25" y2="93.25"/><line class="cls-4" x1="137.64" y1="83.66" x2="137.64" y2="74.08"/><line class="cls-4" x1="131.25" y1="64.5" x2="131.25" y2="54.91"/><line class="cls-4" x1="137.64" y1="45.33" x2="137.64" y2="35.75"/><line class="cls-4" x1="131.25" y1="26.16" x2="131.25" y2="16.58"/></svg>