<svg id="圖層_1" data-name="圖層 1" xmlns="http://www.w3.org/2000/svg" xmlns:xlink="http://www.w3.org/1999/xlink" viewBox="0 0 157.26 150.74"><defs><style>.cls-1,.cls-3{fill:none;}.cls-2{clip-path:url(#clip-path);}.cls-3{stroke:#fff;stroke-linejoin:round;stroke-width:3px;}</style><clipPath id="clip-path"><rect class="cls-1" x="-965.48" width="728.36" height="985.85"/></clipPath></defs><g class="cls-2"><image width="1500" height="1500" transform="translate(-1452.77 -29.17) scale(1.16)" xlink:href="../../../04_%E5%BE%85%E5%88%87%E7%89%88%20%20%E5%85%A7%E9%A0%81/%E5%85%A7%E9%A0%81%20%E4%B8%8D%E5%8F%AA%E8%BC%95%E6%9B%B4%E8%B6%85%E8%B6%8A%E6%80%A7%E8%83%BD/WRJ016_05.jpg"/></g><path class="cls-3" d="M34.11,3.5C31.84,15.21,18.34,24.64,18.34,38.11c0,9.11,7.06,16.5,15.77,16.5s15.77-7.39,15.77-16.5C49.88,24.64,36.38,15.21,34.11,3.5Z"/><path class="cls-3" d="M123.35,16.28c-1.84,9.52-12.77,17.17-12.77,28.12,0,7.4,5.72,13.4,12.77,13.4s12.78-6,12.78-13.4C136.13,33.46,125.19,25.8,123.35,16.28Z"/><path class="cls-3" d="M79,25.86C82.31,42.76,101.4,57.54,101.4,77,101.4,90.12,91.6,99.6,79,99.6S56.28,90.12,56.28,77C56.28,57.54,75.76,42.76,79,25.86Z"/><line class="cls-3" x1="5.16" y1="115.3" x2="152.1" y2="115.3"/><line class="cls-3" x1="152.1" y1="147.25" x2="5.16" y2="147.25"/><line class="cls-3" x1="14.74" y1="128.08" x2="24.33" y2="128.08"/><line class="cls-3" x1="33.91" y1="134.47" x2="43.49" y2="134.47"/><line class="cls-3" x1="53.08" y1="128.08" x2="62.66" y2="128.08"/><line class="cls-3" x1="72.24" y1="134.47" x2="81.83" y2="134.47"/><line class="cls-3" x1="91.41" y1="128.08" x2="100.99" y2="128.08"/><line class="cls-3" x1="110.58" y1="134.47" x2="120.16" y2="134.47"/><line class="cls-3" x1="129.74" y1="128.08" x2="139.33" y2="128.08"/></svg>