<svg id="圖層_1" data-name="圖層 1" xmlns="http://www.w3.org/2000/svg" xmlns:xlink="http://www.w3.org/1999/xlink" viewBox="0 0 157.26 151.76"><defs><style>.cls-1,.cls-3,.cls-4{fill:none;}.cls-2{clip-path:url(#clip-path);}.cls-3,.cls-4{stroke:#fff;stroke-width:3px;}.cls-3{stroke-linejoin:round;}.cls-4{stroke-miterlimit:10;}</style><clipPath id="clip-path"><rect class="cls-1" x="-1142.75" y="1.01" width="728.36" height="985.85"/></clipPath></defs><g class="cls-2"><image width="1500" height="1500" transform="translate(-1630.04 -28.16) scale(1.16)" xlink:href="../../../04_%E5%BE%85%E5%88%87%E7%89%88%20%20%E5%85%A7%E9%A0%81/%E5%85%A7%E9%A0%81%20%E4%B8%8D%E5%8F%AA%E8%BC%95%E6%9B%B4%E8%B6%85%E8%B6%8A%E6%80%A7%E8%83%BD/WRJ016_05.jpg"/></g><path class="cls-3" d="M78.63,2.91a9.58,9.58,0,0,1,9.58,9.58V75.77c6.39,3.32,9.59,9.49,9.59,16.58a19.17,19.17,0,1,1-38.33,0c0-7.09,3.19-13.26,9.58-16.58V12.49A9.58,9.58,0,0,1,78.63,2.91Z"/><line class="cls-3" x1="62.66" y1="22.08" x2="49.88" y2="22.08"/><line class="cls-3" x1="62.66" y1="38.05" x2="49.88" y2="38.05"/><line class="cls-3" x1="62.66" y1="54.02" x2="49.88" y2="54.02"/><path class="cls-3" d="M107.37,42.54a57.52,57.52,0,0,1-47.93,104"/><polyline class="cls-4" points="107.38 60.41 107.38 41.24 126.55 41.24"/><polyline class="cls-4" points="43.49 117.91 43.49 137.08 24.33 137.08"/><path class="cls-3" d="M42.49,137.08a57.5,57.5,0,0,1-3.63-86.25"/></svg>