<?xml version="1.0" encoding="utf-8"?>
<!-- Generator: Adobe Illustrator 24.3.0, SVG Export Plug-In . SVG Version: 6.00 Build 0)  -->
<svg version="1.1" id="圖層_1" xmlns="http://www.w3.org/2000/svg" xmlns:xlink="http://www.w3.org/1999/xlink" x="0px" y="0px"
	 viewBox="0 0 369.1 73.95" style="enable-background:new 0 0 369.1 73.95;" xml:space="preserve">
<style type="text/css">
	.st0{fill:#FFFFFF;}
</style>
<g>
	<g>
		<path class="st0" d="M158.82,73.81c-4.27,0-48,0.04-48,0.04c-10,0.01-16.71-8.12-14.96-18.13l6.56-37.37
			C104.18,8.35,113.74,0.2,123.74,0.2l42.78-0.04c10-0.01,16.71,8.12,14.96,18.13l-1.37,7.81c-1.75,9.97-11.3,18.12-21.27,18.16
			l-46,0.19l-1.98,11.26c-0.3,1.73,0.86,3.13,2.58,3.13c0,0,56.67-0.05,59.6-0.05C169.13,67.95,166.21,73.8,158.82,73.81z
			 M121.11,15.21c-1.72,0-3.38,1.41-3.68,3.14l-1.95,11.09l45.94-0.19c1.73-0.01,3.38-1.41,3.68-3.14l1.37-7.81
			c0.3-1.73-0.86-3.13-2.58-3.13L121.11,15.21z"/>
	</g>
	<g>
		<path class="st0" d="M305.86,0.04c4.27,0,48-0.04,48-0.04c10-0.01,16.71,8.12,14.96,18.13l-6.56,37.37
			c-1.76,10.01-11.32,18.15-21.32,18.16l-42.78,0.04c-10,0.01-16.71-8.12-14.96-18.13l1.37-7.81c1.75-9.97,11.3-18.12,21.27-18.16
			l46-0.19l1.98-11.26c0.3-1.73-0.86-3.13-2.58-3.13c0,0-56.67,0.05-59.6,0.05C295.55,5.9,298.48,0.05,305.86,0.04z M343.57,58.65
			c1.72,0,3.38-1.41,3.68-3.14l1.95-11.09l-45.94,0.19c-1.73,0.01-3.38,1.41-3.68,3.14l-1.37,7.81c-0.3,1.73,0.86,3.13,2.58,3.13
			L343.57,58.65z"/>
	</g>
	<path class="st0" d="M263.07,0.08L215.6,0.12c-10,0.01-19.57,8.15-21.32,18.16l-9.74,55.51l15.01-0.01l9.74-55.51
		c0.3-1.73,1.96-3.13,3.68-3.14l16.23-0.01l-10.29,58.65l15.01-0.01l10.29-58.65l16.23-0.01c1.72,0,2.89,1.4,2.58,3.13l-9.74,55.51
		l15.01-0.01l9.74-55.51C279.79,8.2,273.08,0.07,263.07,0.08z"/>
	<path class="st0" d="M73.85,0.24L31.06,0.28c-10,0.01-19.57,8.15-21.32,18.16L0,73.95l15.01-0.01l5.16-29.41l32.78-0.14l10.09,29.5
		l16.03-0.01L68.89,44.12c8.93-1.33,16.96-8.88,18.55-17.95l1.37-7.81C90.56,8.36,83.85,0.23,73.85,0.24z M73.8,18.38l-1.37,7.81
		c-0.3,1.72-1.95,3.13-3.67,3.14L22.8,29.51l1.95-11.09c0.3-1.73,1.96-3.13,3.68-3.14l42.78-0.04C72.94,15.25,74.1,16.65,73.8,18.38
		z"/>
</g>
</svg>
