<svg id="圖層_1" data-name="圖層 1" xmlns="http://www.w3.org/2000/svg" viewBox="0 0 900 602.29"><defs><style>.cls-1{fill:#de2910;}.cls-2{fill:none;}.cls-3{fill:#fff;}.cls-4{fill:#00785d;}.cls-5{fill:#fbd116;}</style></defs><title>Flag_of_Hong_Kong-1</title><polygon class="cls-1" points="0 2.29 630.25 2.29 277.61 602.29 0 602.29 0 2.29"/><polygon class="cls-2" points="216.04 260.87 216.12 260.83 216.11 260.74 216.02 260.73 215.98 260.81 216.04 260.87"/><polygon class="cls-1" points="203.89 172.03 205.78 181.57 211 173.37 220.66 174.51 214.48 167 218.55 158.17 209.5 161.74 202.36 155.13 202.96 164.84 194.46 169.59 203.89 172.03"/><polygon class="cls-1" points="216.02 260.73 215.88 260.71 215.98 260.81 216.02 260.73"/><path class="cls-1" d="M215.28,256.7a39,39,0,0,1-3.54-2.25c-9-6.42-16.06-16.94-19.43-29.19a61.13,61.13,0,0,1,7.14-48.57l-1.95-1.23a63.42,63.42,0,0,0-7.4,50.41c3.31,12.06,9.83,22.25,18.37,29a42.12,42.12,0,0,0,5.64,3.79c.32-.29.65-.59,1-.9C215.13,257.42,215.21,257.06,215.28,256.7Z" transform="translate(0 2.29)"/><polygon class="cls-1" points="312.32 215.12 303.27 218.68 296.13 212.08 296.72 221.79 288.23 226.54 297.64 228.97 299.54 238.51 304.77 230.31 314.43 231.45 308.24 223.95 312.32 215.12"/><path class="cls-1" d="M240.33,225.65a61.11,61.11,0,0,1,48.4-8.23l.57-2.23a63.46,63.46,0,0,0-50.23,8.54C228.62,230.61,221,240,217.15,250.17a42.48,42.48,0,0,0-1.87,6.53c-.07.36-.15.72-.21,1.08l.1-.09.71.72.14,0h.09L216,257.4c.52-.08,1.05-.13,1.58-.19a37.44,37.44,0,0,1,1.05-4.07C221.91,242.63,229.73,232.63,240.33,225.65Z" transform="translate(0 2.29)"/><polygon class="cls-1" points="278.08 325.46 270.94 318.85 271.54 328.56 263.05 333.31 272.46 335.75 274.36 345.29 279.59 337.08 289.24 338.24 283.06 330.73 287.13 321.89 278.08 325.46"/><path class="cls-1" d="M216.11,258.45v.09l.95-.48c.24.47.45,1,.67,1.44a38.79,38.79,0,0,1,4.19-.25c11-.09,23,4.26,32.88,12.19a61.1,61.1,0,0,1,22.77,43.48l2.3-.15a63.41,63.41,0,0,0-23.64-45.12c-9.78-7.83-21.06-12.24-32-12.69a43.32,43.32,0,0,0-6.75.25c-.53.06-1.06.11-1.58.19Z" transform="translate(0 2.29)"/><polygon class="cls-1" points="177.8 330.94 168.76 334.5 161.62 327.9 162.2 337.6 153.72 342.36 163.14 344.79 165.02 354.33 170.25 346.13 179.92 347.28 173.72 339.77 177.8 330.94"/><path class="cls-1" d="M216.12,258.54l-.08,0,.75.75c-.38.37-.77.72-1.16,1.08a40.12,40.12,0,0,1,1.53,3.91c3.5,10.47,3,23.15-1.43,35a61.13,61.13,0,0,1-34.32,35.1l.85,2.14a63.46,63.46,0,0,0,35.62-36.43c4.41-11.72,5.12-23.81,2.18-34.31a42.92,42.92,0,0,0-2.32-6.35c-.22-.48-.43-1-.67-1.44Z" transform="translate(0 2.29)"/><path class="cls-3" d="M208.47,254.89c-8.54-6.77-15.06-17-18.37-29a63.42,63.42,0,0,1,7.4-50.41l1.95,1.23a61.13,61.13,0,0,0-7.14,48.57c3.37,12.25,10.45,22.77,19.43,29.19-15.21-16.64-9.05-43.52,14.5-54.12,15.54-7,28.09-35.74,16.59-53.62-10.26-16-7.65-33.2,10.32-42.43C166.83,98.37,125.53,212.41,208.47,254.89Zm-6.11-102.06,7.14,6.61,9.05-3.56-4.07,8.83,6.18,7.5L211,171.07l-5.22,8.2-1.89-9.54-9.43-2.43,8.5-4.76Z" transform="translate(0 2.29)"/><path class="cls-3" d="M217.15,250.17c3.8-10.21,11.47-19.56,21.92-26.44a63.46,63.46,0,0,1,50.23-8.54l-.57,2.23a61.11,61.11,0,0,0-48.4,8.23c-10.6,7-18.42,17-21.75,27.49,11.12-19.6,38.59-22,55.94-2.93,11.45,12.62,42.68,15.67,56.13-.79,12-14.69,29.21-17.54,43.55-3.3C353.14,162.2,231.92,158.16,217.15,250.17ZM304.77,228l-5.23,8.19-1.89-9.53-9.42-2.44,8.49-4.74-.59-9.72,7.14,6.61,9.05-3.56-4.08,8.82,6.19,7.51Z" transform="translate(0 2.29)"/><path class="cls-3" d="M224.28,257c10.9.45,22.18,4.86,32,12.69a63.41,63.41,0,0,1,23.64,45.12l-2.3.15a61.1,61.1,0,0,0-22.77-43.48c-9.92-7.93-21.85-12.28-32.88-12.19,22.08,4.51,32.9,29.88,20.08,52.3-8.46,14.78-1.71,45.43,18.09,53.13,17.69,6.89,25.71,22.36,16.6,40.39C350,359.11,316.38,242.53,224.28,257Zm55.31,77.83-5.23,8.2-1.9-9.53L263.05,331l8.49-4.76-.6-9.7,7.14,6.61,9.06-3.57-4.08,8.84,6.18,7.5Z" transform="translate(0 2.29)"/><path class="cls-3" d="M217.88,300.16a63.46,63.46,0,0,1-35.62,36.43l-.85-2.14a61.13,61.13,0,0,0,34.32-35.1c4.47-11.88,4.93-24.56,1.43-35,2.53,22.4-18.25,40.52-43.53,35.26C157,296.1,129.89,312,128.68,333.2c-1.08,18.95-13.31,31.36-33.28,28.27C161.77,417,262.25,349,220.06,265.85,223,276.35,222.29,288.44,217.88,300.16Zm-47.63,43.68L165,352l-1.88-9.54-9.42-2.44,8.48-4.75-.59-9.7,7.15,6.6,9-3.57-4.08,8.83,6.2,7.51Z" transform="translate(0 2.29)"/><path class="cls-3" d="M210.31,264.58c-9.08,6-20.8,9.11-33.31,8.53a63.41,63.41,0,0,1-45.65-22.62l1.77-1.47a61.1,61.1,0,0,0,44,21.79c12.69.59,24.89-2.9,33.77-9.46-20.52,9.33-44.18-4.84-47-30.51C162,213.91,138.56,193.08,118,198.49c-18.35,4.83-33.94-3-37.17-22.92C48.54,255.85,144.28,330.39,210.31,264.58Zm-90.49-30.45-.6-9.71,7.15,6.6,9-3.56-4.07,8.83,6.19,7.5-9.66-1.14-5.23,8.2-1.9-9.54-9.41-2.44Z" transform="translate(0 2.29)"/><polygon class="cls-1" points="131.34 238.59 135.41 229.76 126.37 233.31 119.22 226.71 119.82 236.42 111.33 241.17 120.74 243.6 122.64 253.15 127.87 244.94 137.53 246.09 131.34 238.59"/><path class="cls-1" d="M216,258.58l-.06-.07-.1-.1-.71-.72-.1.09c-.31.31-.64.61-1,.9a41.76,41.76,0,0,1-3.24,2.67c-8.88,6.56-21.08,10-33.77,9.46a61.1,61.1,0,0,1-44-21.79l-1.77,1.47A63.41,63.41,0,0,0,177,273.11c12.51.58,24.23-2.49,33.31-8.53a43.25,43.25,0,0,0,5.32-4.17c.39-.36.78-.71,1.16-1.08Z" transform="translate(0 2.29)"/><line class="cls-2" x1="630.25" x2="277.61" y2="602.29"/><polygon class="cls-4" points="900 602.29 277.61 602.29 630.25 2.29 900 2.29 900 602.29"/><path class="cls-3" d="M577.69,408.57s-10.5,4.75-10.06,6c11.76,8.8,26.45,20.39,66.06,20.39,28,0,40.1-17.15,51.62-25.08h0c11.52,7.91,23.62,25.09,51.63,25.09,39.6,0,54.3-11.59,66.07-20.39.42-1.29-10.09-6-10.09-6C777,419.65,759.38,429.44,726.43,428c40.69-3.6,68.25-25.76,76.58-46.2-22-15.26-58.48-15-88.39,6,9.34-11.51,40.54-24.32,63.87-20.72,3.36-3.46,6.28-7.78,9.64-11.23C761.29,350,724,367,710.25,380.93c14.44-22.88,24.94-48.79,7.88-80.31-3.36,3.16-7.15,6.33-10.5,9.5,12.83,23.17,8.16,50.23-2.19,69.09,17.93-36.57,3.5-72.69-20.13-90.25-23.62,17.56-38.06,53.69-20.12,90.25-10.35-18.86-15-45.92-2.19-69.09-3.35-3.17-7.14-6.34-10.5-9.5-17.06,31.52-6.56,57.43,7.88,80.31-13.71-14-51-30.95-77.88-25,3.36,3.45,6.28,7.77,9.63,11.23,23.33-3.6,54.54,9.21,63.87,20.72-29.89-21-66.35-21.3-88.37-6,8.31,20.44,35.87,42.6,76.56,46.2C611.23,429.44,593.59,419.65,577.69,408.57Z" transform="translate(0 2.29)"/><path class="cls-3" d="M733.59,439.84c-21.85,0-31.79-8.65-48.28-22.29-16.48,13.64-26.42,22.29-48.27,22.29l-79.16-.1c1.66,3.14,3.47,6.21,5.39,9.17l75.67.1c30,0,46.37-18.93,46.37-18.93S701.73,449,731.68,449l73.77-.07c1.93-3,3.71-6,5.37-9.17Z" transform="translate(0 2.29)"/><polygon class="cls-3" points="685.31 419.84 685.31 419.85 685.31 419.84 685.31 419.84"/><path class="cls-3" d="M567.62,457.18c.93,1.29,1.89,2.58,2.86,3.86H801.24c1-1.28,1.92-2.57,2.85-3.86Z" transform="translate(0 2.29)"/><path class="cls-3" d="M576.69,469.87c2.58,2.2,5.25,4.33,8,6.35H785.93c2.77-2,5.44-4.15,8-6.35Z" transform="translate(0 2.29)"/><path class="cls-3" d="M594.06,482.58a162.76,162.76,0,0,0,17.59,9.54H759a163.41,163.41,0,0,0,17.57-9.54Z" transform="translate(0 2.29)"/><polygon class="cls-5" points="691.34 246.44 685.31 228.14 679.29 246.44 659.8 246.44 675.57 257.75 669.54 276.04 685.31 264.74 701.08 276.04 695.06 257.75 710.83 246.44 691.34 246.44"/><polygon class="cls-5" points="587.33 313.97 586.07 302.07 580.01 312.44 568.15 309.95 576.26 318.84 570.2 329.2 581.27 324.34 589.38 333.23 588.12 321.33 599.19 316.46 587.33 313.97"/><polygon class="cls-5" points="628.81 258.71 618.31 264.69 609.3 256.69 611.82 268.39 601.32 274.37 613.38 275.63 615.9 287.33 620.83 276.4 632.88 277.65 623.88 269.64 628.81 258.71"/><polygon class="cls-5" points="802.49 309.95 790.63 312.44 784.57 302.07 783.28 313.97 771.45 316.46 782.52 321.33 781.23 333.23 789.37 324.34 800.44 329.2 794.36 318.84 802.49 309.95"/><polygon class="cls-5" points="761.34 256.69 752.32 264.69 741.81 258.71 746.75 269.64 737.73 277.65 749.79 276.4 754.74 287.33 757.26 275.63 769.3 274.37 758.82 268.39 761.34 256.69"/></svg>