<svg id="圖層_1" data-name="圖層 1" xmlns="http://www.w3.org/2000/svg" viewBox="0 0 4323 2881.5"><defs><style>.cls-1{fill:#ed2939;}.cls-2{fill:#fff;}.cls-3{fill:none;stroke:#000;stroke-miterlimit:10;stroke-width:3px;}</style></defs><title>Flag_of_Singapore-1</title><rect class="cls-1" x="1.5" width="4320" height="1440"/><rect class="cls-2" x="1.5" y="1440" width="4320" height="1440"/><path class="cls-2" d="M1481.68,720c0,299.06-242.44,541.5-541.5,541.5S398.68,1019.06,398.68,720s242.44-541.5,541.5-541.5S1481.68,420.94,1481.68,720Z" transform="translate(1.5 0)"/><path class="cls-1" d="M1651.83,720c0,282.62-229.11,511.74-511.73,511.74S628.36,1002.62,628.36,720,857.48,208.27,1140.1,208.27,1651.83,437.38,1651.83,720Z" transform="translate(1.5 0)"/><path id="star" class="cls-2" d="M1007.2,733.06l-73.57-56.43-73.54,56.46,28.32-91L814.61,586l91.06.19,27.93-91.13,28,91.12,91.06-.23-73.78,56.12Z" transform="translate(1.5 0)"/><path class="cls-2" d="M1584.38,733.06l-73.56-56.43-73.54,56.46,28.31-91L1391.8,586l91.06.19,27.93-91.13,28,91.12,91.06-.23L1556,642.08Z" transform="translate(1.5 0)"/><path class="cls-2" d="M1296.08,518.85l-73.56-56.43L1149,518.88l28.31-91-73.79-56.1,91.06.2,27.93-91.13,28,91.12,91.06-.23-73.78,56.12Z" transform="translate(1.5 0)"/><path class="cls-2" d="M1115.19,1075.81l-73.56-56.43-73.54,56.46,28.32-91-73.8-56.1,91.06.2,27.93-91.13,28,91.12,91.06-.23-73.78,56.12Z" transform="translate(1.5 0)"/><path class="cls-2" d="M1476.38,1075.81l-73.56-56.43-73.54,56.46,28.31-91-73.79-56.1,91.06.2,27.93-91.13,28,91.12,91.06-.23L1448,984.83Z" transform="translate(1.5 0)"/><line class="cls-3" x1="1.5" y1="2880" x2="4321.5" y2="2880"/><line class="cls-3" x1="1.5" y1="1440" x2="1.5" y2="2880"/><line class="cls-3" x1="4321.5" y1="1440" x2="4321.5" y2="2880"/></svg>