<svg id="圖層_1" data-name="圖層 1" xmlns="http://www.w3.org/2000/svg" viewBox="0 0 1235 650"><defs><style>.cls-1{fill:#b22234;}.cls-2{fill:#fff;}.cls-3{fill:#3c3b6e;}</style></defs><title>Flag_of_the_United_States</title><rect class="cls-1" width="1235" height="650"/><path d="M0,75H1235m0,100H0M0,275H1235m0,100H0M0,475H1235m0,100H0"/><path class="cls-2" d="M1235,599.5H0v-49H1235Zm0-100H0v-49H1235Zm0-100H0v-49H1235Zm0-100H0v-49H1235Zm0-100H0v-49H1235Zm0-100H0v-49H1235Z"/><rect class="cls-3" width="494" height="350"/><g id="s18"><g id="s9"><polygon class="cls-2" points="33.9 37.36 29.41 51.18 41.17 42.64 52.92 51.18 48.43 37.36 60.19 28.82 45.66 28.82 41.17 15 36.68 28.82 22.15 28.82 33.9 37.36"/><polygon class="cls-2" points="41.17 85 36.68 98.82 22.15 98.82 33.9 107.36 29.41 121.18 41.17 112.64 52.92 121.18 48.43 107.36 60.19 98.82 45.66 98.82 41.17 85"/><polygon class="cls-2" points="41.17 155 36.68 168.82 22.15 168.82 33.9 177.36 29.41 191.18 41.17 182.64 52.92 191.18 48.43 177.36 60.19 168.82 45.66 168.82 41.17 155"/><polygon class="cls-2" points="41.17 225 36.68 238.82 22.15 238.82 33.9 247.36 29.41 261.18 41.17 252.64 52.92 261.18 48.43 247.36 60.19 238.82 45.66 238.82 41.17 225"/><polygon class="cls-2" points="45.66 308.82 41.17 295 36.68 308.82 22.15 308.82 33.9 317.36 29.41 331.18 41.17 322.64 52.92 331.18 48.43 317.36 60.19 308.82 45.66 308.82"/><path class="cls-2" d="M82.33,50,94.09,86.18,63.31,63.82h38L70.58,86.18Z"/><path class="cls-2" d="M82.33,120l11.76,36.18L63.31,133.82h38L70.58,156.18Z"/><path class="cls-2" d="M82.33,190l11.76,36.18L63.31,203.82h38L70.58,226.18Z"/><path class="cls-2" d="M82.33,260l11.76,36.18L63.31,273.82h38L70.58,296.18Z"/></g><polygon class="cls-2" points="123.5 15 119.01 28.82 104.48 28.82 116.23 37.36 111.74 51.18 123.5 42.64 135.26 51.18 130.76 37.36 142.52 28.82 127.99 28.82 123.5 15"/><polygon class="cls-2" points="123.5 85 119.01 98.82 104.48 98.82 116.23 107.36 111.74 121.18 123.5 112.64 135.26 121.18 130.76 107.36 142.52 98.82 127.99 98.82 123.5 85"/><polygon class="cls-2" points="123.5 155 119.01 168.82 104.48 168.82 116.23 177.36 111.74 191.18 123.5 182.64 135.26 191.18 130.76 177.36 142.52 168.82 127.99 168.82 123.5 155"/><polygon class="cls-2" points="123.5 225 119.01 238.82 104.48 238.82 116.23 247.36 111.74 261.18 123.5 252.64 135.26 261.18 130.76 247.36 142.52 238.82 127.99 238.82 123.5 225"/><polygon class="cls-2" points="127.99 308.82 123.5 295 119.01 308.82 104.48 308.82 116.23 317.36 111.74 331.18 123.5 322.64 135.26 331.18 130.76 317.36 142.52 308.82 127.99 308.82"/><polygon class="cls-2" points="157.4 72.36 152.91 86.18 164.67 77.64 176.42 86.18 171.93 72.36 183.69 63.82 169.16 63.82 164.67 50 160.18 63.82 145.65 63.82 157.4 72.36"/><polygon class="cls-2" points="164.67 120 160.18 133.82 145.65 133.82 157.4 142.36 152.91 156.18 164.67 147.64 176.42 156.18 171.93 142.36 183.69 133.82 169.16 133.82 164.67 120"/><polygon class="cls-2" points="164.67 190 160.18 203.82 145.65 203.82 157.4 212.36 152.91 226.18 164.67 217.64 176.42 226.18 171.93 212.36 183.69 203.82 169.16 203.82 164.67 190"/><polygon class="cls-2" points="169.16 273.82 164.67 260 160.18 273.82 145.65 273.82 157.4 282.36 152.91 296.18 164.67 287.64 176.42 296.18 171.93 282.36 183.69 273.82 169.16 273.82"/></g><path class="cls-2" d="M205.83,15l11.76,36.18L186.81,28.82h38L194.08,51.18Z"/><path class="cls-2" d="M205.83,85l11.76,36.18L186.81,98.82h38l-30.77,22.36Z"/><path class="cls-2" d="M205.83,155l11.76,36.18-30.78-22.36h38l-30.77,22.36Z"/><path class="cls-2" d="M205.83,225l11.76,36.18-30.78-22.36h38l-30.77,22.36Z"/><path class="cls-2" d="M205.83,295l11.76,36.18-30.78-22.36h38l-30.77,22.36Z"/><path class="cls-2" d="M247,50l11.76,36.18L228,63.82h38L235.24,86.18Z"/><path class="cls-2" d="M247,120l11.76,36.18L228,133.82h38l-30.78,22.36Z"/><path class="cls-2" d="M247,190l11.76,36.18L228,203.82h38l-30.78,22.36Z"/><path class="cls-2" d="M247,260l11.76,36.18L228,273.82h38l-30.78,22.36Z"/><path class="cls-2" d="M288.17,15l11.75,36.18L269.15,28.82h38L276.41,51.18Z"/><path class="cls-2" d="M288.17,85l11.75,36.18L269.15,98.82h38l-30.78,22.36Z"/><path class="cls-2" d="M288.17,155l11.75,36.18-30.77-22.36h38l-30.78,22.36Z"/><path class="cls-2" d="M288.17,225l11.75,36.18-30.77-22.36h38l-30.78,22.36Z"/><path class="cls-2" d="M288.17,295l11.75,36.18-30.77-22.36h38l-30.78,22.36Z"/><path class="cls-2" d="M329.33,50l11.76,36.18L310.31,63.82h38L317.58,86.18Z"/><path class="cls-2" d="M329.33,120l11.76,36.18-30.78-22.36h38l-30.77,22.36Z"/><path class="cls-2" d="M329.33,190l11.76,36.18-30.78-22.36h38l-30.77,22.36Z"/><path class="cls-2" d="M329.33,260l11.76,36.18-30.78-22.36h38l-30.77,22.36Z"/><polygon class="cls-2" points="280.9 37.36 276.41 51.18 288.17 42.64 299.92 51.18 295.43 37.36 307.19 28.82 292.66 28.82 288.17 15 283.68 28.82 269.15 28.82 280.9 37.36"/><polygon class="cls-2" points="288.17 85 283.68 98.82 269.15 98.82 280.9 107.36 276.41 121.18 288.17 112.64 299.92 121.18 295.43 107.36 307.19 98.82 292.66 98.82 288.17 85"/><polygon class="cls-2" points="288.17 155 283.68 168.82 269.15 168.82 280.9 177.36 276.41 191.18 288.17 182.64 299.92 191.18 295.43 177.36 307.19 168.82 292.66 168.82 288.17 155"/><polygon class="cls-2" points="292.66 238.82 288.17 225 283.68 238.82 269.15 238.82 280.9 247.36 276.41 261.18 288.17 252.64 299.92 261.18 295.43 247.36 307.19 238.82 292.66 238.82"/><polygon class="cls-2" points="370.5 15 366.01 28.82 351.48 28.82 363.24 37.36 358.74 51.18 370.5 42.64 382.26 51.18 377.76 37.36 389.52 28.82 374.99 28.82 370.5 15"/><polygon class="cls-2" points="370.5 85 366.01 98.82 351.48 98.82 363.24 107.36 358.74 121.18 370.5 112.64 382.26 121.18 377.76 107.36 389.52 98.82 374.99 98.82 370.5 85"/><polygon class="cls-2" points="370.5 155 366.01 168.82 351.48 168.82 363.24 177.36 358.74 191.18 370.5 182.64 382.26 191.18 377.76 177.36 389.52 168.82 374.99 168.82 370.5 155"/><polygon class="cls-2" points="370.5 225 366.01 238.82 351.48 238.82 363.24 247.36 358.74 261.18 370.5 252.64 382.26 261.18 377.76 247.36 389.52 238.82 374.99 238.82 370.5 225"/><polygon class="cls-2" points="374.99 308.82 370.5 295 366.01 308.82 351.48 308.82 363.24 317.36 358.74 331.18 370.5 322.64 382.26 331.18 377.76 317.36 389.52 308.82 374.99 308.82"/><polygon class="cls-2" points="404.4 72.36 399.91 86.18 411.67 77.64 423.42 86.18 418.93 72.36 430.69 63.82 416.16 63.82 411.67 50 407.18 63.82 392.65 63.82 404.4 72.36"/><polygon class="cls-2" points="411.67 120 407.18 133.82 392.65 133.82 404.4 142.36 399.91 156.18 411.67 147.64 423.42 156.18 418.93 142.36 430.69 133.82 416.16 133.82 411.67 120"/><polygon class="cls-2" points="411.67 190 407.18 203.82 392.65 203.82 404.4 212.36 399.91 226.18 411.67 217.64 423.42 226.18 418.93 212.36 430.69 203.82 416.16 203.82 411.67 190"/><polygon class="cls-2" points="416.16 273.82 411.67 260 407.18 273.82 392.65 273.82 404.4 282.36 399.91 296.18 411.67 287.64 423.42 296.18 418.93 282.36 430.69 273.82 416.16 273.82"/><path class="cls-2" d="M452.83,15l11.76,36.18L433.81,28.82h38L441.08,51.18Z"/><path class="cls-2" d="M452.83,85l11.76,36.18L433.81,98.82h38l-30.77,22.36Z"/><path class="cls-2" d="M452.83,155l11.76,36.18-30.78-22.36h38l-30.77,22.36Z"/><path class="cls-2" d="M452.83,225l11.76,36.18-30.78-22.36h38l-30.77,22.36Z"/><path class="cls-2" d="M452.83,295l11.76,36.18-30.78-22.36h38l-30.77,22.36Z"/></svg>