<?xml version="1.0" encoding="utf-8"?>
<!-- Generator: Adobe Illustrator 23.0.0, SVG Export Plug-In . SVG Version: 6.00 Build 0)  -->
<svg version="1.1" id="圖層_1" xmlns="http://www.w3.org/2000/svg" xmlns:xlink="http://www.w3.org/1999/xlink" x="0px" y="0px"
	 viewBox="0 0 900 600" style="enable-background:new 0 0 900 600;" xml:space="preserve">
<style type="text/css">
	.st0{fill:#DE2910;}
	.st1{fill:#FFFFFF;}
	.st2{fill:none;}
	.st3{fill:#00785D;}
	.st4{fill:#FBD116;}
</style>
<polygon class="st0" points="0,0 630.3,0 277.6,600 0,600 "/>
<g id="petal">
	<path class="st1" d="M215.5,229.3c-106.1-44.8-59-182.9,42.4-176c-20.5,10.5-23.5,30.2-11.8,48.5c13.1,20.4-1.2,53.2-18.9,61.2
		C198,176.1,192.2,211.1,215.5,229.3L215.5,229.3z"/>
	<path class="st0" d="M209.8,129.6l-6,9.4l-2.2-10.9l-10.8-2.8l9.7-5.4l-0.7-11.1l8.1,7.5l10.3-4.1l-4.6,10.1l7.1,8.6L209.8,129.6z"
		/>
	<path class="st0" d="M216.1,228.2c-12.8-6.6-23.2-20.3-27.7-36.7c-5.2-18.8-2.2-39,8.1-55.4l-2.2-1.4c-10.7,17.1-13.8,38-8.4,57.5
		c4.8,17.4,15.3,31.3,29,38.3L216.1,228.2z"/>
</g>
<g transform="rotate(72 450,300)">
	<g>
		<path class="st1" d="M215.6,229.3c9.9-114.7,155.7-112.7,180.5-14.1c-16.4-16.3-36-13-49.7,3.8c-15.4,18.8-51,15.3-64.1,0.9
			C260.8,196.3,225.7,201.5,215.6,229.3L215.6,229.3z"/>
		<path class="st0" d="M308.7,193.1l-10.7-2.8l9.7-5.4l-0.7-11.1l8.2,7.5l10.3-4.1l-4.7,10.1l7.1,8.6l-11-1.3l-6,9.4L308.7,193.1z"
			/>
		<path class="st0" d="M216.9,229.6c2.3-14.2,12.2-28.3,26.4-37.7c16.3-10.7,36.4-14.1,55.3-9.4l0.6-2.5
			c-19.5-4.9-40.4-1.4-57.3,9.7c-15,9.9-25.1,24.3-27.5,39.4L216.9,229.6z"/>
	</g>
</g>
<g transform="rotate(144 450,300)">
	<g>
		<path class="st1" d="M215.6,229.5c112.1-26.1,155.3,113.3,69.2,167.3c10.4-20.6,1.2-38.3-19-46.1c-22.6-8.8-30.3-43.8-20.7-60.7
			C261,262.2,245.2,230.5,215.6,229.5L215.6,229.5z"/>
		<path class="st0" d="M278.9,306.8l-0.7-11.1l8.2,7.5l10.3-4.1l-4.7,10.1l7.1,8.6l-11-1.3l-6,9.4l-2.2-10.9l-10.7-2.8L278.9,306.8z
			"/>
		<path class="st0" d="M215.8,230.8c14.2-2.2,30.7,2.8,44,13.4c15.2,12.2,24.7,30.3,26,49.6l2.6-0.2c-1.4-20.1-11.2-38.9-27-51.5
			c-14.1-11.2-30.8-16.3-46-14L215.8,230.8z"/>
	</g>
</g>
<g transform="rotate(216 450,300)">
	<g>
		<path class="st1" d="M215.5,229.5C275,328.1,155.8,412.2,77.8,347c22.8,3.5,36.8-10.6,38-32.3c1.4-24.2,32.3-42.4,51.3-38.4
			C198.4,282.8,223.7,258,215.5,229.5L215.5,229.5z"/>
		<path class="st0" d="M161.5,313.6l10.3-4.1l-4.7,10.1l7.1,8.6l-11-1.3l-6,9.4l-2.2-10.9l-10.8-2.8l9.7-5.4l-0.7-11.1L161.5,313.6z
			"/>
		<path class="st0" d="M214.4,230.1c6.5,12.9,6.8,30,0.8,46c-6.9,18.2-21.2,32.9-39.2,40.1l1,2.4c18.7-7.5,33.5-22.7,40.7-41.6
			c6.3-16.8,6-34.4-0.9-48.1L214.4,230.1z"/>
	</g>
</g>
<g transform="rotate(288 450,300)">
	<g>
		<path class="st1" d="M215.5,229.4c-75.4,87-192.2-0.4-154.3-94.7c3.7,22.8,21.5,31.7,42.4,26.2c23.5-6.2,50.3,17.6,52.4,36.9
			C159.4,229.6,190.9,246,215.5,229.4L215.5,229.4z"/>
		<path class="st0" d="M118.8,204.1l7.1,8.6l-11-1.3l-6,9.4l-2.2-10.9L96,207l9.7-5.4l-0.7-11.1l8.2,7.5l10.3-4.1L118.8,204.1z"/>
		<path class="st0" d="M214.5,228.5c-10.2,10.2-26.5,15.8-43.5,15c-19.5-0.9-37.8-10-50.2-24.9l-2,1.7
			c12.9,15.5,31.9,24.9,52.1,25.8c18,0.8,34.5-4.9,45.4-15.7L214.5,228.5z"/>
	</g>
</g>
<line class="st2" x1="630.3" y1="-2.3" x2="277.6" y2="600"/>
<polygon class="st3" points="900,600 277.6,600 630.3,0 900,0 "/>
<g>
	<g id="g204" transform="matrix(3.75e-5,0,0,3.75e-5,600,0)">
		<path id="path206" class="st1" d="M694.3,425.7c-14.4,9.9-29.5,31.3-64.4,31.3c-49.4,0-67.8-14.5-82.4-25.4
			c-0.5-1.6,12.6-7.5,12.6-7.5c19.8,13.8,41.9,26,83,24.3c-50.8-4.5-85.2-32.2-95.5-57.7c27.5-19,73-18.7,110.3,7.5
			c-11.6-14.4-50.6-30.4-79.7-25.9c-4.2-4.3-7.8-9.7-12-14c33.5-7.4,80.1,13.8,97.2,31.3c-18-28.6-31.1-60.9-9.8-100.2
			c4.2,4,8.9,7.9,13.1,11.9c-16,28.9-10.2,62.7,2.7,86.2c-22.4-45.6-4.4-90.7,25.1-112.6c29.5,21.9,47.5,67,25.1,112.6
			c12.9-23.5,18.7-57.3,2.7-86.2c4.2-4,8.9-7.9,13.1-11.9c21.3,39.3,8.2,71.7-9.8,100.2c17.1-17.4,63.7-38.6,97.2-31.3
			c-4.2,4.3-7.8,9.7-12,14c-29.1-4.5-68.1,11.5-79.7,25.9c37.3-26.2,82.8-26.6,110.3-7.5c-10.4,25.5-44.8,53.2-95.6,57.7
			c41.1,1.8,63.1-10.4,83-24.3c0,0,13.1,5.9,12.6,7.5c-14.7,11-33,25.4-82.4,25.4C723.8,457,708.7,435.5,694.3,425.7L694.3,425.7z"
			/>
		<path id="path208" class="st1" d="M694.3,435.2c-20.6,17-33,27.8-60.2,27.8l-98.8-0.1c2.1,3.9,4.3,7.7,6.7,11.4l94.4,0.1
			c37.4,0,57.9-23.6,57.9-23.6s20.5,23.6,57.9,23.6l92.1-0.1c2.4-3.7,4.6-7.5,6.7-11.4l-96.4,0.1C727.3,463,714.9,452.2,694.3,435.2
			L694.3,435.2z"/>
		<path id="path210" class="st1" d="M547.5,484.7c1.2,1.6,2.4,3.2,3.6,4.8h288c1.2-1.6,2.4-3.2,3.6-4.8H547.5L547.5,484.7z"/>
		<path id="path212" class="st1" d="M558.8,500.5c3.2,2.7,6.6,5.4,10,7.9h251.1c3.5-2.5,6.8-5.2,10-7.9H558.8L558.8,500.5z"/>
		<path id="path214" class="st1" d="M580.5,516.3c7,4.4,14.3,8.3,22,11.9h183.9c7.6-3.6,15-7.5,21.9-11.9H580.5L580.5,516.3z"/>
	</g>
	<g id="g220" transform="matrix(3.75e-5,0,0,3.75e-5,600,0)">
		<polygon id="polygon222" class="st4" points="600,0 600,0 600,0 600,0 600,0 600,0 600,0 600,0 600,0 600,0 		"/>
		<polygon id="polygon224" class="st4" points="600,0 600,0 600,0 600,0 600,0 600,0 600,0 600,0 600,0 600,0 		"/>
		<polygon id="polygon226" class="st4" points="600,0 600,0 600,0 600,0 600,0 600,0 600,0 600,0 600,0 600,0 		"/>
		<polygon id="polygon228" class="st4" points="600,0 600,0 600,0 600,0 600,0 600,0 600,0 600,0 600,0 600,0 		"/>
		<polygon id="polygon230" class="st4" points="600,0 600,0 600,0 600,0 600,0 600,0 600,0 600,0 600,0 600,0 		"/>
	</g>
</g>
</svg>
