<svg id="圖層_1" data-name="圖層 1" xmlns="http://www.w3.org/2000/svg" viewBox="0 0 2100.43 1400.37"><defs><style>.cls-1{fill:#cc0001;}.cls-2{fill:#fff;}.cls-3{fill:#010066;}.cls-4{fill:#fc0;}</style></defs><title>Flag_of_Malaysia-1</title><rect id="red" class="cls-1" width="2100.43" height="1400.37"/><rect id="white" class="cls-2" y="1300.34" width="2100.43" height="100.03"/><g id="use3035"><rect class="cls-2" y="1100.29" width="2100.43" height="100.03"/></g><g id="use3038"><rect class="cls-2" y="900.24" width="2100.43" height="100.03"/></g><g id="use3062"><rect class="cls-2" y="700.18" width="2100.43" height="100.03"/></g><g id="use3064"><rect class="cls-2" y="500.13" width="2100.43" height="100.03"/></g><g id="use3066"><rect class="cls-2" y="300.08" width="2100.43" height="100.03"/></g><g id="use3068"><rect class="cls-2" y="100.03" width="2100.43" height="100.03"/></g><rect id="blue" class="cls-3" width="1112.85" height="771.79"/><path id="path4945" class="cls-4" d="M468.11,106.47c-152.75,0-276.72,123.57-276.72,275.8s124,275.81,276.72,275.81a276,276,0,0,0,149.78-43.93,245.65,245.65,0,0,1-80.23,13.42C402.22,627.57,292.29,518,292.29,383S402.22,138.46,537.66,138.46a245.34,245.34,0,0,1,85.13,15.14A276,276,0,0,0,468.11,106.47Z" transform="translate(0 0.37)"/><path id="path4959" class="cls-4" d="M927,525.85,810.45,465,844.91,589.5,767,485.38,742.63,612.11l-23.92-126.8-78.3,103.88,34.86-124.36L558.52,525.3,645.25,428l-132.09,5.07,121.43-51L513.32,330.78l132.07,5.47L559,238.7l116.56,60.81L641.07,175.05l78,104.11,24.32-126.72,23.93,126.8,78.29-103.89L810.71,299.72l116.76-60.47-86.74,97.3,132.1-5.07-121.43,51,121.26,51.32-132.07-5.47Z" transform="translate(0 0.37)"/></svg>