<?xml version="1.0" encoding="utf-8"?>
<!-- Generator: Adobe Illustrator 23.0.0, SVG Export Plug-In . SVG Version: 6.00 Build 0)  -->
<svg version="1.1" id="圖層_1" xmlns="http://www.w3.org/2000/svg" xmlns:xlink="http://www.w3.org/1999/xlink" x="0px" y="0px"
	 viewBox="0 0 1235 650" style="enable-background:new 0 0 1235 650;" xml:space="preserve">
<style type="text/css">
	.st0{fill:#B22234;}
	.st1{fill:#FFFFFF;}
	.st2{fill:#3C3B6E;}
</style>
<rect y="0" class="st0" width="1235" height="650"/>
<g>
	<path d="M0,75h1235 M1235,175H0 M0,275h1235 M1235,375H0 M0,475h1235 M1235,575H0"/>
	<path class="st1" d="M1235,599.5H0v-49h1235V599.5z M1235,499.5H0v-49h1235V499.5z M1235,399.5H0v-49h1235V399.5z M1235,299.5H0
		v-49h1235V299.5z M1235,199.5H0v-49h1235V199.5z M1235,99.5H0v-49h1235V99.5z"/>
</g>
<rect y="0" class="st2" width="494" height="350"/>
<g>
	<g id="s18">
		<g>
			<polygon class="st1" points="41.2,15 36.7,28.8 22.1,28.8 33.9,37.4 29.4,51.2 41.2,42.6 52.9,51.2 48.4,37.4 60.2,28.8 
				45.7,28.8 			"/>
			<polygon class="st1" points="41.2,85 36.7,98.8 22.1,98.8 33.9,107.4 29.4,121.2 41.2,112.6 52.9,121.2 48.4,107.4 60.2,98.8 
				45.7,98.8 			"/>
			<polygon class="st1" points="41.2,155 36.7,168.8 22.1,168.8 33.9,177.4 29.4,191.2 41.2,182.6 52.9,191.2 48.4,177.4 
				60.2,168.8 45.7,168.8 			"/>
			<polygon class="st1" points="41.2,225 36.7,238.8 22.1,238.8 33.9,247.4 29.4,261.2 41.2,252.6 52.9,261.2 48.4,247.4 
				60.2,238.8 45.7,238.8 			"/>
			<polygon class="st1" points="45.7,308.8 41.2,295 36.7,308.8 22.1,308.8 33.9,317.4 29.4,331.2 41.2,322.6 52.9,331.2 
				48.4,317.4 60.2,308.8 			"/>
			<polygon class="st1" points="75.1,72.4 70.6,86.2 82.3,77.6 94.1,86.2 89.6,72.4 101.4,63.8 86.8,63.8 82.3,50 77.8,63.8 
				63.3,63.8 			"/>
			<polygon class="st1" points="82.3,120 77.8,133.8 63.3,133.8 75.1,142.4 70.6,156.2 82.3,147.6 94.1,156.2 89.6,142.4 
				101.4,133.8 86.8,133.8 			"/>
			<polygon class="st1" points="82.3,190 77.8,203.8 63.3,203.8 75.1,212.4 70.6,226.2 82.3,217.6 94.1,226.2 89.6,212.4 
				101.4,203.8 86.8,203.8 			"/>
			<polygon class="st1" points="86.8,273.8 82.3,260 77.8,273.8 63.3,273.8 75.1,282.4 70.6,296.2 82.3,287.6 94.1,296.2 
				89.6,282.4 101.4,273.8 			"/>
		</g>
		<g>
			<polygon class="st1" points="123.5,15 119,28.8 104.5,28.8 116.2,37.4 111.7,51.2 123.5,42.6 135.3,51.2 130.8,37.4 142.5,28.8 
				128,28.8 			"/>
			<polygon class="st1" points="123.5,85 119,98.8 104.5,98.8 116.2,107.4 111.7,121.2 123.5,112.6 135.3,121.2 130.8,107.4 
				142.5,98.8 128,98.8 			"/>
			<polygon class="st1" points="123.5,155 119,168.8 104.5,168.8 116.2,177.4 111.7,191.2 123.5,182.6 135.3,191.2 130.8,177.4 
				142.5,168.8 128,168.8 			"/>
			<polygon class="st1" points="123.5,225 119,238.8 104.5,238.8 116.2,247.4 111.7,261.2 123.5,252.6 135.3,261.2 130.8,247.4 
				142.5,238.8 128,238.8 			"/>
			<polygon class="st1" points="128,308.8 123.5,295 119,308.8 104.5,308.8 116.2,317.4 111.7,331.2 123.5,322.6 135.3,331.2 
				130.8,317.4 142.5,308.8 			"/>
			<polygon class="st1" points="157.4,72.4 152.9,86.2 164.7,77.6 176.4,86.2 171.9,72.4 183.7,63.8 169.2,63.8 164.7,50 
				160.2,63.8 145.6,63.8 			"/>
			<polygon class="st1" points="164.7,120 160.2,133.8 145.6,133.8 157.4,142.4 152.9,156.2 164.7,147.6 176.4,156.2 171.9,142.4 
				183.7,133.8 169.2,133.8 			"/>
			<polygon class="st1" points="164.7,190 160.2,203.8 145.6,203.8 157.4,212.4 152.9,226.2 164.7,217.6 176.4,226.2 171.9,212.4 
				183.7,203.8 169.2,203.8 			"/>
			<polygon class="st1" points="169.2,273.8 164.7,260 160.2,273.8 145.6,273.8 157.4,282.4 152.9,296.2 164.7,287.6 176.4,296.2 
				171.9,282.4 183.7,273.8 			"/>
		</g>
	</g>
	<g>
		<polygon class="st1" points="205.8,15 201.3,28.8 186.8,28.8 198.6,37.4 194.1,51.2 205.8,42.6 217.6,51.2 213.1,37.4 224.9,28.8 
			210.3,28.8 		"/>
		<polygon class="st1" points="205.8,85 201.3,98.8 186.8,98.8 198.6,107.4 194.1,121.2 205.8,112.6 217.6,121.2 213.1,107.4 
			224.9,98.8 210.3,98.8 		"/>
		<polygon class="st1" points="205.8,155 201.3,168.8 186.8,168.8 198.6,177.4 194.1,191.2 205.8,182.6 217.6,191.2 213.1,177.4 
			224.9,168.8 210.3,168.8 		"/>
		<polygon class="st1" points="205.8,225 201.3,238.8 186.8,238.8 198.6,247.4 194.1,261.2 205.8,252.6 217.6,261.2 213.1,247.4 
			224.9,238.8 210.3,238.8 		"/>
		<polygon class="st1" points="210.3,308.8 205.8,295 201.3,308.8 186.8,308.8 198.6,317.4 194.1,331.2 205.8,322.6 217.6,331.2 
			213.1,317.4 224.9,308.8 		"/>
		<polygon class="st1" points="247,50 242.5,63.8 228,63.8 239.7,72.4 235.2,86.2 247,77.6 258.8,86.2 254.3,72.4 266,63.8 
			251.5,63.8 		"/>
		<polygon class="st1" points="247,120 242.5,133.8 228,133.8 239.7,142.4 235.2,156.2 247,147.6 258.8,156.2 254.3,142.4 
			266,133.8 251.5,133.8 		"/>
		<polygon class="st1" points="247,190 242.5,203.8 228,203.8 239.7,212.4 235.2,226.2 247,217.6 258.8,226.2 254.3,212.4 
			266,203.8 251.5,203.8 		"/>
		<polygon class="st1" points="251.5,273.8 247,260 242.5,273.8 228,273.8 239.7,282.4 235.2,296.2 247,287.6 258.8,296.2 
			254.3,282.4 266,273.8 		"/>
		<polygon class="st1" points="292.7,308.8 288.2,295 283.7,308.8 269.1,308.8 280.9,317.4 276.4,331.2 288.2,322.6 299.9,331.2 
			295.4,317.4 307.2,308.8 		"/>
		<polygon class="st1" points="322.1,72.4 317.6,86.2 329.3,77.6 341.1,86.2 336.6,72.4 348.4,63.8 333.8,63.8 329.3,50 324.8,63.8 
			310.3,63.8 		"/>
		<polygon class="st1" points="329.3,120 324.8,133.8 310.3,133.8 322.1,142.4 317.6,156.2 329.3,147.6 341.1,156.2 336.6,142.4 
			348.4,133.8 333.8,133.8 		"/>
		<polygon class="st1" points="329.3,190 324.8,203.8 310.3,203.8 322.1,212.4 317.6,226.2 329.3,217.6 341.1,226.2 336.6,212.4 
			348.4,203.8 333.8,203.8 		"/>
		<polygon class="st1" points="333.8,273.8 329.3,260 324.8,273.8 310.3,273.8 322.1,282.4 317.6,296.2 329.3,287.6 341.1,296.2 
			336.6,282.4 348.4,273.8 		"/>
		<polygon class="st1" points="288.2,15 283.7,28.8 269.1,28.8 280.9,37.4 276.4,51.2 288.2,42.6 299.9,51.2 295.4,37.4 307.2,28.8 
			292.7,28.8 		"/>
		<polygon class="st1" points="288.2,85 283.7,98.8 269.1,98.8 280.9,107.4 276.4,121.2 288.2,112.6 299.9,121.2 295.4,107.4 
			307.2,98.8 292.7,98.8 		"/>
		<polygon class="st1" points="288.2,155 283.7,168.8 269.1,168.8 280.9,177.4 276.4,191.2 288.2,182.6 299.9,191.2 295.4,177.4 
			307.2,168.8 292.7,168.8 		"/>
		<polygon class="st1" points="288.2,225 283.7,238.8 269.1,238.8 280.9,247.4 276.4,261.2 288.2,252.6 299.9,261.2 295.4,247.4 
			307.2,238.8 292.7,238.8 		"/>
	</g>
	<g>
		<polygon class="st1" points="370.5,15 366,28.8 351.5,28.8 363.2,37.4 358.7,51.2 370.5,42.6 382.3,51.2 377.8,37.4 389.5,28.8 
			375,28.8 		"/>
		<polygon class="st1" points="370.5,85 366,98.8 351.5,98.8 363.2,107.4 358.7,121.2 370.5,112.6 382.3,121.2 377.8,107.4 
			389.5,98.8 375,98.8 		"/>
		<polygon class="st1" points="370.5,155 366,168.8 351.5,168.8 363.2,177.4 358.7,191.2 370.5,182.6 382.3,191.2 377.8,177.4 
			389.5,168.8 375,168.8 		"/>
		<polygon class="st1" points="370.5,225 366,238.8 351.5,238.8 363.2,247.4 358.7,261.2 370.5,252.6 382.3,261.2 377.8,247.4 
			389.5,238.8 375,238.8 		"/>
		<polygon class="st1" points="375,308.8 370.5,295 366,308.8 351.5,308.8 363.2,317.4 358.7,331.2 370.5,322.6 382.3,331.2 
			377.8,317.4 389.5,308.8 		"/>
		<polygon class="st1" points="404.4,72.4 399.9,86.2 411.7,77.6 423.4,86.2 418.9,72.4 430.7,63.8 416.2,63.8 411.7,50 407.2,63.8 
			392.6,63.8 		"/>
		<polygon class="st1" points="411.7,120 407.2,133.8 392.6,133.8 404.4,142.4 399.9,156.2 411.7,147.6 423.4,156.2 418.9,142.4 
			430.7,133.8 416.2,133.8 		"/>
		<polygon class="st1" points="411.7,190 407.2,203.8 392.6,203.8 404.4,212.4 399.9,226.2 411.7,217.6 423.4,226.2 418.9,212.4 
			430.7,203.8 416.2,203.8 		"/>
		<polygon class="st1" points="416.2,273.8 411.7,260 407.2,273.8 392.6,273.8 404.4,282.4 399.9,296.2 411.7,287.6 423.4,296.2 
			418.9,282.4 430.7,273.8 		"/>
	</g>
	<g>
		<polygon class="st1" points="445.6,37.4 441.1,51.2 452.8,42.6 464.6,51.2 460.1,37.4 471.9,28.8 457.3,28.8 452.8,15 448.3,28.8 
			433.8,28.8 		"/>
		<polygon class="st1" points="452.8,85 448.3,98.8 433.8,98.8 445.6,107.4 441.1,121.2 452.8,112.6 464.6,121.2 460.1,107.4 
			471.9,98.8 457.3,98.8 		"/>
		<polygon class="st1" points="452.8,155 448.3,168.8 433.8,168.8 445.6,177.4 441.1,191.2 452.8,182.6 464.6,191.2 460.1,177.4 
			471.9,168.8 457.3,168.8 		"/>
		<polygon class="st1" points="452.8,225 448.3,238.8 433.8,238.8 445.6,247.4 441.1,261.2 452.8,252.6 464.6,261.2 460.1,247.4 
			471.9,238.8 457.3,238.8 		"/>
		<polygon class="st1" points="457.3,308.8 452.8,295 448.3,308.8 433.8,308.8 445.6,317.4 441.1,331.2 452.8,322.6 464.6,331.2 
			460.1,317.4 471.9,308.8 		"/>
	</g>
</g>
</svg>
