<?xml version="1.0" encoding="utf-8"?>
<!-- Generator: Adobe Illustrator 23.0.0, SVG Export Plug-In . SVG Version: 6.00 Build 0)  -->
<svg version="1.1" id="圖層_1" xmlns="http://www.w3.org/2000/svg" xmlns:xlink="http://www.w3.org/1999/xlink" x="0px" y="0px"
	 viewBox="0 0 900 600.6" style="enable-background:new 0 0 900 600.6;" xml:space="preserve">
<style type="text/css">
	.st0{fill:#B22234;}
	.st1{fill:#FFFFFF;}
	.st2{fill:#3C3B6E;}
</style>
<title>Flag_of_the_United_States</title>
<rect class="st0" width="900" height="600.6"/>
<path d="M0,69.3h900 M900,161.7H0 M0,254.1h900 M900,346.5H0 M0,438.9h900 M900,531.3H0"/>
<path class="st1" d="M900,553.9H0v-45.3h900V553.9z M900,461.5H0v-45.3h900V461.5z M900,369.1H0v-45.3h900V369.1z M900,276.7H0
	v-45.3h900V276.7z M900,184.3H0v-45.3h900V184.3z M900,91.9H0V46.7h900V91.9z"/>
<rect class="st2" width="456.5" height="323.4"/>
<path class="st1" d="M266.3,13.9l10.9,33.4l-28.4-20.7h35.1l-28.4,20.7L266.3,13.9z"/>
<path class="st1" d="M266.3,78.5l10.9,33.4l-28.4-20.7h35.1L255.4,112L266.3,78.5z"/>
<path class="st1" d="M266.3,143.2l10.9,33.4L248.7,156h35.1l-28.4,20.7L266.3,143.2z"/>
<path class="st1" d="M266.3,207.9l10.9,33.4l-28.4-20.7h35.1l-28.4,20.7L266.3,207.9z"/>
<g>
	<polygon class="st1" points="38,13.9 33.9,26.6 20.5,26.6 31.3,34.5 27.2,47.3 38,39.4 48.9,47.3 44.7,34.5 55.6,26.6 42.2,26.6 	
		"/>
	<polygon class="st1" points="38,78.5 33.9,91.3 20.5,91.3 31.3,99.2 27.2,112 38,104.1 48.9,112 44.7,99.2 55.6,91.3 42.2,91.3 	
		"/>
	<polygon class="st1" points="38,143.2 33.9,156 20.5,156 31.3,163.9 27.2,176.6 38,168.8 48.9,176.6 44.7,163.9 55.6,156 42.2,156 
			"/>
	<polygon class="st1" points="38,207.9 33.9,220.7 20.5,220.7 31.3,228.6 27.2,241.3 38,233.4 48.9,241.3 44.7,228.6 55.6,220.7 
		42.2,220.7 	"/>
	<polygon class="st1" points="42.2,285.3 38,272.6 33.9,285.3 20.5,285.3 31.3,293.2 27.2,306 38,298.1 48.9,306 44.7,293.2 
		55.6,285.3 	"/>
	<polygon class="st1" points="76.1,46.2 71.9,59 58.5,59 69.4,66.9 65.2,79.6 76.1,71.7 86.9,79.6 82.8,66.8 93.6,59 80.2,59 	"/>
	<polygon class="st1" points="76.1,110.9 71.9,123.6 58.5,123.6 69.4,131.5 65.2,144.3 76.1,136.4 86.9,144.3 82.8,131.5 
		93.6,123.6 80.2,123.6 	"/>
	<polygon class="st1" points="76.1,175.6 71.9,188.3 58.5,188.3 69.4,196.2 65.2,209 76.1,201.1 86.9,209 82.8,196.2 93.6,188.3 
		80.2,188.3 	"/>
	<polygon class="st1" points="80.2,253 76.1,240.2 71.9,253 58.5,253 69.4,260.9 65.2,273.7 76.1,265.8 86.9,273.7 82.8,260.9 
		93.6,253 	"/>
	<polygon class="st1" points="114.1,13.9 110,26.6 96.5,26.6 107.4,34.5 103.2,47.3 114.1,39.4 125,47.3 120.8,34.5 131.7,26.6 
		118.3,26.6 	"/>
	<polygon class="st1" points="114.1,78.5 110,91.3 96.5,91.3 107.4,99.2 103.2,112 114.1,104.1 125,112 120.8,99.2 131.7,91.3 
		118.3,91.3 	"/>
	<polygon class="st1" points="114.1,143.2 110,156 96.5,156 107.4,163.9 103.2,176.6 114.1,168.8 125,176.6 120.8,163.9 131.7,156 
		118.3,156 	"/>
	<polygon class="st1" points="114.1,207.9 110,220.7 96.5,220.7 107.4,228.6 103.2,241.3 114.1,233.4 125,241.3 120.8,228.6 
		131.7,220.7 118.3,220.7 	"/>
	<polygon class="st1" points="118.3,285.3 114.1,272.6 110,285.3 96.5,285.3 107.4,293.2 103.2,306 114.1,298.1 125,306 
		120.8,293.2 131.7,285.3 	"/>
	<polygon class="st1" points="152.2,46.2 148,59 134.6,59 145.4,66.9 141.3,79.6 152.2,71.7 163,79.6 158.9,66.9 169.7,59 156.3,59 
			"/>
	<polygon class="st1" points="152.2,110.9 148,123.6 134.6,123.6 145.4,131.5 141.3,144.3 152.2,136.4 163,144.3 158.9,131.5 
		169.7,123.6 156.3,123.6 	"/>
	<polygon class="st1" points="152.2,175.6 148,188.3 134.6,188.3 145.4,196.2 141.3,209 152.2,201.1 163,209 158.9,196.2 
		169.7,188.3 156.3,188.3 	"/>
	<polygon class="st1" points="156.3,253 152.2,240.2 148,253 134.6,253 145.4,260.9 141.3,273.7 152.2,265.8 163,273.7 158.9,260.9 
		169.7,253 	"/>
	<polygon class="st1" points="190.2,13.9 186,26.6 172.6,26.6 183.5,34.5 179.3,47.3 190.2,39.4 201.1,47.3 196.9,34.5 207.7,26.6 
		194.3,26.6 	"/>
	<polygon class="st1" points="190.2,78.5 186,91.3 172.6,91.3 183.5,99.2 179.3,112 190.2,104.1 201.1,112 196.9,99.2 207.7,91.3 
		194.3,91.3 	"/>
	<polygon class="st1" points="190.2,143.2 186,156 172.6,156 183.5,163.9 179.3,176.6 190.2,168.7 201.1,176.6 196.9,163.9 
		207.7,156 194.3,156 	"/>
	<polygon class="st1" points="190.2,207.9 186,220.7 172.6,220.7 183.5,228.5 179.3,241.3 190.2,233.4 201.1,241.3 196.9,228.5 
		207.7,220.7 194.3,220.7 	"/>
	<polygon class="st1" points="194.3,285.3 190.2,272.6 186,285.3 172.6,285.3 183.5,293.2 179.3,306 190.2,298.1 201.1,306 
		196.9,293.2 207.7,285.3 	"/>
	<polygon class="st1" points="228.2,46.2 224.1,59 210.7,59 221.5,66.9 217.4,79.6 228.2,71.7 239.1,79.6 234.9,66.9 245.8,59 
		232.4,59 	"/>
	<polygon class="st1" points="228.2,110.9 224.1,123.6 210.7,123.6 221.5,131.5 217.3,144.3 228.2,136.4 239.1,144.3 234.9,131.5 
		245.8,123.6 232.4,123.6 	"/>
	<polygon class="st1" points="228.2,175.6 224.1,188.3 210.7,188.3 221.5,196.2 217.3,209 228.2,201.1 239.1,209 234.9,196.2 
		245.8,188.3 232.4,188.3 	"/>
	<polygon class="st1" points="232.4,253 228.2,240.2 224.1,253 210.7,253 221.5,260.9 217.3,273.7 228.2,265.8 239.1,273.7 
		234.9,260.9 245.8,253 	"/>
	<polygon class="st1" points="270.4,285.3 266.3,272.6 262.1,285.3 248.7,285.3 259.5,293.2 255.4,306 266.2,298.1 277.1,306 
		273,293.2 283.8,285.3 	"/>
	<polygon class="st1" points="304.3,46.2 300.2,59 286.7,59 297.6,66.9 293.4,79.6 304.3,71.7 315.2,79.6 311,66.8 321.8,59 
		308.4,59 	"/>
	<polygon class="st1" points="304.3,110.9 300.1,123.6 286.7,123.6 297.6,131.5 293.4,144.3 304.3,136.4 315.2,144.3 311,131.5 
		321.8,123.6 308.4,123.6 	"/>
	<polygon class="st1" points="304.3,175.6 300.1,188.3 286.7,188.3 297.6,196.2 293.4,209 304.3,201.1 315.2,209 311,196.2 
		321.8,188.3 308.4,188.3 	"/>
	<polygon class="st1" points="308.4,253 304.3,240.2 300.1,253 286.7,253 297.6,260.9 293.4,273.7 304.3,265.8 315.2,273.7 
		311,260.9 321.8,253 	"/>
	<polygon class="st1" points="266.3,13.9 262.1,26.6 248.7,26.6 259.5,34.5 255.4,47.3 266.3,39.4 277.1,47.3 273,34.5 283.8,26.6 
		270.4,26.6 	"/>
	<polygon class="st1" points="266.3,78.5 262.1,91.3 248.7,91.3 259.5,99.2 255.4,112 266.3,104.1 277.1,112 273,99.2 283.8,91.3 
		270.4,91.3 	"/>
	<polygon class="st1" points="266.3,143.2 262.1,156 248.7,156 259.5,163.9 255.4,176.6 266.3,168.8 277.1,176.6 273,163.9 
		283.8,156 270.4,156 	"/>
	<polygon class="st1" points="266.3,207.9 262.1,220.7 248.7,220.7 259.5,228.6 255.4,241.3 266.3,233.4 277.1,241.3 273,228.6 
		283.8,220.7 270.4,220.7 	"/>
	<polygon class="st1" points="342.3,13.9 338.2,26.6 324.8,26.6 335.6,34.5 331.5,47.3 342.3,39.4 353.2,47.3 349,34.5 359.9,26.6 
		346.5,26.6 	"/>
	<polygon class="st1" points="342.3,78.5 338.2,91.3 324.8,91.3 335.6,99.2 331.5,112 342.3,104.1 353.2,112 349,99.2 359.9,91.3 
		346.5,91.3 	"/>
	<polygon class="st1" points="342.3,143.2 338.2,156 324.8,156 335.6,163.9 331.5,176.6 342.3,168.8 353.2,176.6 349,163.9 
		359.9,156 346.5,156 	"/>
	<polygon class="st1" points="342.3,207.9 338.2,220.7 324.8,220.7 335.6,228.6 331.5,241.3 342.3,233.4 353.2,241.3 349,228.6 
		359.9,220.7 346.5,220.7 	"/>
	<polygon class="st1" points="346.5,285.3 342.3,272.6 338.2,285.3 324.8,285.3 335.6,293.2 331.5,306 342.3,298.1 353.2,306 
		349,293.2 359.9,285.3 	"/>
	<polygon class="st1" points="380.4,110.9 376.2,123.6 362.8,123.6 373.7,131.5 369.5,144.3 380.4,136.4 391.2,144.3 387.1,131.5 
		398,123.6 384.5,123.6 	"/>
	<polygon class="st1" points="380.4,175.6 376.2,188.3 362.8,188.3 373.7,196.2 369.5,209 380.4,201.1 391.2,209 387.1,196.2 
		398,188.3 384.5,188.3 	"/>
	<polygon class="st1" points="384.5,253 380.4,240.2 376.2,253 362.8,253 373.7,260.9 369.5,273.7 380.4,265.8 391.2,273.7 
		387.1,260.9 398,253 	"/>
	<polygon class="st1" points="380.4,46.2 376.2,59 362.8,59 373.7,66.9 369.5,79.6 380.4,71.7 391.2,79.6 387.1,66.9 398,59 
		384.5,59 	"/>
	<polygon class="st1" points="407.6,47.3 418.4,39.4 429.3,47.3 425.1,34.5 435.9,26.6 422.6,26.6 418.4,13.9 414.3,26.6 
		400.8,26.6 411.7,34.5 	"/>
	<polygon class="st1" points="418.4,78.5 414.3,91.3 400.8,91.3 411.7,99.2 407.5,112 418.4,104.1 429.3,112 425.1,99.2 435.9,91.3 
		422.6,91.3 	"/>
	<polygon class="st1" points="418.4,143.2 414.3,156 400.8,156 411.7,163.9 407.5,176.6 418.4,168.7 429.3,176.6 425.1,163.9 
		435.9,156 422.6,156 	"/>
	<polygon class="st1" points="418.4,207.9 414.3,220.7 400.8,220.7 411.7,228.5 407.5,241.3 418.4,233.4 429.3,241.3 425.1,228.5 
		435.9,220.7 422.6,220.7 	"/>
	<polygon class="st1" points="422.6,285.3 418.4,272.6 414.3,285.3 400.8,285.3 411.7,293.2 407.5,306 418.4,298.1 429.3,306 
		425.1,293.2 435.9,285.3 	"/>
</g>
</svg>
