<?xml version="1.0" encoding="UTF-8" standalone="no"?>
<!-- Created with Inkscape (http://www.inkscape.org/) -->

<svg
   xmlns:dc="http://purl.org/dc/elements/1.1/"
   xmlns:cc="http://creativecommons.org/ns#"
   xmlns:rdf="http://www.w3.org/1999/02/22-rdf-syntax-ns#"
   xmlns:svg="http://www.w3.org/2000/svg"
   xmlns="http://www.w3.org/2000/svg"
   version="1.1"
   width="1200"
   height="600"
   id="svg2">
  <metadata
     id="metadata236">
    <rdf:RDF>
      <cc:Work
         rdf:about="">
        <dc:format>image/svg+xml</dc:format>
        <dc:type
           rdf:resource="http://purl.org/dc/dcmitype/StillImage" />
        <dc:title></dc:title>
      </cc:Work>
    </rdf:RDF>
  </metadata>
  <defs
     id="defs234" />
  <path
     d="M 300,0 C 134.32,0 0,134.32 0,300 0,465.69 134.32,600 300,600 465.68,600 600,465.69 600,300 600,134.32 465.68,0 300,0 z"
     id="path8"
     style="fill:#de2910;fill-rule:evenodd" />
  <path
     d="M 300,590 C 139.84,590 10,460.16 10,300 10,139.84 139.84,10 300,10 460.16,10 590,139.84 590,300 590,460.16 460.16,590 300,590 z"
     id="path10"
     style="fill:#ffffff;fill-rule:evenodd" />
  <path
     d="M 300,520 C 421.5,520 520,421.5 520,300 520,178.5 421.5,80 300,80 178.5,80 80,178.5 80,300 c 0,121.5 98.5,220 220,220 z"
     id="path12"
     style="fill:#de2910;fill-rule:evenodd" />
  <g
     id="g14"
     style="fill:#ffffff;fill-rule:evenodd">
    <path
       d="m 300,300 c -105.47,-44.58 -58.72,-181.95 42.15,-175.04 -20.4,10.49 -23.36,30.05 -11.7,48.18 13.05,20.3 -1.21,52.95 -18.85,60.89 -29,13.05 -34.8,47.85 -11.6,65.97 z"
       id="path16" />
    <path
       d="m 300,300 c -74.99,86.53 -191.18,-0.38 -153.45,-94.17 3.67,22.64 21.36,31.5 42.21,26.02 23.33,-6.14 49.99,17.51 52.08,36.74 3.46,31.6 34.76,47.87 59.16,31.41 z"
       id="path18" />
    <path
       d="m 300,300 c 59.12,98.06 -59.44,181.71 -136.98,116.83 22.67,3.51 36.56,-10.58 37.79,-32.1 1.37,-24.09 32.1,-42.13 51.04,-38.18 31.13,6.48 56.27,-18.26 48.15,-46.55 z"
       id="path20" />
    <path
       d="m 300,300 c 111.53,-25.93 154.44,112.68 68.79,166.38 10.34,-20.48 1.23,-38.04 -18.86,-45.86 -22.48,-8.75 -30.14,-43.55 -20.54,-60.34 15.79,-27.6 0,-59.14 -29.39,-60.18 z"
       id="path22" />
    <path
       d="m 300,300 c 9.8,-114.08 154.89,-112.06 179.49,-14.01 -16.28,-16.16 -35.8,-12.93 -49.44,3.76 -15.27,18.68 -50.73,15.22 -63.73,0.9 C 344.95,267.1 310.07,272.34 300,300 z"
       id="path24" />
  </g>
  <g
     transform="matrix(0.95164,0,0,0.95164,14.951,15.131)"
     id="g26"
     style="fill:#de2910;fill-rule:evenodd">
    <polygon
       points="139.3,96.992 134.1,95.645 138.78,93.02 138.46,87.656 142.4,91.304 147.4,89.335 145.15,94.215 148.57,98.363 143.24,97.731 143.24,97.731 140.35,102.26 "
       transform="scale(2.0546,2.0546)"
       id="polygon28" />
    <polygon
       points="97.316,137.25 94.429,141.78 93.381,136.51 88.178,135.16 92.867,132.54 92.54,127.17 96.486,130.82 101.49,128.85 99.236,133.73 99.236,133.73 102.65,137.88 "
       transform="scale(2.0546,2.0546)"
       id="polygon30" />
    <polygon
       points="122.63,189.61 126.04,193.76 120.71,193.13 117.82,197.66 116.77,192.39 111.57,191.04 116.26,188.42 115.93,183.05 119.88,186.7 119.88,186.7 124.88,184.73 "
       transform="scale(2.0546,2.0546)"
       id="polygon32" />
    <polygon
       points="180.25,181.72 185.25,179.75 183,184.63 186.42,188.78 181.08,188.15 178.19,192.68 177.15,187.41 171.94,186.06 176.63,183.44 176.63,183.44 176.31,178.07 "
       transform="scale(2.0546,2.0546)"
       id="polygon34" />
    <polygon
       points="190.55,124.48 190.23,119.12 194.17,122.76 199.17,120.8 196.92,125.68 200.34,129.82 195,129.19 192.11,133.72 191.07,128.45 191.07,128.45 185.86,127.1 "
       transform="scale(2.0546,2.0546)"
       id="polygon36" />
    <path
       d="m 300.6,298.84 c -12.76,-6.55 -23.04,-20.19 -27.52,-36.5 -5.13,-18.72 -2.18,-38.82 8.09,-55.15 l -2.21,-1.39 c -10.66,16.95 -13.72,37.81 -8.4,57.23 4.74,17.25 15.25,31.15 28.85,38.13 l 1.19,-2.32 z"
       id="path38" />
    <path
       d="m 299.08,299.08 c -10.17,10.11 -26.32,15.68 -43.22,14.89 -19.38,-0.9 -37.59,-9.92 -49.95,-24.74 l -2,1.67 c 12.83,15.38 31.72,24.74 51.83,25.68 17.88,0.83 34.34,-4.87 45.18,-15.65 l -1.84,-1.85 z"
       id="path40" />
    <path
       d="m 298.84,300.59 c 6.47,12.8 6.77,29.88 0.81,45.7 -6.85,18.16 -21.05,32.68 -38.96,39.86 l 0.97,2.43 c 18.59,-7.45 33.33,-22.53 40.43,-41.36 6.32,-16.74 5.98,-34.17 -0.92,-47.81 l -2.33,1.18 z"
       id="path42" />
    <path
       d="m 300.2,301.29 c 14.17,-2.2 30.51,2.79 43.72,13.36 15.15,12.11 24.58,30.11 25.87,49.37 l 2.6,-0.18 C 371.05,343.86 361.27,325.18 345.55,312.6 331.58,301.43 314.9,296.36 299.8,298.71 l 0.4,2.58 z"
       id="path44" />
    <path
       d="m 383.09,250.88 c -19.42,-4.9 -40.2,-1.37 -57.02,9.7 -14.95,9.83 -24.92,24.13 -27.36,39.21 l 2.58,0.42 c 2.28,-14.16 12.08,-28.16 26.21,-37.45 16.21,-10.66 36.24,-14.07 54.95,-9.35 l 0.64,-2.53 z"
       id="path46" />
    <polygon
       points="40.37,224.64 37.023,228.85 36.533,223.5 31.5,221.61 36.439,219.49 36.676,214.12 40.217,218.16 45.396,216.73 42.647,221.35 42.647,221.35 45.611,225.83 "
       transform="scale(2.0546,2.0546)"
       id="polygon48" />
    <polygon
       points="252.11,224.69 255.42,228.92 255.96,223.57 261.01,221.73 256.09,219.57 255.9,214.2 252.32,218.21 247.16,216.73 249.86,221.37 249.86,221.37 246.86,225.83 "
       transform="scale(2.0546,2.0546)"
       id="polygon50" />
    <path
       d="m 123.07,523.61 c 3.88,2.45 4.74,1.59 7.09,-1.76 l 13.54,-19.33 c 2.32,-3.3 2.01,-4.19 -1.11,-6.77 l 0.59,-0.85 12.42,8.7 -0.6,0.85 c -3.58,-2.11 -4.52,-1.91 -6.74,1.26 l -6.07,8.66 13.53,9.48 6.07,-8.66 c 2.31,-3.3 2,-4.19 -1.12,-6.77 l 0.6,-0.85 12.41,8.69 -0.6,0.86 c -3.58,-2.11 -4.52,-1.91 -6.74,1.26 l -13.89,19.82 c -2.07,2.95 -2.21,4.11 1.11,6.77 l -0.59,0.85 -12.41,-8.69 0.59,-0.85 c 3.87,2.45 4.74,1.59 7.09,-1.76 l 6.1,-8.7 -13.53,-9.48 -6.45,9.2 c -2.06,2.94 -2.21,4.1 1.12,6.77 l -0.6,0.85 -12.41,-8.7 0.6,-0.85 z"
       id="path52" />
    <path
       d="m 170.98,535.45 c 5.28,-11.37 16.01,-13.37 24.11,-9.6 8.11,3.76 13.51,13.24 8.23,24.62 -4.89,10.53 -15.12,13.65 -24.07,9.5 -8.95,-4.16 -13.16,-13.99 -8.27,-24.52 z m 26.72,12.35 c 5.24,-11.27 1.61,-17.83 -3.43,-20.17 -5.05,-2.34 -12.39,-0.89 -17.63,10.39 -5.05,10.87 -2.05,17.62 3.44,20.17 5.49,2.55 12.57,0.49 17.62,-10.39 z"
       id="path54" />
    <path
       d="m 252.2,546.52 c -3.42,-0.5 -5.16,-0.73 -6.78,5.44 l -7.28,27.74 -0.9,-0.23 -15.62,-35 -0.11,0 -5.4,20.58 c -1.42,5.43 -0.62,6.88 3.19,8.05 l -0.26,1 -12.4,-3.25 0.26,-1 c 4.08,0.79 5.4,0.28 6.89,-5.41 l 6.11,-23.27 c -1.47,-3.2 -2.25,-3.69 -4.36,-4.24 l 0.26,-1 9.02,2.37 13.55,30.67 0.1,0 4.63,-17.62 c 1.59,-6.06 0.22,-6.88 -3.29,-8.08 l 0.26,-1 12.39,3.25 -0.26,1 z"
       id="path56" />
    <path
       d="m 293.04,566.92 c -2.41,0 -3.83,0 -4.14,3.89 l -0.86,10.92 c -0.1,0.76 -7.54,3.35 -13.52,2.87 -5.38,-0.42 -11.29,-2.53 -14.82,-7.02 -2.63,-3.38 -4.01,-6.72 -3.45,-13.84 0.72,-9.13 8.51,-17.65 20.03,-16.74 5.49,0.43 7.85,2.42 9.59,2.56 0.44,0 2.26,-0.1 2.7,-1.59 l 1.2,0.1 -0.47,11.51 -1.25,-0.1 c -1.16,-4.03 -3.56,-9.63 -11.17,-10.24 -5.17,-0.4 -13.43,2.39 -14.52,16.15 -0.77,9.84 4.4,16.43 12.83,17.09 3.69,0.29 7.54,-0.66 7.7,-2.62 l 0.69,-8.81 c 0.36,-4.51 -0.72,-4.65 -4.4,-5.21 l 0.1,-0.98 13.86,1.09 -0.1,0.98 z"
       id="path58" />
    <path
       d="m 337.53,546.1 14.17,-1.78 0.13,1.03 c -3.21,0.68 -4.33,0.98 -7.69,5.25 l -9,11.46 14.29,11.94 c 4.01,3.45 6.16,5.27 9.23,4.78 l 0.13,1.02 -16.5,2.07 -0.13,-1.03 c 2.86,-0.46 3.77,-0.64 3.62,-1.82 -0.21,-1.68 -6.1,-6.6 -8.17,-8.21 l -6.45,-4.96 -1.26,1.32 1.27,10.11 c 0.48,3.78 1.23,4.57 5.48,4.26 l 0.13,1.02 -15.25,1.92 -0.13,-1.03 c 4.19,-0.74 4.73,-1.64 4.18,-6.07 l -2.94,-23.42 c -0.53,-4.22 -1.77,-4.45 -5.48,-4.26 l -0.13,-1.02 15.36,-1.93 0.13,1.02 c -4.18,0.81 -4.86,1.5 -4.36,5.5 l 1.39,11.09 c 10.84,-12.52 12.23,-14.17 12,-16.01 -0.18,-1.46 -1.23,-1.44 -3.89,-1.22 l -0.13,-1.03 z"
       id="path60" />
    <path
       d="m 360.58,560.98 c -3.56,-12.02 3.16,-20.6 11.73,-23.14 8.57,-2.54 18.88,0.99 22.44,13.02 3.3,11.13 -2.3,20.23 -11.76,23.03 -9.46,2.8 -19.11,-1.78 -22.41,-12.91 z m 28.2,-8.41 c -3.53,-11.91 -10.58,-14.43 -15.91,-12.85 -5.33,1.58 -9.88,7.53 -6.35,19.44 3.41,11.5 10.12,14.58 15.92,12.85 5.8,-1.71 9.75,-7.94 6.34,-19.44 z"
       id="path62" />
    <path
       d="m 428.82,515.6 c -2.9,1.89 -4.36,2.86 -1.5,8.56 l 12.89,25.63 -0.83,0.41 -34.85,-15.92 -0.1,0.1 9.55,19 c 2.52,5.02 4.08,5.57 7.71,3.93 l 0.47,0.93 -11.45,5.75 -0.47,-0.93 c 3.58,-2.1 4.24,-3.34 1.6,-8.6 l -10.8,-21.48 c -3.22,-1.44 -4.13,-1.29 -6.07,-0.31 l -0.47,-0.92 8.33,-4.19 30.44,14.05 0.1,0 -8.18,-16.27 c -2.81,-5.6 -4.37,-5.3 -7.8,-3.88 l -0.47,-0.93 11.44,-5.75 0.47,0.92 z"
       id="path64" />
    <path
       d="m 472.95,503.94 c -1.79,1.61 -2.86,2.55 -0.54,5.65 l 6.57,8.76 c 0.46,0.61 -3.45,7.49 -8.24,11.08 -4.32,3.24 -10.14,5.56 -15.75,4.52 -4.21,-0.8 -7.45,-2.39 -11.73,-8.1 -5.49,-7.33 -5.28,-18.86 3.97,-25.78 4.4,-3.31 7.49,-3.37 8.88,-4.41 0.35,-0.27 1.63,-1.57 0.97,-2.98 l 0.97,-0.72 7.24,8.94 -1,0.75 c -3.54,-2.25 -9.04,-4.87 -15.14,-0.3 -4.15,3.11 -8.5,10.66 -0.23,21.69 5.92,7.89 14.14,9.42 20.9,4.36 2.97,-2.22 5.23,-5.48 4.05,-7.05 l -5.29,-7.07 c -2.71,-3.62 -3.62,-3.01 -6.75,-1 l -0.59,-0.79 11.12,-8.33 0.59,0.78 z"
       id="path66" />
    <path
       d="m 64.389,373.51 c -0.173,-0.59 -0.637,-1.41 -1.383,-2.44 -0.914,-1.27 -1.391,-1.64 -1.631,-1.73 -0.341,-0.13 -0.758,-0.11 -1.243,0.1 0,0 -5.644,1.81 -5.649,1.81 l -8.046,2.37 -0.207,0.1 -0.06,-0.21 -2.328,-7.91 -0.06,-0.21 0.205,-0.1 c 0,0 2.406,-0.71 2.404,-0.71 0.419,-0.12 0.937,-0.41 0.604,-1.54 -0.183,-0.62 -0.746,-1.49 -1.672,-2.57 -0.882,-1.02 -1.691,-1.41 -2.417,-1.14 l -5.451,1.84 -4.918,1.45 c -0.989,0.29 -1.956,0 -2.893,-0.76 -0.15,-0.15 -0.3,-0.2 -0.487,-0.14 -0.214,0.1 -0.38,0.23 -0.506,0.52 0,0 -2.017,4.68 -2.019,4.68 -0.103,0.23 -0.132,0.41 -0.09,0.57 0.05,0.15 0.173,0.28 0.399,0.38 l 3.869,1.93 0.08,0 0.03,0.1 2.173,7.39 0.06,0.21 -0.205,0.1 -5.64,1.66 c -1.04,0.3 -1.907,0 -2.577,-0.94 -0.107,-0.14 -0.232,-0.18 -0.421,-0.13 -0.201,0.1 -0.29,0.18 -0.292,0.39 l -0.127,8.01 c 1.101,-0.5 2.5,-1.06 4.204,-1.67 l 6.449,-1.9 0.206,-0.1 0.06,0.21 2.014,6.84 0.01,0 0,0.1 -0.957,7.27 c 1.676,-0.78 3.484,-1.47 5.407,-2.03 0,0 8.505,-2.5 8.511,-2.51 l 6.018,-1.58 c 0.238,-0.1 0.396,-0.16 0.47,-0.29 0.07,-0.13 0.08,-0.31 0,-0.53 -0.142,-0.48 -0.615,-1.26 -1.404,-2.31 -0.978,-1.3 -1.446,-1.71 -1.668,-1.83 -0.302,-0.15 -0.744,-0.14 -1.313,0 l -1.594,0.47 -0.208,0.1 -0.06,-0.21 -2.158,-7.32 -0.06,-0.21 0.205,-0.1 c 0,0 8.504,-2.5 8.51,-2.5 0,0 7.28,-1.91 7.278,-1.91 0.277,-0.1 0.466,-0.2 0.557,-0.36 0.1,-0.17 0.103,-0.41 0.01,-0.72 z m -30.127,3.65 -0.208,0.1 -0.06,-0.2 -2.33,-7.92 -0.06,-0.2 0.206,-0.1 10.865,-3.19 0.205,-0.1 0.06,0.21 2.328,7.92 0.06,0.2 -0.207,0.1 -10.863,3.2 z m 14.882,9.7 0.06,0.21 -0.206,0.1 -10.865,3.19 -0.205,0.1 -0.06,-0.2 -2.155,-7.33 -0.06,-0.2 0.208,-0.1 10.865,-3.2 0.205,-0.1 0.06,0.21 2.155,7.32 z"
       id="path68" />
    <path
       d="m 19.264,320.39 -0.103,0.1 c 0.01,0 0.02,0.1 0.03,0.14 l 0.07,-0.22 z"
       id="path70" />
    <path
       d="m 39.287,318.8 -0.09,0.1 c 0.01,0 0.01,0.1 0.02,0.13 l 0.06,-0.21 z"
       id="path72" />
    <path
       d="m 44.824,320.36 -0.09,0.1 c 0.01,0.1 0.01,0.1 0.02,0.13 l 0.06,-0.21 z"
       id="path74" />
    <path
       d="m 32.496,322.05 -0.109,0.1 c 0.01,0.1 0.01,0.1 0.03,0.14 l 0.08,-0.22 z"
       id="path76" />
    <path
       d="m 25.829,318.78 -0.08,0.1 c 0.01,0.1 0.02,0.1 0.04,0.14 l 0.05,-0.22 z"
       id="path78" />
    <polygon
       points="6.253,147.85 6.259,147.83 6.247,147.86 6.247,147.86 "
       transform="scale(2.0546,2.0546)"
       id="polygon80" />
    <rect
       width="0.0041093"
       height="0.006164"
       x="13.768"
       y="303.58"
       id="rect82" />
    <polygon
       points="8.689,136.95 8.698,136.94 8.686,136.95 8.686,136.95 "
       transform="scale(2.0546,2.0546)"
       id="polygon84" />
    <path
       d="m 22.833,298.87 c 0.44,0 0.629,-0.2 0.629,-0.68 0,-0.68 -0.138,-1.52 -0.407,-2.47 -0.265,-0.94 -0.53,-1.58 -0.785,-1.9 -0.232,-0.3 -0.544,-0.44 -0.947,-0.44 l -2.507,0 h -0.214 v -0.22 l -0.02,-11.62 c 0,-0.15 -0.03,-0.26 -0.09,-0.31 -0.02,0 -0.06,-0.1 -0.202,-0.1 -0.139,0 -0.285,0.1 -0.441,0.21 -0.101,0.13 -3.325,4.26 -3.325,4.26 -0.121,0.16 -0.183,0.31 -0.183,0.44 0,0.18 0.113,0.36 0.339,0.55 l 2.945,2.54 0.07,0.1 v 0.1 l 0,3.82 v 0.22 h -0.22 l -2.803,0 h -0.111 l -0.06,-0.1 c 0,0 -0.892,-1.25 -0.894,-1.26 -0.113,-0.16 -0.244,-0.24 -0.415,-0.24 -0.195,0 -0.343,0.1 -0.471,0.28 l -2.163,7.05 c 0.963,-0.1 4.023,-0.24 4.033,-0.24 l 2.893,0 H 17.7 v 0.22 l 0,5.65 v 0.21 h -0.212 l -2.757,0 h -0.127 l -0.06,-0.12 c -0.571,-1.06 -0.752,-1.24 -0.795,-1.27 -0.111,0 -0.22,-0.1 -0.341,-0.1 -0.271,0 -0.454,0.1 -0.582,0.28 l -1.898,6.8 c 0.875,-0.1 3.478,-0.26 3.493,-0.26 h 3.078 l 0.213,0 v 0.22 l 0.02,11.12 1.414,-1.18 c -0.344,-1.21 -0.526,-2.25 -0.526,-3.08 l -0.01,-6.86 v -0.22 h 0.214 c 0,0 1.915,0 1.927,0 l 2.098,0.13 c 0.15,0 0.224,0 0.263,-0.1 0.1,-0.1 0.214,-0.31 0.214,-0.87 0,-0.57 -0.154,-1.41 -0.452,-2.49 -0.397,-1.44 -0.635,-1.76 -0.719,-1.83 -0.181,-0.15 -0.409,-0.22 -0.695,-0.22 l -2.644,0 H 18.6 v -0.21 l 0,-5.65 v -0.22 h 0.214 l 4.01,0 z"
       id="path86" />
    <polygon
       points="6.199,142.15 6.206,142.13 6.193,142.16 6.193,142.16 "
       transform="scale(2.0546,2.0546)"
       id="polygon88" />
    <polygon
       points="15.139,136.62 15.15,136.61 15.134,136.62 15.134,136.62 "
       transform="scale(2.0546,2.0546)"
       id="polygon90" />
    <path
       d="m 53.6,301.02 c -0.271,-0.89 -0.738,-1.94 -1.407,-1.94 0,0 -3.691,0.14 -3.701,0.14 l -4.101,0 H 44.177 V 299 l -0.03,-18.09 c 0,-0.29 -0.103,-0.29 -0.196,-0.29 -0.145,0 -0.279,0.1 -0.406,0.22 0,0 -3.549,4.13 -3.549,4.13 -0.162,0.19 -0.244,0.37 -0.242,0.52 0,0.16 0.103,0.32 0.314,0.48 l 3.15,2.75 0.07,0.1 v 0.1 l 0.02,10.12 v 0.21 h -0.213 l -4.262,0 H 38.62 v -0.22 L 38.6,283.04 c 0,-0.18 -0.03,-0.31 -0.101,-0.38 -0.05,0 -0.125,-0.1 -0.23,-0.1 -0.152,0 -0.288,0.1 -0.409,0.2 l -3.39,3.84 c -0.22,0.25 -0.333,0.47 -0.333,0.68 0,0.17 0.101,0.34 0.304,0.51 l 2.737,2.09 0.09,0.1 v 0.45 h -0.215 l -4.991,0 h -0.214 v -0.21 l -0.01,-9.28 c 0,-0.4 -0.161,-0.4 -0.265,-0.4 -0.146,0 -0.296,0.1 -0.452,0.18 -0.134,0.16 -3.411,4.1 -3.417,4.11 -0.13,0.15 -0.195,0.32 -0.193,0.54 0,0.19 0.113,0.36 0.351,0.54 l 3.035,2.36 0.08,0.1 v 0.1 l 0,1.78 v 0.22 h -0.214 l -5.286,0 h -0.216 v -0.21 L 25.242,283 c 0,-0.43 -0.148,-0.43 -0.218,-0.43 -0.103,0 -0.212,0.1 -0.319,0.18 0,0 -3.548,3.97 -3.546,3.97 -0.148,0.17 -0.22,0.38 -0.22,0.63 0,0.19 0.06,0.33 0.198,0.43 l 3.17,2.62 0.08,0.1 v 0.1 l 0.04,29.7 1.323,-1.39 c -0.343,-1.04 -0.505,-2.02 -0.46,-2.92 l 0,-1.87 v -0.22 h 0.214 l 5.286,0 h 0.214 v 0.22 l 0.01,9.06 1.371,-1 c -0.331,-1.46 -0.508,-2.79 -0.51,-3.96 l 0,-4.1 v -0.22 h 0.214 l 5.469,0 h 0.214 v 0.22 l 0.01,6.1 1.418,-1.28 c -0.364,-1.57 -0.557,-3 -0.557,-4.23 l -0.01,-9.55 v -0.21 h 0.213 l 4.262,0 h 0.213 v 0.22 l 0.02,16.66 1.397,-1.32 c -0.347,-1.43 -0.532,-2.68 -0.534,-3.68 l -0.02,-11.67 v -0.21 h 0.213 c 0,0 4.67,0 4.677,0 l 3.875,0.1 c 0.739,0 1.004,-0.1 1.093,-0.12 0.123,-0.1 0.189,-0.3 0.189,-0.65 0,-0.73 -0.212,-1.8 -0.633,-3.17 z m -28.338,-1.98 0,-3.03 v -0.21 h 0.214 l 5.286,0 h 0.214 v 0.2 l 0,3.04 v 0.21 h -0.214 l -5.286,0 H 25.26 v -0.22 h 0 z m 5.517,9.46 -5.287,0 h -0.214 v -0.22 l 0,-3.16 v -0.22 h 0.214 l 5.287,0 h 0.215 v 0.22 l 0,3.17 v 0.21 h -0.215 z m 1.068,-9.47 0,-3.03 v -0.21 h 0.214 l 5.469,0 h 0.214 V 296 l 0,3.04 v 0.21 H 37.53 l -5.469,0 h -0.216 v -0.22 z m 5.698,9.46 -5.47,0 h -0.216 v -0.22 l 0,-3.17 v -0.21 h 0.214 l 5.47,0 h 0.215 v 0.21 l 0,3.18 v 0.21 h -0.213 z"
       id="path92" />
    <path
       d="m 39.453,224.74 0.05,-0.18 0.189,0 c 5.246,0.94 10.222,1.06 14.794,0.36 4.496,-0.68 8.957,-2.78 13.269,-6.22 -2.268,-2.45 -3.102,-4.8 -2.457,-7.01 0.1,-0.34 0.253,-0.67 0.425,-1.01 l -0.655,-0.69 c -2.233,2.42 -4.013,4.23 -5.272,5.36 -1.299,1.17 -3.253,2.38 -5.805,3.59 -2.552,1.21 -5.145,2.06 -7.707,2.51 -2.558,0.46 -5.375,0.61 -8.368,0.44 -2.994,-0.16 -5.581,-0.56 -7.685,-1.18 -1.066,-0.31 -1.738,-1.01 -1.997,-2.07 -0.287,-1.18 -0.626,-1.45 -0.803,-1.5 -0.236,-0.1 -0.46,0 -0.686,0.1 l -4.798,7.27 c 0.787,0.2 1.56,0.4 2.272,0.61 3.3,0.96 7.453,2.59 12.34,4.84 4.903,2.25 9.191,5.41 12.743,9.4 3.51,3.94 5.906,8.47 7.144,13.48 l 0.814,-0.17 c -0.399,-7.17 -1.946,-12.98 -4.606,-17.27 -2.68,-4.31 -7.089,-7.79 -13.103,-10.33 l -0.177,-0.1 0.05,-0.18 0.02,-0.1 z"
       id="path94" />
    <path
       d="m 78.034,180.49 c 0,0 0,0 -0.01,0 -0.01,0 -0.03,0 -0.03,0 l 0.05,0 z"
       id="path96" />
    <path
       d="m 85.582,140.08 c 0.01,0 0.01,0 0.03,0 0.01,0 0.04,0 0.04,0 l -0.06,0 z"
       id="path98" />
    <path
       d="m 103.05,150.62 c -0.14,-0.46 -0.37,-0.79 -0.72,-1.01 -0.29,-0.19 -0.76,-0.32 -1.4,-0.38 -2.415,-0.27 -5.03,-1.29 -7.769,-3.05 -0.937,-0.6 -1.87,-1.3 -2.774,-2.06 l -0.698,0.58 c 1.826,1.9 3.39,4.16 4.637,6.74 l 0.05,0.11 -0.06,0.1 c 0,0 -0.21,0.32 -0.206,0.32 -0.524,0.87 -1.865,1.66 -4.099,2.41 -2.18,0.73 -4.296,1.02 -6.287,0.87 -1.987,-0.15 -3.875,-0.59 -5.613,-1.31 l -0.239,-0.1 0.138,-0.21 8.221,-12.79 c 0.291,-0.45 0.127,-0.55 0.05,-0.6 -0.09,-0.1 -0.284,-0.13 -0.672,-0.16 -0.384,0.1 -5.529,1.32 -5.533,1.32 -0.218,0 -0.384,0.17 -0.51,0.36 -0.123,0.19 -0.129,0.36 -0.02,0.55 l 0.01,0 0,0 1.494,4.67 0.03,0.1 -0.05,0.1 -4.142,6.44 -0.09,0.13 -0.152,0 c -2.415,-0.67 -4.609,-1.55 -6.52,-2.64 l -0.197,-0.11 0.123,-0.19 3.07,-4.77 0.115,-0.19 0.181,0.12 1.763,1.14 c 0.337,0.21 0.785,0.36 1.282,-0.41 0.322,-0.51 0.676,-1.46 1.048,-2.82 0.355,-1.3 0.201,-2.14 -0.458,-2.57 0,0 -3.925,-2.19 -3.935,-2.2 l -2.281,-1.47 c -0.666,-0.43 -1.076,-1.22 -1.22,-2.37 l 0,0 v 0 c 0,-0.19 -0.05,-0.32 -0.196,-0.41 -0.191,-0.12 -0.415,-0.14 -0.671,-0.1 0,0 -3.991,1.44 -3.993,1.44 -0.283,0.1 -0.501,0.28 -0.663,0.53 -0.136,0.21 -0.179,0.4 -0.136,0.61 l 0.748,4.27 0.01,0.1 -0.04,0.1 -8.849,13.77 -0.02,0 -0.03,0 -5.907,4.09 c 1.43,0.68 3.327,1.78 5.689,3.29 l 21.716,13.97 c 0.619,0.4 0.738,1.11 0.352,2.1 -0.171,0.44 -0.202,0.78 -0.09,1.03 0.08,0.19 0.249,0.33 0.5,0.43 0.359,0.1 6.155,0.86 6.157,0.86 0.278,0 0.489,-0.1 0.666,-0.35 0.181,-0.28 0.204,-0.55 0.07,-0.84 -0.575,-1.13 -1.042,-3.92 -1.426,-8.51 l -0.604,-7.84 -0.883,-0.1 c -0.52,2.41 -1.262,5.05 -2.226,7.86 l -0.09,0.26 -0.23,-0.15 -9.067,-5.83 -0.179,-0.11 0.115,-0.19 4.364,-6.78 0.1,-0.15 0.166,0.1 c 1.595,0.65 3.479,1.17 5.605,1.54 2.127,0.38 4.319,0.52 6.518,0.43 2.192,-0.1 4.319,-0.55 6.32,-1.35 1.999,-0.8 3.922,-2 5.714,-3.55 1.793,-1.56 2.843,-2.56 3.123,-3 0,0 0.48,-0.67 0.48,-0.66 0.35,-0.54 0.46,-1.05 0.33,-1.49 z m -40.524,10.19 -0.181,-0.12 -5.997,-3.86 -0.181,-0.12 0.117,-0.18 9.714,-15.1 0.115,-0.18 0.181,0.11 5.998,3.86 0.181,0.12 -0.115,0.18 -9.715,15.1 -0.117,0.19 z m 11.134,-2.15 -4.118,6.4 -0.115,0.18 -0.18,-0.11 -5.77,-3.71 -0.181,-0.12 0.117,-0.18 3.588,-5.58 0.111,-0.17 0.176,0.11 c 1.809,1.05 3.917,2.02 6.265,2.86 l 0.253,0.1 -0.146,0.22 z"
       id="path100" />
    <polygon
       points="58.31,38.255 58.321,38.25 58.309,38.255 58.309,38.255 "
       transform="scale(2.0546,2.0546)"
       id="polygon102" />
    <path
       d="m 143.52,89.723 c 0.1,-0.06 0.15,-0.146 0.16,-0.234 0,-0.06 0,-0.126 -0.1,-0.202 -0.1,-0.123 -0.27,-0.209 -0.5,-0.263 -0.27,-0.02 -5.77,-0.454 -5.78,-0.456 -0.1,0 -0.22,0.01 -0.5,0.257 -0.26,0.22 -0.38,0.438 -0.36,0.645 l 0.39,4.794 0,0.107 -0.1,0.07 -2.93,2.539 -0.16,0.142 -0.14,-0.162 -7.56,-8.706 -0.14,-0.162 0.16,-0.14 8.24,-7.158 c 0.19,-0.167 0.23,-0.272 0.23,-0.319 0,-0.03 0,-0.07 -0.1,-0.123 -0.1,-0.1 -0.29,-0.228 -0.78,-0.3 0,0 -5.6,-0.265 -5.6,-0.265 -0.17,0 -0.35,0.08 -0.55,0.255 -0.17,0.147 -0.22,0.306 -0.18,0.515 l 0,0.02 v 0.02 l 0.31,4.644 0,0.106 -0.1,0.07 -2.15,1.87 -0.16,0.14 -0.14,-0.163 -4.28,-4.92 c -0.65,-0.748 -0.83,-1.525 -0.56,-2.31 0.22,-0.629 0.23,-1.064 0,-1.3 -0.14,-0.153 -0.29,-0.192 -0.49,-0.13 l -7.23,3.255 c 0.6,0.48 1.73,1.578 3.52,3.417 l 4.86,5.59 0.14,0.163 -0.16,0.141 -4.07,3.526 -0.16,0.14 -0.14,-0.162 -4.3,-4.956 c -0.7,-0.812 -0.8,-1.823 -0.28,-3.006 0.1,-0.134 0.11,-0.345 -0.13,-0.625 -0.19,-0.218 -0.4,-0.265 -0.69,-0.158 l -7.04,3.246 c 0.46,0.438 1.48,1.471 3.18,3.218 l 5.11,5.884 0.14,0.163 -0.16,0.142 -7.73,6.708 2.09,0.1 c 0.86,-1.21 1.67,-2.15 2.39,-2.78 l 3.84,-3.324 0.16,-0.142 0.14,0.162 7.56,8.704 0.14,0.16 -0.16,0.14 -9.57,8.31 2.06,0.15 c 0.56,-1 1.35,-1.96 2.36,-2.84 l 27.85,-24.172 z m -26.09,5.948 -0.14,-0.162 0.16,-0.14 4.06,-3.526 0.17,-0.141 0.14,0.162 7.56,8.706 0.14,0.16 -0.16,0.14 -4.07,3.53 -0.16,0.14 -0.14,-0.16 -7.56,-8.709 z"
       id="path104" />
    <path
       d="m 130.42,107.5 -6.53,0.45 c 0.9,5.94 0.11,12.89 -2.37,20.67 l 0.82,0.27 c 4.45,-7.09 6.94,-13.53 7.4,-19.15 l 0,-0.1 0.1,-0.1 c 0,0 1.19,-1.27 1.18,-1.27 0.2,-0.21 0.19,-0.4 0,-0.63 -0.12,-0.14 -0.31,-0.21 -0.55,-0.21 z"
       id="path106" />
    <path
       d="m 150.16,104.39 c -0.15,-0.9 -0.57,-1.75 -1.24,-2.53 -1.61,-1.85 -4.06,-2.707 -7.26,-2.539 -3.21,0.169 -7.18,1.579 -11.79,4.179 l 0.24,0.82 c 5.5,-1 10.94,-0.26 16.17,2.22 1.37,0.63 2.43,0.59 3.25,-0.13 0.57,-0.49 0.77,-1.15 0.63,-2.02 z"
       id="path108" />
    <path
       d="m 168.73,62.266 -0.12,-0.05 c 0,0.03 -0.1,0.05 -0.1,0.08 l 0.22,-0.02 z"
       id="path110" />
    <rect
       width="0.006164"
       height="0.016437"
       x="186.88"
       y="81.907"
       id="rect112" />
    <path
       d="m 210.86,63.057 c 0,0 -3.15,-6.429 -3.15,-6.433 l -6.16,-13.446 c -0.27,-0.592 -0.21,-1.208 0.16,-1.833 0.29,-0.489 0.39,-0.869 0.28,-1.101 -0.1,-0.206 -0.31,-0.368 -0.63,-0.479 0,0 -3.75,-1.015 -3.75,-1.015 -0.46,-0.121 -0.81,-0.127 -1.04,-0.02 -0.28,0.128 -0.44,0.364 -0.5,0.726 l 0,0.02 0,0.02 -1.16,3.417 0,0.09 -0.1,0.04 -4.1,1.88 0,0.02 h 0 l -6.46,0.04 c 0.61,1.058 1.22,2.225 1.8,3.507 l 1.33,2.901 0.22,0.489 -0.5,-0.201 c 0,0 -3.29,-1.326 -3.29,-1.328 -0.47,-0.199 -0.61,-0.207 -0.64,-0.207 -0.1,0.03 -0.17,0.142 -0.27,0.563 l -1.02,3.85 0,0.1 -0.1,0.04 -0.72,0.333 -0.2,0.09 -0.1,-0.195 -3.05,-6.651 -0.1,-0.166 0.15,-0.103 c 2.12,-1.436 3.39,-2.345 3.77,-2.7 0.42,-0.384 0.79,-0.645 1.13,-0.799 0.36,-0.167 0.79,-0.28 1.27,-0.335 0.39,-0.04 0.65,-0.177 0.78,-0.405 0.14,-0.226 0.16,-0.431 0.1,-0.643 -0.1,-0.134 -0.17,-0.238 -0.34,-0.318 l -6.07,-2.76 c -3.49,5.492 -7.96,10.571 -13.28,15.104 l 0.42,0.485 c 3.02,-1.584 5.51,-3.068 7.41,-4.405 l 0.21,-0.15 0.11,0.234 2.66,5.821 0.1,0.195 -0.19,0.09 -8.78,4.019 1.69,0.785 c 1.39,-1.031 2.52,-1.754 3.35,-2.135 l 2.23,-1.025 0.25,-0.113 0.1,0.265 c 1.24,6.137 1.26,13.211 0.1,21.017 l 0.69,0.167 c 2.46,-4.477 3.96,-9.033 4.42,-13.548 l 0,-0.122 0.12,-0.05 0.12,-0.06 0.2,-0.09 0.1,0.195 c 0,0 4.4,9.594 4.4,9.6 0,0 2.08,4.984 2.09,5.001 l 0.2,0.593 c 0.16,0.352 0.45,0.705 1.22,0.35 0.61,-0.278 1.34,-0.876 2.17,-1.778 1.07,-1.165 1.28,-1.625 1.3,-1.795 0,-0.307 0,-0.652 -0.18,-1.011 0,0 -0.57,-1.019 -0.58,-1.028 0,0 -3.06,-6.192 -3.06,-6.198 l -4.49,-9.801 -0.1,-0.195 0.2,-0.09 0.14,-0.07 0.12,-0.05 0.1,0.08 c 0.14,0.107 0.69,0.43 1.63,0.96 0.97,0.548 1.85,1.37 2.63,2.443 0.71,0.967 1.47,1.243 2.34,0.846 0.33,-0.15 0.63,-0.491 0.9,-1.011 0.27,-0.526 0.33,-1.076 0.19,-1.683 l 0,-0.17 0.16,-0.07 0.15,-0.07 0.19,-0.09 0.1,0.195 c 0,0 2.78,6.072 2.78,6.078 l 2.48,5.907 c 0.2,0.446 0.42,0.723 0.67,0.816 0.17,0.06 0.36,0.05 0.57,-0.05 0.43,-0.197 1.03,-0.686 1.77,-1.456 0.75,-0.775 1.26,-1.439 1.53,-1.969 0.25,-0.493 0.24,-0.986 0,-1.514 l -1.84,-3.795 -0.1,-0.197 0.2,-0.09 4.49,-2.059 0.2,-0.09 0.1,0.203 c 0,0 1.88,4.428 1.88,4.432 0.11,0.27 0.24,0.44 0.41,0.504 0.14,0.06 0.33,0.04 0.55,-0.07 0.65,-0.296 1.48,-1.054 2.46,-2.256 0.98,-1.167 1.22,-2.149 0.77,-3.008 z m -20.33,-4.389 0,0.122 -0.14,0.369 -0.24,-0.314 c -1.13,-1.516 -3.71,-1.658 -7.66,-0.419 l -0.18,0.06 -0.1,-0.17 -1.01,-2.221 -0.1,-0.195 0.19,-0.09 6.43,-2.942 0.19,-0.09 0.1,0.197 2.53,5.531 0,0.08 0,0.08 z m 13.62,3.884 -4.54,2.079 -0.2,0.09 -0.1,-0.195 -8.47,-18.502 -0.1,-0.195 0.2,-0.09 4.53,-2.08 0.2,-0.09 0.1,0.195 8.47,18.502 0.1,0.195 -0.19,0.09 z"
       id="path114" />
    <path
       d="m 183.05,50.131 h 0 c 0,0 0,0 0,0 0,0 0,0 0,0 z"
       id="path116" />
    <path
       d="m 280.89,47.816 -4.07,-28.332 0,-0.105 0.1,-0.08 1.29,-1.313 c 0.23,-0.236 0.32,-0.495 0.28,-0.789 0,-0.271 -0.16,-0.45 -0.39,-0.557 0,0 -4.12,-2.422 -4.12,-2.424 -0.25,-0.146 -0.47,-0.208 -0.67,-0.177 -0.24,0.04 -0.4,0.136 -0.51,0.329 l -2.35,3.353 -0.1,0.08 -0.1,0.01 -22.6,3.248 0,0 0,-0.01 -6.8,-2.026 c 0.41,2.038 0.71,3.647 0.87,4.752 0,0 4.22,29.392 4.22,29.4 0,0 0.66,6.396 0.66,6.394 0,0.278 0.13,0.475 0.27,0.588 0.16,0.119 0.39,0.156 0.7,0.111 0.51,-0.07 1.32,-0.395 2.4,-0.955 1.34,-0.689 1.76,-1.046 1.88,-1.225 0.17,-0.247 0.22,-0.536 0.17,-0.879 l -0.56,-2.797 0,-0.222 0.22,-0.03 24.18,-3.472 0.21,-0.03 0,0.214 c 0,0 0.18,1.286 0.18,1.298 l 0.25,2.842 c 0,0.183 0.14,0.351 0.36,0.503 0.22,0.154 0.46,0.21 0.74,0.171 0.21,-0.03 0.82,-0.251 2.53,-1.124 1.32,-0.672 1.87,-1.422 1.69,-2.295 0,0 -0.85,-4.442 -0.85,-4.452 z m -8.44,-21.543 0,0.214 0.47,3.271 0.1,0.341 -0.33,-0.107 -5.19,-1.685 c -0.16,3.029 -0.39,5.262 -0.69,6.602 l 0,0.144 -0.14,0.02 -0.12,0.02 -0.17,0.02 -0.1,-0.164 c -0.39,-1.058 -0.87,-3.466 -1.47,-7.36 l 0,-0.214 0.22,-0.03 7.26,-1.042 0.21,-0.03 z m -5.49,-7.086 4.17,-0.6 0.21,-0.03 0,0.213 0.75,5.168 0.1,0.448 -0.39,-0.234 -1.26,-0.765 -0.15,-0.09 0.1,-0.169 c 0.17,-0.419 0.22,-0.824 0.17,-1.206 -0.1,-0.645 -0.48,-1.159 -1.17,-1.574 -0.71,-0.425 -1.54,-0.655 -2.45,-0.686 l -0.18,0 0,-0.179 0,-0.04 0,-0.212 0.21,-0.03 z m -5.21,0.817 0.1,-0.06 0,-0.03 0.1,0 3.27,-0.471 0.51,-0.07 -0.31,0.415 -0.17,0.224 c 0.9,0.481 1.52,1.311 1.83,2.503 0.3,1.142 0.7,1.773 1.2,1.87 l 0.32,0.06 -0.19,0.271 -0.94,1.309 -0.1,0.07 -0.1,0.01 -2.36,0.341 -0.22,0.03 0,-0.213 -0.5,-3.497 0,-0.111 0.1,-0.08 c 0.73,-0.68 0.85,-1.071 0.82,-1.276 0,-0.278 -0.16,-0.331 -0.29,-0.351 l -2.96,-0.566 -0.5,-0.09 0.42,-0.29 z m -14.06,8.706 -0.92,-6.407 0,-0.213 0.21,-0.03 11.62,-1.668 0.2,-0.03 0,0.199 c 0,0 0.49,2.462 0.49,2.472 l 0.56,3.926 0,0.214 -0.22,0.03 -11.75,1.687 -0.21,0.03 0,-0.211 z m 27.93,21.118 -24.18,3.472 -0.21,0.03 0,-0.214 -0.88,-6.157 0,-0.214 0.21,-0.03 0.11,-0.02 0.16,-0.02 0.1,0.138 c 0.21,0.419 0.59,1.011 1.13,1.761 0.56,0.766 0.93,1.317 1.11,1.635 0.19,0.341 0.35,0.318 0.41,0.31 0.37,-0.05 0.68,-0.37 0.92,-0.939 0.29,-0.676 0.87,-1.362 1.72,-2.036 l 6.13,-4.898 -0.16,-0.428 c -4.02,1.412 -7.98,2.546 -11.75,3.36 l -0.22,0.05 0,-0.228 -2.26,-15.722 -0.1,-0.458 0.4,0.246 1.07,0.674 c 1.33,-0.548 2.23,-0.854 2.73,-0.926 l 7.85,-1.126 0.21,-0.03 0,0.201 0.58,3.072 0.1,0.526 -0.43,-0.312 -2.36,-1.689 c -0.26,-0.02 -0.41,-0.02 -0.47,0 -0.21,0.03 -0.35,0.135 -0.44,0.328 l 0,0.02 0,0.02 -1.35,1.989 -0.1,0.08 -0.1,0.01 -1.49,0.213 0,0 0,-0.01 -4.42,-1.202 c 0.22,0.939 0.42,1.995 0.59,3.189 0,0 0.66,4.535 0.66,4.537 l 0.49,3.752 c 0.1,0.439 0.18,0.737 0.37,0.883 0.13,0.101 0.3,0.134 0.52,0.103 0.13,-0.02 0.51,-0.146 1.65,-0.797 1.13,-0.652 1.43,-0.904 1.5,-1.001 0.11,-0.144 0.16,-0.294 0.13,-0.473 l -0.1,-1.161 0,-0.201 0.21,-0.03 0.97,-0.139 0.21,-0.03 0,0.214 0.21,1.489 c 0,0.179 0.1,0.304 0.19,0.38 0.14,0.101 0.36,0.13 0.65,0.09 0.34,-0.05 1.03,-0.329 2.05,-0.835 0.96,-0.476 1.37,-1.095 1.26,-1.869 0,0 -0.45,-2.008 -0.45,-2.024 l -0.58,-4.06 0,-0.09 0.1,-0.07 0.53,-0.651 0.29,-0.359 0.1,0.458 c 0.66,3.552 1.56,6.55 2.67,8.907 l 0.1,0.102 -0.1,0.1 c -2.02,3.401 -4.69,6.526 -7.94,9.301 l 0.34,0.358 c 3.78,-1.564 7.06,-3.754 9.73,-6.519 l 0.17,-0.177 0.15,0.195 c 1.18,1.514 2.51,2.673 3.95,3.44 1.42,0.762 2.53,1.091 3.29,0.982 1.09,-0.157 1.53,-0.656 1.4,-1.574 -0.1,-0.456 -0.28,-1.085 -0.65,-1.87 -0.38,-0.82 -0.66,-1.833 -0.83,-3.004 -0.16,-1.107 -0.32,-3.026 -0.46,-5.683 l -0.38,-0.04 c -0.52,4.705 -0.6,4.991 -0.62,5.077 -0.1,0.306 -0.31,0.491 -0.62,0.536 -0.31,0.05 -0.58,-0.01 -0.81,-0.17 -0.14,-0.09 -0.44,-0.374 -1.5,-1.774 l -0.1,-0.11 0.1,-0.124 c 1.1,-1.991 2.12,-4.709 3.03,-8.079 l 0,-0.05 0,-0.04 c 0.27,-0.308 0.59,-0.602 0.94,-0.873 l 0.29,-0.222 0.1,0.364 2.58,17.933 0,0.213 -0.21,0.03 z m -19.06,-10.756 -0.21,0.03 -1.04,0.148 -0.21,0.03 0,-0.213 -0.8,-5.55 0,-0.214 0.21,-0.03 1.04,-0.148 0.21,-0.03 0,0.214 0.8,5.549 0,0.214 z"
       id="path118" />
    <path
       d="m 257.88,29.821 0.1,0.04 c 0,0 0,0 0.1,0 l -0.1,-0.04 z"
       id="path120" />
    <path
       d="m 249.31,30.199 -0.1,-0.06 c 0,0.02 -0.1,0.03 -0.11,0.04 l 0.2,0.02 z"
       id="path122" />
    <path
       d="m 257.88,29.821 0.1,0.04 c 0,0 0,0 0.1,0 l -0.1,-0.04 z"
       id="path124" />
    <polygon
       points="172.24,10.968 172.26,10.981 172.24,10.963 172.24,10.963 "
       transform="scale(2.0546,2.0546)"
       id="polygon126" />
    <path
       d="m 344.11,29.992 -0.38,-0.436 0.57,0.08 13.99,1.986 c 0.39,0.06 0.55,-0.01 0.61,-0.05 0,-0.02 0.1,-0.06 0.1,-0.16 0,-0.161 -0.1,-0.385 -0.28,-0.643 0,0 -3.42,-4.445 -3.42,-4.439 -0.11,-0.133 -0.27,-0.213 -0.48,-0.244 -0.25,-0.04 -0.45,0.03 -0.63,0.207 l -3.69,3.113 -0.1,0.06 -0.1,-0.01 -8.51,-1.209 -0.21,-0.03 0,-0.214 0.67,-4.67 0,-0.197 0.2,0.01 c 1,0.07 2.65,0.06 4.92,-0.01 2.33,-0.07 3.81,-0.06 4.53,0.04 0.39,0.05 0.73,0.139 1.02,0.254 0.22,0.09 0.44,0.08 0.67,0 0.21,-0.08 0.32,-0.213 0.35,-0.407 0,-0.15 0,-0.306 -0.1,-0.478 l -3.89,-4.921 c -5.39,1.485 -14.36,2.441 -26.66,2.837 l 0,0.635 c 3.62,0.51 8.16,1.023 13.53,1.533 l 0.22,0.02 0,0.221 -0.63,4.402 0,0.211 -0.21,-0.03 -17.96,-2.549 1.07,1.625 c 0.88,-0.163 2.41,-0.09 4.7,0.234 l 6.36,0.904 0.37,0.05 -0.23,0.292 c -3.58,4.658 -8.68,8.695 -15.14,12.007 l 0.47,0.801 c 5.15,-1.28 8.57,-2.381 10.16,-3.277 l 0.36,-0.203 0,0.411 c 0,0 -0.48,4.834 -0.48,4.843 0,0 -1.25,8.868 -1.26,8.88 0,0 -0.8,3.891 -0.8,3.889 0,0.15 0,0.276 0.1,0.382 0.12,0.163 0.43,0.383 1.25,0.498 0.91,0.129 1.92,0.08 2.98,-0.161 1.35,-0.302 1.54,-0.641 1.56,-0.762 l 0.24,-2.659 0,-0.223 0.22,0.03 10.9,1.548 0.22,0.03 0,0.214 -0.48,3.316 c 0,0.109 -0.1,0.442 0.93,0.582 0.87,0.125 1.87,0.04 3,-0.237 1.43,-0.359 1.63,-0.723 1.65,-0.854 0,0 0.39,-4.042 0.39,-4.052 l 1.3,-9.16 c 0.1,-0.39 0.31,-0.694 0.76,-0.902 0.47,-0.217 0.5,-0.343 0.5,-0.343 l 0.1,-0.318 0.26,0.201 c 1.56,1.198 2.68,1.981 3.37,2.367 0.98,-1.539 1.82,-2.527 2.56,-2.987 0.78,-0.481 1.68,-0.652 2.69,-0.508 0.19,0.03 0.39,0.07 0.59,0.119 l 0.38,-0.795 c -5.8,-2.357 -10.86,-5.94 -15.04,-10.69 z m -2.02,17.686 -0.74,5.258 0,0.214 -0.22,-0.03 -10.9,-1.547 -0.21,-0.03 0,-0.214 0.75,-5.258 0,-0.214 0.21,0.03 10.9,1.548 0.22,0.03 0,0.214 z m 0.91,-6.341 -0.72,5.053 0,0.213 -0.22,-0.03 -10.9,-1.548 -0.21,-0.03 0,-0.214 0.72,-5.053 0,-0.213 0.22,0.03 10.89,1.547 0.22,0.03 0,0.213 z m 3.43,-2.299 -0.11,0.1 -0.15,0.137 -0.14,-0.137 c -0.55,-0.504 -0.81,-0.604 -0.92,-0.621 -0.1,0 -0.1,0 -0.1,0.03 l 0,0.02 0,0.02 -2.2,1.574 -0.1,0.05 -0.1,-0.01 -10.36,-1.471 -0.1,0 0,-0.04 -3.06,-2.414 -0.25,-0.193 0.27,-0.16 c 2.55,-1.514 4.67,-3.413 6.32,-5.642 l 0.1,-0.103 0.12,0.02 0.14,0.02 0.21,0.03 0,0.213 c 0,0 -0.39,2.731 -0.39,2.739 0,0 -0.95,5.092 -0.95,5.094 v 0 c 0,0 0.1,0.14 0.69,0.228 0.88,0.123 1.96,0.07 3.23,-0.152 1.67,-0.294 1.85,-0.666 1.86,-0.766 0,0 0.44,-4.081 0.44,-4.089 l 0.5,-3.52 0,-0.213 0.21,0.03 0.1,0.01 0.15,0.02 0,0.15 c 0.61,3.165 2.15,6.107 4.58,8.749 l 0.14,0.156 -0.15,0.15 z"
       id="path128" />
    <path
       d="m 421.31,79.153 c 0,0.04 -0.1,0.07 -0.12,0.119 0,0.05 0.1,0.103 0.12,0.158 v -0.277 z"
       id="path130" />
    <polygon
       points="210.4,26.609 210.4,26.622 210.4,26.606 210.4,26.606 "
       transform="scale(2.0546,2.0546)"
       id="polygon132" />
    <polygon
       points="209.66,30.472 209.66,30.484 209.66,30.47 209.66,30.47 "
       transform="scale(2.0546,2.0546)"
       id="polygon134" />
    <path
       d="m 430.75,51.013 c -0.18,-0.425 -0.33,-0.544 -0.41,-0.575 -0.17,-0.08 -0.4,-0.06 -0.67,0.06 l -3.2,1.519 -0.1,0.04 -0.1,-0.04 -0.77,-0.35 -0.19,-0.09 0.1,-0.195 1.74,-3.814 c 0.13,-0.291 0.53,-0.509 1.27,-0.684 0.84,-0.203 0.93,-0.357 0.94,-0.363 0,0 0.1,-0.226 -0.73,-0.878 l -4.73,-3.84 c -0.34,0.793 -1.4,3.259 -1.4,3.263 l -1.89,4.126 -0.1,0.195 -0.19,-0.09 -2.76,-1.259 -0.2,-0.09 0.1,-0.196 1.87,-4.082 c 0.13,-0.278 0.52,-0.481 1.23,-0.641 0.8,-0.183 0.89,-0.335 0.9,-0.341 0,-0.01 0.1,-0.251 -0.85,-1.009 l -4.58,-3.863 c -0.35,0.851 -1.43,3.534 -1.43,3.54 l -1.93,4.208 -0.1,0.196 -0.19,-0.09 -4.64,-2.118 0.57,1.765 c 1.1,0.146 2.09,0.407 2.94,0.793 l 0.77,0.351 0.19,0.09 -0.1,0.195 -2.64,5.782 -0.1,0.195 -0.2,-0.09 -5.07,-2.319 -0.27,-0.121 0.2,-0.218 3.37,-3.746 -0.4,-0.474 c -2.89,2.57 -5.69,4.814 -8.32,6.665 -2.75,1.931 -4.52,2.874 -5.43,2.887 -0.89,0 -1.81,-0.2 -2.73,-0.623 -0.45,-0.205 -0.92,-0.489 -1.41,-0.803 l -0.46,0.717 c 1.4,1.142 2.19,2.056 2.4,2.782 0.21,0.748 0.14,1.506 -0.2,2.256 -0.3,0.67 -0.95,1.611 -1.96,2.87 -0.97,1.214 -1.57,2.047 -1.76,2.47 -0.42,0.912 -0.41,2.089 0,3.495 0.42,1.393 1.07,2.299 1.92,2.687 1.33,0.609 2.43,-0.08 3.35,-2.091 0.6,-1.317 1.05,-2.63 1.33,-3.904 0.28,-1.319 0.54,-2.248 0.78,-2.84 l 0.1,-0.147 0.16,0.01 c 3.09,0.261 6.03,-0.107 8.73,-1.091 l 0.48,-0.175 -0.21,0.467 -3.9,8.539 c -0.36,0.791 -0.37,1.851 0,3.147 0.35,1.291 1.3,2.378 2.81,3.23 1.57,0.88 3.19,1.708 4.84,2.458 3.85,1.761 6.76,2.761 8.64,2.971 1.78,0.197 3.47,-0.643 5.04,-2.462 -1.17,-1.415 -1.75,-2.679 -1.69,-3.749 0.1,-1.028 0.31,-2.102 0.73,-3.195 l -0.5,-0.387 c -0.25,0.358 -0.64,0.96 -1.2,1.829 -0.69,1.072 -1.3,1.744 -1.86,2.052 -0.58,0.319 -1.4,0.333 -2.51,0.05 -1.05,-0.272 -2.51,-0.828 -4.32,-1.658 -2.25,-1.028 -3.56,-1.784 -3.99,-2.308 -0.46,-0.561 -0.5,-1.278 -0.11,-2.131 l 1.53,-3.338 0.1,-0.195 0.19,0.09 4.92,2.246 0.2,0.09 -0.1,0.199 -0.7,1.412 c -0.1,0.115 -0.1,0.213 0,0.306 0.1,0.164 0.27,0.331 0.6,0.481 0.76,0.349 1.81,0.505 3.09,0.46 1.61,-0.06 2,-0.393 2.09,-0.588 l 1.08,-2.363 0.2,-0.431 0.19,0.431 c 0.65,1.439 1.72,2.885 3.16,4.305 1.87,-1.691 3.84,-2.281 5.87,-1.749 l 0.46,-0.452 c -4.85,-3.466 -7.72,-7.421 -8.5,-11.765 l -0.1,-0.404 0.38,0.17 9.72,4.444 c 0.14,0.06 0.33,0.13 0.47,0.08 0.1,-0.03 0.16,-0.106 0.21,-0.228 0.1,-0.102 0.1,-0.22 0,-0.361 -0.1,-0.138 -2.18,-4.508 -2.18,-4.51 -0.19,-0.399 -0.32,-0.491 -0.37,-0.514 -0.22,-0.103 -0.34,-0.03 -0.43,0.05 l 0,0.03 0,0.01 -3.55,1.706 -0.1,0.04 -0.1,-0.04 -1.66,-0.758 -0.19,-0.09 0.1,-0.195 2.64,-5.784 0.1,-0.195 0.2,0.09 6.19,2.832 c 0.41,0.187 0.63,0.179 0.73,0.137 0.1,-0.03 0.14,-0.09 0.18,-0.184 0.1,-0.146 0.1,-0.339 0,-0.568 0,-0.139 -1.53,-3.663 -1.53,-3.661 z m -34.78,9.412 -0.57,0.175 0.33,-0.499 c 1.81,-2.747 4.37,-5.87 7.63,-9.281 l 0.23,-0.243 0.13,0.313 0.29,0.744 c 0.58,0.02 1.32,0.223 2.28,0.665 l 1.55,0.66 0.27,0.115 -0.19,0.222 c -2.7,3.117 -6.72,5.514 -11.95,7.129 z m 19.2,2.836 -2.01,4.415 -0.1,0.195 -0.2,-0.09 -4.95,-2.264 -0.2,-0.09 0.1,-0.196 2.02,-4.415 0.1,-0.195 0.19,0.09 4.96,2.264 0.19,0.09 -0.1,0.195 z m 3.03,-5.385 c -0.26,1.37 -0.38,2.617 -0.33,3.704 l 0,0.201 -0.2,0.02 -2.47,0.251 -0.1,0 0,-0.02 -4.62,-2.112 -0.1,-0.02 0,-0.04 -0.98,-1.272 -0.16,-0.215 0.25,-0.111 c 0.2,-0.09 1.06,-0.619 3.99,-2.601 l 0.1,-0.07 0.11,0.05 4.37,1.999 0.16,0.07 0,0.169 z m 1.88,-7.502 -2.64,5.782 -0.1,0.195 -0.19,-0.09 -2.76,-1.26 -0.2,-0.09 0.1,-0.195 2.65,-5.782 0.1,-0.195 0.19,0.09 2.76,1.26 0.2,0.09 -0.1,0.195 z"
       id="path136" />
    <path
       d="m 402.89,39.768 c -0.28,1.814 0.1,2.911 1.03,3.357 0.73,0.333 1.52,0.263 2.41,-0.211 0.89,-0.481 1.5,-1.073 1.82,-1.757 0.83,-1.825 -1.09,-4.644 -5.69,-8.373 l -0.66,0.257 0.88,2.192 c 0.44,1.075 0.51,2.602 0.21,4.535 z"
       id="path138" />
    <path
       d="m 396.07,45.17 c -0.28,2.844 -0.21,3.83 -0.1,4.155 0.16,0.449 0.41,0.752 0.79,0.922 0.68,0.312 1.44,0.203 2.31,-0.331 0.89,-0.544 1.55,-1.282 1.96,-2.19 0.37,-0.812 0.35,-1.8 -0.1,-2.938 -0.42,-1.143 -2.05,-2.877 -4.81,-5.145 l -0.66,0.257 c 0.6,1.276 0.81,3.034 0.59,5.27 z"
       id="path140" />
    <path
       d="m 493.38,110.09 c 0,0 0,0 0,0 0,0 0,0 0,0 v 0 z"
       id="path142" />
    <polygon
       points="237.68,56.099 237.68,56.123 237.68,56.089 237.68,56.089 "
       transform="scale(2.0546,2.0546)"
       id="polygon144" />
    <polygon
       points="240.78,44.281 240.79,44.293 240.78,44.275 240.78,44.275 "
       transform="scale(2.0546,2.0546)"
       id="polygon146" />
    <polygon
       points="241.51,49.772 241.51,49.787 241.51,49.768 241.51,49.768 "
       transform="scale(2.0546,2.0546)"
       id="polygon148" />
    <path
       d="m 495.7,97.463 c 0,-0.179 -0.1,-0.325 -0.23,-0.446 -0.15,-0.138 -0.34,-0.164 -0.59,-0.08 l 0,0 0,0 -3.49,0.686 -0.11,0.02 -0.1,-0.07 -1.99,-1.713 -0.16,-0.142 0.14,-0.162 3.27,-3.773 0.1,-0.09 0.12,0.02 1.58,0.309 c 0.1,0.02 0.26,0.02 0.44,-0.187 0.18,-0.212 0.2,-0.494 0.1,-0.861 L 491,84.933 c -0.73,0.91 -3.4,4.255 -3.41,4.261 l -2.44,2.825 -0.14,0.163 -0.16,-0.142 -5.92,-5.124 0.19,1.978 c 1.04,0.469 1.85,0.935 2.37,1.385 l 2.79,2.416 0.16,0.14 -0.14,0.162 -4.22,4.876 -0.14,0.162 -0.17,-0.141 -6.58,-5.704 0,1.929 c 1.08,0.434 2.01,0.966 2.74,1.597 l 6.6,5.714 0.15,0.13 -0.12,0.16 c 0,0 -1.86,2.63 -1.87,2.65 l -1.84,2.12 -0.14,0.16 -0.16,-0.14 -10.22,-8.842 0.1,1.824 c 0.81,0.325 1.66,0.858 2.56,1.638 l 6.99,6.06 0.16,0.14 -0.13,0.16 -7.18,8.29 c -0.17,0.2 -0.38,0.3 -0.62,0.32 -0.39,0 -0.82,-0.17 -1.34,-0.62 -0.62,-0.54 -1.74,-1.84 -3.37,-3.93 l -0.6,0.55 c 0.57,0.84 1.05,1.75 1.43,2.74 0.42,1.09 0.59,1.87 0.5,2.39 -0.1,0.48 -0.57,1.39 -1.48,2.73 0.71,0.27 2.82,1.09 2.82,1.09 0.34,0.12 1.18,0.28 2.51,0.47 1.28,0.19 2.33,-0.21 3.22,-1.24 l 8.09,-9.34 0.14,-0.16 0.16,0.14 5.6,4.85 c 0,0 0.11,0.1 0.16,0.1 0,0 0.11,-0.1 0.15,-0.1 0.1,-0.12 0.17,-0.29 0.22,-0.49 0,-0.27 -0.48,-4.96 -0.48,-4.96 0,-0.27 -0.11,-0.47 -0.24,-0.58 -0.2,-0.17 -0.42,-0.21 -0.7,-0.12 l -3.27,1.24 -0.12,0 -0.1,-0.1 -0.64,-0.56 -0.16,-0.14 0.14,-0.16 1.61,-1.86 0.1,-0.1 0.12,0 c 1.53,0.23 1.78,0 1.82,0 0.1,-0.11 0.12,-0.22 0,-0.42 l -3.73,-5.34 -0.1,-0.13 0.11,-0.13 0.1,-0.1 0.14,-0.16 0.16,0.14 9.86,8.53 c 0.1,0.1 0.16,0.12 0.22,0.12 0,0 0.1,0 0.14,-0.1 0.1,-0.1 0.11,-0.21 0.13,-0.37 -0.1,-0.4 -0.6,-5.25 -0.6,-5.25 0,-0.15 -0.11,-0.29 -0.26,-0.42 -0.14,-0.13 -0.34,-0.16 -0.61,-0.1 l -3.82,0.69 -0.11,0 -0.1,-0.1 -3.78,-3.26 -0.16,-0.14 0.14,-0.17 4.23,-4.87 0.13,-0.163 0.17,0.14 6.94,6.013 c 0.35,0.3 0.46,0.18 0.51,0.12 0.1,-0.1 0.12,-0.22 0.13,-0.39 0,-0.18 -0.51,-4.8 -0.51,-4.806 z"
       id="path150" />
    <polygon
       points="234.98,39.498 234.98,39.513 234.98,39.493 234.98,39.493 "
       transform="scale(2.0546,2.0546)"
       id="polygon152" />
    <polygon
       points="230.69,47.137 230.66,47.216 230.77,47.15 230.77,47.15 "
       transform="scale(2.0546,2.0546)"
       id="polygon154" />
    <path
       d="m 468.06,95.93 0.12,0.02 5.81,0.9 0.33,-0.883 -4.43,-1.705 -0.29,-0.111 0.2,-0.231 3.64,-4.203 0.14,-0.163 0.16,0.14 3.74,3.238 c 0.39,0.337 0.51,0.195 0.56,0.136 0.1,-0.09 0.11,-0.241 0.1,-0.448 0,0 -0.1,-4.081 -0.1,-4.079 0,-0.209 -0.1,-0.367 -0.22,-0.487 -0.17,-0.152 -0.32,-0.17 -0.52,-0.07 l 0,0 0,0 -2.5,0.972 -0.12,0.05 -0.1,-0.08 -0.11,-0.09 -0.16,-0.139 0.14,-0.163 5.92,-6.84 0.1,-0.102 0.14,0.04 c 0,0 1.51,0.439 1.52,0.441 0.14,0.05 0.34,0.07 0.57,-0.203 0.17,-0.191 0.2,-0.423 0.1,-0.723 l -3.92,-6.357 c -0.61,0.803 -2.63,3.429 -2.64,3.439 l -1.49,1.722 -0.21,0.245 -0.14,-0.292 -2.23,-4.539 c -3.73,4.235 -8.73,8.169 -14.88,11.697 l 0.22,0.623 c 3.06,-0.428 6.5,-1.449 10.23,-3.047 l 0.12,-0.05 0.11,0.09 1.37,1.193 0.17,0.14 -0.14,0.162 -5.16,5.961 -0.11,0.115 -0.14,-0.05 -8.3,-3.28 c -0.34,1.04 -1.84,5.608 -1.83,5.605 -0.1,0.313 -0.1,0.549 0.18,0.742 0.12,0.103 0.4,0.189 1.09,0.02 0.64,-0.156 1.34,-0.236 2.12,-0.232 l 3.69,0.363 0.42,0.04 -0.27,0.315 c 0,0 -5.17,5.958 -5.17,5.958 l -3.59,3.86 c -0.29,0.31 -0.42,0.6 -0.41,0.86 0,0.21 0.13,0.41 0.36,0.61 0.5,0.43 1.44,0.92 2.79,1.45 1.29,0.51 2.2,0.4 2.78,-0.34 0,0 3.13,-4.03 3.14,-4.04 l 7.03,-8.112 0.1,-0.08 z m 0.74,-11.666 -0.26,-0.22 0.31,-0.138 c 0.12,-0.05 0.71,-0.441 3.27,-2.44 l 0.1,-0.07 0.11,0.03 0.61,0.164 0.33,0.09 -0.22,0.257 -2.82,3.257 -0.14,0.162 -0.17,-0.14 -1.1,-0.955 z"
       id="path156" />
    <path
       d="m 467.08,110.66 c 0.63,0.55 1.36,0.74 2.21,0.59 0.86,-0.16 1.58,-0.56 2.14,-1.21 0.62,-0.71 0.92,-1.61 0.9,-2.68 0,-1.06 -0.64,-2.89 -1.82,-5.4 l -0.77,0.12 c -0.1,1.71 -0.88,3.51 -2.5,5.39 -1.11,1.28 -1.16,2.32 -0.16,3.19 z"
       id="path158" />
    <polygon
       points="263.68,76.898 263.69,76.909 263.68,76.895 263.68,76.895 "
       transform="scale(2.0546,2.0546)"
       id="polygon160" />
    <path
       d="m 548.64,155.78 c -0.74,0.76 -1.96,1.76 -3.71,3.04 l -25.15,16.21 c -0.74,0.48 -1.42,0.33 -1.9,-0.41 -0.55,-0.86 -1.35,-2.57 -2.36,-5.07 l -0.77,0.24 c 0.52,1.78 0.75,3.2 0.69,4.2 -0.1,1.05 -1.07,2.26 -3.01,3.69 3.44,3.28 6.47,4.13 9.01,2.49 l 25.98,-16.74 c 0.75,-0.49 1.53,-0.46 2.33,0.1 l 0,0 c 0.28,0.11 0.51,0.1 0.71,0 0.18,-0.12 0.23,-0.27 0.19,-0.49 l -1.96,-7.21 z"
       id="path162" />
    <path
       d="m 538.84,150.63 c 0,0 -0.1,0 -0.1,0 h 0 l 0.1,0 z"
       id="path164" />
    <path
       d="m 521.78,160.36 0.1,0 0.1,0 c 0,0 1.87,0.5 1.86,0.5 0.23,0.1 0.4,0 0.53,0 0.13,-0.1 0.21,-0.24 0.24,-0.45 0,0 0.5,-4.57 0.49,-4.57 0,-0.19 0,-0.42 -0.2,-0.66 -0.18,-0.27 -0.38,-0.42 -0.62,-0.48 l -3.52,-0.79 -0.1,0 0,-0.1 -1.69,-2.63 -0.13,-0.19 0.2,-0.11 2.48,-1.33 0.11,0 0.1,0 1.4,0.78 c 0.21,0.13 0.39,0.13 0.57,0 0.24,-0.16 0.31,-0.38 0.22,-0.7 l -1.45,-5.19 0,-0.16 0.13,-0.1 0.67,-0.43 0.18,-0.12 0.12,0.18 3.85,5.97 0.12,0.19 -0.18,0.11 -2.36,1.52 c -0.15,0.1 -0.23,0.2 -0.26,0.32 0,0.13 0,0.3 0.15,0.5 0.21,0.33 0.82,0.91 1.8,1.75 1.21,1.04 1.71,1.33 1.92,1.4 0.26,0.1 0.47,0 0.65,-0.12 l 0,0 0,0 c 0,0 2.88,-2.02 2.88,-2.03 l 3.97,-2.55 c 1.05,-0.68 1.97,-0.76 2.74,-0.25 0.21,0 0.41,0 0.6,-0.12 0.17,-0.11 0.28,-0.26 0.35,-0.46 0,-0.21 0.39,-4.77 0.39,-4.77 0,-0.17 -0.1,-0.39 -0.23,-0.64 -0.17,-0.27 -0.38,-0.42 -0.65,-0.46 l -3.5,-0.72 -0.1,0 0,-0.1 -2.96,-4.59 0,0 0,-0.1 -1.12,-6.9 c -0.83,0.6 -2.07,1.47 -3.74,2.61 0,0 -6.02,3.88 -6.02,3.89 l -4.49,2.67 c -0.2,0.12 -0.32,0.25 -0.35,0.38 0,0.11 0,0.23 0.1,0.37 0.37,0.56 1.1,1.35 2.19,2.35 l 0.2,0.19 -0.23,0.15 -2.72,1.75 c -2.72,1.76 -5.88,2.97 -9.41,3.62 -3.47,0.64 -7.05,0.57 -10.66,-0.2 l -0.28,0.8 c 7.79,3.2 15.1,3.53 21.71,0.96 l 0.16,-0.1 0.1,0.15 2.27,3.52 0.12,0.19 -0.2,0.12 c -2.21,1.24 -4.6,2.47 -7.1,3.65 -3.8,1.79 -4.18,1.8 -4.32,1.8 -0.39,0 -0.74,-0.23 -1.05,-0.71 -0.44,-0.68 -1.06,-2.4 -1.89,-5.21 l -0.66,0.1 c 0.22,2.07 0.11,3.5 -0.35,4.31 -0.43,0.77 -1.2,1.48 -2.26,2.12 0.73,0.91 1.43,1.73 2.09,2.4 0.7,0.71 1.47,1.3 2.3,1.76 0.81,0.44 1.63,0.63 2.42,0.57 0.82,-0.1 2.42,-0.65 4.76,-1.74 2.37,-1.11 4.94,-2.41 7.63,-3.88 z m 2.48,-17.32 6.93,-4.47 0.18,-0.12 0.12,0.18 3.85,5.98 0.12,0.18 -0.18,0.11 -6.94,4.48 -0.18,0.11 -0.12,-0.18 -3.85,-5.98 -0.12,-0.18 0.19,-0.11 z"
       id="path166" />
    <polygon
       points="262.68,73.018 262.68,73.037 262.68,73.015 262.68,73.015 "
       transform="scale(2.0546,2.0546)"
       id="polygon168" />
    <path
       d="m 541.54,158.57 c 0.2,-0.13 0.27,-0.3 0.24,-0.57 l -1.8,-6.71 c -0.54,0.46 -1.16,0.94 -1.92,1.44 -0.86,0.57 -1.49,1.01 -1.89,1.3 0,0 -13.37,8.62 -13.37,8.62 l -4.78,2.86 c -0.25,0.15 -0.39,0.31 -0.44,0.49 0,0.19 0,0.42 0.19,0.68 0,0 0.32,0.3 2.07,1.69 1.27,1 2.24,1.25 2.9,0.75 0,0 3.75,-2.63 3.75,-2.64 l 12.16,-7.84 c 0.76,-0.49 1.57,-0.49 2.39,0 l 0,0 c 0.2,0.1 0.37,0.1 0.53,0 z"
       id="path170" />
    <path
       d="m 553.15,218.47 c 1.02,-0.3 1.9,0 2.62,0.9 0.28,0.41 0.48,0.35 0.54,0.33 0.15,0 0.25,-0.19 0.32,-0.42 l 0.48,-2.33 0,-0.25 0.24,0.1 c 1.58,0.62 2.59,0.99 2.99,1.11 l 0,0 0,0 c 1.29,0.61 2.07,1.37 2.33,2.24 0.11,0.37 0.29,0.4 0.54,0.33 0.21,-0.1 0.35,-0.25 0.45,-0.55 l 1.88,-6.87 0.1,-0.25 0.24,0.11 c 2.95,1.49 4.62,2.76 5.11,3.91 0.13,0.39 0.31,0.38 0.46,0.33 0.22,-0.1 0.39,-0.31 0.51,-0.73 l 1.94,-6.48 c -7.35,-0.86 -13.1,-2.67 -17.13,-5.38 l -0.45,0.77 c 2.68,2.69 5.56,5.02 8.54,6.92 l 0.17,0.11 -0.1,0.18 -0.1,0.11 -0.1,0.12 -0.13,0 c -7.81,-0.44 -15.05,-2.34 -21.56,-5.66 l -0.54,0.72 c 2.65,2.47 5.06,4.33 7.18,5.51 l 0.45,0.25 -0.5,0.15 c 0,0 -11.87,3.48 -11.87,3.48 0,0 -5.21,1.34 -5.22,1.34 -0.17,0.1 -0.29,0.13 -0.36,0.25 -0.13,0.23 -0.12,0.64 0,1.19 0.26,0.89 0.78,1.8 1.55,2.73 0.94,1.14 1.4,1.22 1.57,1.17 0,0 4.73,-1.63 4.74,-1.63 l 12.94,-3.8 z"
       id="path172" />
    <path
       d="m 578.32,233.03 c -0.1,-0.22 -0.24,-0.39 -0.52,-0.53 l -4.04,-1.69 -0.1,0 0,-0.1 -3.84,-13.08 -1.03,1.63 c 0.59,0.7 1.11,1.8 1.54,3.28 l 4.43,15.09 c 0.21,0.71 0.41,0.91 0.51,0.96 0,0 0.1,0 0.15,0 0.1,0 0.27,-0.13 0.55,-0.57 0,0 2.21,-4.21 2.21,-4.21 0.17,-0.31 0.22,-0.57 0.16,-0.77 z"
       id="path174" />
    <path
       d="m 568.72,239.1 -3.99,-2.01 -0.1,0 0,-0.1 -5.34,-18.19 -1.16,1.52 c 0.75,1 1.35,2.2 1.76,3.62 l 2.14,7.26 0.1,0.2 -0.21,0.1 -16.49,4.84 c -0.54,0.17 -0.99,0.15 -1.33,0 -0.3,-0.16 -0.5,-0.45 -0.62,-0.85 -0.15,-0.5 -0.46,-2.55 -0.94,-6.26 l -0.68,0 c -0.2,4.2 -1.69,6.84 -4.45,7.88 2.22,4.08 4.62,5.78 7.14,5.04 l 18.87,-5.54 0.21,-0.1 0.1,0.21 2.29,7.83 c 0.11,0.37 0.23,0.48 0.3,0.52 0,0 0.1,0 0.13,0 0.1,0 0.25,-0.12 0.43,-0.44 l 2.37,-4.3 c 0.15,-0.28 0.21,-0.52 0.16,-0.67 -0.1,-0.18 -0.26,-0.35 -0.6,-0.52 z"
       id="path176" />
    <polygon
       points="285.16,151.61 285.15,151.62 285.15,151.64 285.15,151.64 "
       transform="scale(2.0546,2.0546)"
       id="polygon178" />
    <path
       d="m 570.86,301.21 -0.4,-0.1 0.31,-0.27 c 0,0 2.01,-1.69 2,-1.69 0.19,-0.16 0.27,-0.32 0.27,-0.5 0,-0.15 0,-0.25 -0.13,-0.33 l -2.64,-1.72 -0.61,-0.39 h 0.73 l 9.75,0 h 0.21 v 0.21 l 0,5.52 c 0,0.12 0,0.21 0.1,0.24 0,0 0.1,0 0.13,0 0.11,0 0.22,0 0.35,-0.13 0.1,-0.1 4.22,-4 4.23,-4.01 0.1,-0.1 0.11,-0.21 0.1,-0.41 0,-0.21 -0.1,-0.36 -0.23,-0.47 l -3.7,-2.93 -0.1,-0.1 v -0.1 l 0,-13.49 -1.46,1.15 c 0.39,1.42 0.59,2.41 0.59,3 l 0,6.06 v 0.21 h -0.22 l -22.31,0 h -0.17 l 0,-0.17 -0.32,-1.43 0,-0.26 h 0.26 l 13.06,0 c 0.63,0 1.13,0.22 1.49,0.65 0.27,0.32 0.52,0.49 0.72,0.49 0.17,0 0.2,-0.1 0.21,-0.11 l 2.17,-6.38 c -1.03,0 -4.45,0.18 -4.45,0.18 l -13.95,0 h -0.19 l 0,-0.18 -0.57,-3.87 c -1.14,0.5 -5.62,2.49 -5.62,2.49 -0.92,0.41 -0.99,0.67 -0.99,0.74 0,0.1 0.1,0.3 0.59,0.73 0.47,0.37 0.78,0.64 0.97,0.86 0.12,0.13 0.39,0.55 1.34,2.6 0.7,1.5 1.55,3.47 2.52,5.86 l 4.41,11.11 0.94,-0.23 -1.65,-7.63 -0.1,-0.26 h 0.27 l 10.32,0 h 0.21 v 0.21 l 0,4.15 v 0.29 l -0.28,-0.1 c -2.15,-0.65 -4.72,-1.63 -7.61,-2.87 l -0.32,0.46 c 1.89,2.02 4.21,3.92 6.93,5.62 l 0.1,0.1 v 0.4 l -0.2,0 c -4.41,0.41 -7.6,0.99 -9.49,1.73 l -0.11,0 -0.1,-0.1 c -5.42,-4.28 -9.45,-9.56 -12,-15.69 l -0.53,0.25 c 1.98,8.33 4.95,14.54 8.83,18.42 l 0.18,0.18 -0.21,0.15 c -2.63,1.9 -5.12,4.2 -7.43,6.84 2.51,1.72 3.85,4.06 3.99,6.97 l 0.69,0.15 c 1.75,-5.27 3.9,-9.06 6.41,-11.27 l 0.11,-0.1 0.14,0.1 c 3.32,1.88 7.57,3.2 12.64,3.93 h 0 l 0,0 c 0.84,0.27 1.56,0.95 2.13,2.01 l 0,0 0,0 c 0,0.41 0.22,0.47 0.4,0.47 0.1,0 0.23,0 0.36,-0.25 l 0.79,-1.98 0,-0.14 h 0.54 v 0.22 l 0,5.62 c 0,0.31 0.12,0.33 0.26,0.33 0.12,0 0.23,-0.1 0.34,-0.18 0,0 4.19,-4.58 4.19,-4.58 0.16,-0.18 0.24,-0.36 0.24,-0.56 0,-0.24 -0.1,-0.4 -0.27,-0.49 l 0,0 0,0 -3.79,-2.85 -0.1,-0.1 v -0.11 l 0,-5.24 v -0.31 l 0.29,0.11 c 0.24,0.1 1.44,0.39 3.55,0.91 2.17,0.53 3.4,0.85 3.77,0.98 0.43,0.15 0.79,0.52 1.06,1.12 0.21,0.44 0.42,0.68 0.6,0.68 0.16,0 0.32,-0.11 0.47,-0.33 l 2.64,-7.19 c -5.88,-0.59 -11.82,-1.64 -17.67,-3.12 z m 4.2,9.89 c -5.31,-0.18 -9.41,-0.7 -12.2,-1.54 l -0.37,-0.12 0.29,-0.25 c 1.39,-1.2 3.94,-2.38 7.6,-3.49 l 0.1,0 0.1,0 c 2.1,0.99 3.65,1.68 4.61,2.04 l 0.14,0.1 v 0.15 l 0,2.94 v 0.22 l -0.22,0 z"
       id="path180" />
    <polygon
       points="275.47,194.38 275.47,194.39 275.48,194.38 275.48,194.38 "
       transform="scale(2.0546,2.0546)"
       id="polygon182" />
    <polygon
       points="259.63,190.85 259.63,190.86 259.64,190.85 259.64,190.85 "
       transform="scale(2.0546,2.0546)"
       id="polygon184" />
    <path
       d="m 574.05,364.16 -26.46,-7.76 c -1,-0.29 -1.61,-1.12 -1.81,-2.46 0,-0.24 -0.14,-0.37 -0.34,-0.42 -0.24,-0.1 -0.34,0 -0.41,0.1 l 0,0 0,0 c 0,0 -4.49,2.67 -4.49,2.67 -0.16,0.1 -0.28,0.29 -0.36,0.55 -0.11,0.36 0,0.7 0.2,1.03 l 0,0 0,0 1.52,3.01 0,0.1 0,0.1 -8.98,30.59 c -0.1,0.32 0,0.42 0.23,0.48 0.11,0 0.22,0 0.33,0 0.1,-0.1 4.69,-2.81 4.7,-2.82 0.17,-0.1 0.28,-0.21 0.34,-0.4 0,-0.15 0,-0.32 -0.15,-0.51 l -2.44,-3.59 -0.1,-0.1 0,-0.1 7,-23.86 0.1,-0.21 0.21,0.1 30.72,9.02 0.21,0.1 -0.1,0.2 -8.56,29.15 c -0.1,0.36 0,0.4 0.11,0.42 0.1,0 0.18,0 0.44,-0.1 0.1,-0.1 5.04,-2.98 5.04,-2.98 0.2,-0.12 0.32,-0.25 0.36,-0.38 0.1,-0.18 0,-0.37 -0.15,-0.58 l -2.61,-3.88 0,-0.1 0,-0.1 5.96,-20.3 0,0 0,0 4.55,-5.54 c -1.16,-0.3 -5.11,-1.33 -5.11,-1.33 z"
       id="path186" />
    <rect
       width="0.034931"
       height="0.0061643"
       x="-312.09"
       y="-611.66"
       transform="matrix(-0.88237,0.47055,-0.47055,-0.88237,0,0)"
       id="rect188" />
    <path
       d="m 567.28,389.69 c 0.1,-0.28 0.1,-0.51 0,-0.7 l -1.82,-3.1 0,-0.1 0,-0.1 1.84,-6.28 0,0 0,0 4.14,-5.11 c -0.97,-0.24 -3.92,-0.98 -3.93,-0.98 0,0 -3.81,-1.12 -3.81,-1.12 0,0 -3.73,-1.28 -3.73,-1.28 -0.22,-0.1 -0.4,-0.1 -0.51,0 -0.1,0 -0.14,0.13 -0.18,0.27 -0.11,0.35 -0.21,1.29 -0.3,2.81 -0.1,0.98 0,2.18 0.69,2.38 l 0.61,0.18 0.2,0.1 -0.1,0.21 -2.24,7.63 -0.1,0.2 -0.21,-0.1 -1.64,-0.48 c -0.2,-0.1 -0.35,-0.1 -0.46,0 -0.12,0.1 -0.21,0.2 -0.27,0.41 -0.1,0.22 -0.13,0.8 -0.1,2.37 0,1.64 0.15,2.1 0.22,2.23 0.12,0.22 0.31,0.36 0.58,0.44 0,0 2.01,0.45 2.02,0.45 l 3.37,0.99 0.1,0 0,0.1 0.66,1.53 c 0.1,0.17 0.19,0.28 0.35,0.33 0.14,0 0.29,0 0.46,-0.1 0.13,-0.1 3.55,-2.54 3.55,-2.54 0.26,-0.18 0.42,-0.39 0.49,-0.62 z m -2.98,-3.29 -0.21,-0.1 -4.92,-1.44 -0.21,-0.1 0.1,-0.21 2.24,-7.63 0.1,-0.21 0.2,0.1 4.92,1.44 0.21,0.1 -0.1,0.21 -2.24,7.63 -0.1,0.21 z"
       id="path190" />
    <polygon
       points="267.92,191.57 267.9,191.58 267.93,191.57 267.93,191.57 "
       transform="scale(2.0546,2.0546)"
       id="polygon192" />
    <path
       d="m 552.54,387.47 -0.1,-0.1 0,-0.1 0.5,-1.71 0,-0.1 0,0 3.75,-4.04 -1.89,-0.43 -0.42,-0.1 0.33,-0.28 3.35,-2.72 c 0.13,-0.12 0.22,-0.24 0.26,-0.39 0.1,-0.16 0,-0.28 -0.1,-0.4 l 0,0 0,0 -1.97,-2.58 -0.1,-0.1 0,-0.11 0.58,-1.97 0,-0.1 0,0 4.4,-4.4 c -1.04,-0.27 -4.14,-1.08 -4.14,-1.08 0,0 -7.31,-2.15 -7.31,-2.15 l -5.28,-1.74 c -0.21,-0.1 -0.37,-0.1 -0.48,0 -0.1,0.1 -0.17,0.15 -0.22,0.32 -0.14,0.5 -0.26,1.48 -0.34,2.9 -0.1,1.32 0.16,2.07 0.71,2.23 l 2.69,0.79 0.2,0.1 -0.1,0.21 -0.59,2.01 -0.1,0.2 -0.2,-0.1 c 0,0 -1.29,-0.38 -1.3,-0.39 0,0 -2.14,-0.72 -2.14,-0.72 -0.17,-0.1 -0.3,-0.1 -0.41,0 -0.13,0.1 -0.23,0.24 -0.31,0.49 -0.1,0.23 -0.13,0.82 -0.1,2.41 0.1,1.7 0.21,2.09 0.27,2.19 0.12,0.18 0.29,0.28 0.52,0.31 h 0 l 0,0 c 0,0 3.94,0.97 3.95,0.98 l 6.15,1.8 0.1,0 0,0.1 0.65,1.59 0.17,0.41 -0.42,-0.12 c 0,0 -7.61,-2.23 -7.62,-2.24 0,0 -4.7,-1.57 -4.7,-1.57 -0.16,-0.1 -0.38,-0.1 -0.52,0 -0.1,0 -0.15,0.14 -0.2,0.29 -0.14,0.47 -0.2,1.14 -0.2,1.98 0,0.84 0.1,1.49 0.19,1.93 0.1,0.38 0.29,0.6 0.58,0.69 l 2.1,0.61 0.2,0.1 -0.1,0.21 -0.58,1.97 -0.1,0.21 -0.2,-0.1 -1.51,-0.45 c -0.41,-0.12 -0.63,0 -0.75,0.41 -0.1,0.24 -0.14,0.83 -0.1,2.33 0.1,1.57 0.21,2.03 0.28,2.16 0.11,0.2 0.29,0.32 0.58,0.37 0,0 2.94,0.72 2.95,0.72 l 5.21,1.53 0.11,0 0,0.11 c 0,0 0.46,1.44 0.46,1.44 0,0.18 0.15,0.28 0.33,0.33 0.11,0 0.27,0 0.46,-0.1 0.21,-0.15 3.91,-2.81 3.9,-2.8 0.13,-0.1 0.22,-0.23 0.26,-0.39 0,-0.1 0.1,-0.22 -0.11,-0.42 l -2,-2.53 z m -5.04,-15.55 -0.21,-0.1 0.1,-0.21 0.59,-2.01 0.1,-0.2 0.2,0.1 7.59,2.22 0.21,0.1 -0.1,0.21 -0.59,2.01 -0.1,0.21 -0.21,-0.1 -7.58,-2.23 z m 4.58,13.23 -0.58,1.97 -0.1,0.21 -0.21,-0.1 -7.58,-2.23 -0.21,-0.1 0.1,-0.21 0.57,-1.96 0.1,-0.21 0.21,0.1 7.59,2.23 0.21,0.1 -0.1,0.2 z"
       id="path194" />
  </g>
  <path
     d="m 900,0 c 165.7,0 300,134.34 300,300 0,165.67 -134.3,300 -300,300 C 734.34,600 600,465.67 600,300 600,134.34 734.34,0 900,0 z"
     id="path198"
     style="fill:#00785e" />
  <path
     d="m 900,9.9817 c 160.1,0 290,129.8683 290,290.0183 0,160.16 -129.9,290.02 -290,290.02 C 739.85,590.02 609.98,460.16 609.98,300 609.98,139.85 739.85,9.9817 900,9.9817 z"
     id="path200"
     style="fill:#ffffff" />
  <path
     d="m 900,79.845 c 121.6,0 220.2,98.585 220.2,220.155 0,121.57 -98.6,220.16 -220.2,220.16 C 778.43,520.16 679.85,421.57 679.85,300 679.85,178.43 778.43,79.845 900,79.845 z"
     id="path202"
     style="fill:#00785e" />
  <g
     transform="matrix(3.75e-5,0,0,3.75e-5,600,0)"
     id="g204"
     style="fill:#ffffff">
    <path
       d="m 8000000,9857200 c -466100,320800 -955700,1014800 -2088900,1014800 -1602300,0 -2197000,-469000 -2672700,-825000 -17700,-52100 407100,-244300 407100,-244300 643200,448300 1357100,844300 2690600,786300 C 4689900,10443000 3574800,9546400 3238400,8719400 4129400,8102100 5604500,8113700 6814100,8964000 6436500,8498100 5173800,7979800 4229700,8125400 4094000,7985600 3976000,7810900 3840300,7671100 4925900,7432300 6436500,8119500 6991100,8684400 6407000,7758500 5982100,6710200 6672500,5434800 c 135700,128200 289100,256300 424800,384400 -519200,937600 -330400,2032500 88500,2795400 -725700,-1479200 -141600,-2941000 814200,-3651500 955900,710500 1540000,2172200 814300,3651500 418900,-762900 607700,-1857800 88500,-2795400 135700,-128100 289100,-256200 424800,-384400 690400,1275400 265500,2323700 -318600,3249600 554600,-564900 2065000,-1252100 3151000,-1013300 -136000,139800 -254000,314500 -390000,454300 -944000,-145600 -2206400,372700 -2584100,838600 1210100,-850300 2685100,-861900 3576100,-244600 -337000,827000 -1452000,1723600 -3098200,1869600 1333200,58000 2047200,-338000 2690200,-786400 0,0 425000,192200 408000,244400 -476000,356000 -1071000,825000 -2673000,825000 -1133400,0 -1623000,-695000 -2089100,-1014900 z"
       id="path206" />
    <path
       d="m 8000000,10166000 c -667100,552000 -1069200,902000 -1953300,902000 l -3202900,-4000 c 67400,127000 140500,251000 218100,371000 l 3061900,4000 c 1212100,0 1876200,-766000 1876200,-766000 0,0 664200,766000 1876200,766000 l 2984800,-3000 c 78000,-120000 150000,-244000 217000,-371000 l -3124800,3000 c -884100,0 -1286200,-350000 -1953300,-902000 z"
       id="path208" />
    <path
       d="m 3076500,11769000 c 39000,43000 78700,86000 119300,129000 h 9608200 c 41000,-43000 80000,-86000 119000,-129000 H 3076900 z"
       id="path210" />
    <path
       d="m 3604900,12283000 c 104400,89000 212600,175000 324500,257000 h 8141600 c 112000,-82000 220000,-168000 324000,-257000 H 3605200 z"
       id="path212" />
    <path
       d="m 4307700,12797000 c 225900,142000 463300,270000 711800,386000 h 5961500 c 248000,-116000 485000,-244000 711000,-386000 H 4308000 z"
       id="path214" />
  </g>
  <path
     d="m 654.27,308.64 0.46,3.72 -3.19,0.39 1.41,11.51 15.85,-1.95 0.46,3.73 -15.85,1.94 1.41,11.53 3.39,-0.32 0.46,3.72 -20.83,2.56 -1.88,-15.34 -8.62,1.05 -0.46,-3.77 8.62,-0.96 -1.87,-15.27 20.64,-2.54 z m -6.18,4.53 -10.56,1.3 1.41,11.51 10.57,-1.3 -1.42,-11.51 z m 1.88,15.24 -10.57,1.29 1.42,11.62 10.57,-1.3 -1.42,-11.61 z m -11.05,-90.83 -2.18,11.23 3.07,0.59 -0.71,3.63 -3.06,-0.59 -2.12,10.88 3.06,0.6 -0.7,3.63 -3.07,-0.6 -2.16,11.16 -3.46,-0.67 2.17,-11.16 -3.34,-0.65 0.71,-3.63 3.33,0.65 2.12,-10.88 -3.34,-0.65 0.71,-3.63 3.33,0.65 2.19,-11.23 3.45,0.67 z m 28.44,5.15 -3.65,18.79 7.45,1.45 -0.69,3.54 -7.45,-1.45 -3.56,18.34 -3.2,-0.62 3.56,-18.34 -3.36,-0.65 -3,15.4 -3.2,-0.62 0.98,-5.07 -4.22,-0.82 -1.65,8.49 -3.45,-0.67 1.65,-8.49 -4.05,-0.79 -0.97,4.98 -3.4,-0.67 6.66,-34.25 3.4,0.67 -1.01,5.22 4.04,0.79 1.66,-8.52 3.45,0.67 -1.66,8.52 4.23,0.82 1.02,-5.23 3.2,0.62 -2.99,15.4 3.36,0.66 3.65,-18.79 3.2,0.62 z m -19.81,8.79 -4.05,-0.78 -1.28,6.6 4.05,0.79 1.28,-6.61 z m -1.97,10.15 -4.05,-0.79 -1.31,6.75 4.05,0.79 1.31,-6.75 z m 9.65,-8.65 -4.23,-0.83 -1.28,6.61 4.22,0.82 1.29,-6.6 z m -1.98,10.14 -4.22,-0.82 -1.31,6.75 4.22,0.82 1.31,-6.75 z m 38.93,-76.46 1.63,3.79 c -7.56,5.99 -15.88,8.79 -24.97,8.38 5.43,5.97 8.68,13.96 9.75,23.95 l -3.75,1.39 c -0.36,-4.04 -1.16,-7.79 -2.39,-11.23 -1.23,-3.45 -2.71,-6.4 -4.45,-8.86 -1.73,-2.46 -3.94,-4.55 -6.62,-6.27 -2.68,-1.73 -6.87,-3.95 -12.55,-6.65 l 1.59,-3.42 c 1.79,0.8 4.09,1.99 6.9,3.57 2.81,1.58 5.07,2.78 6.78,3.57 1.18,0.56 3.52,0.75 7,0.57 3.49,-0.16 7.02,-0.91 10.58,-2.23 3.57,-1.33 7.07,-3.51 10.5,-6.56 z m 30.43,-54.04 c 2.33,2.13 4.01,3.89 5.02,5.3 1.02,1.4 1,2.77 0,4.12 -0.76,0.97 -2.43,2.05 -4.99,3.23 -2.56,1.17 -5.64,1.78 -9.23,1.82 -3.61,0.1 -6.98,-0.64 -10.16,-2.04 l -7.32,9.38 10.12,7.9 5.54,-11.17 2.98,2.33 -8.84,17.63 -3.93,-0.72 2.44,-4.73 -28.21,-22.04 19.86,-25.42 10.24,8 -8.74,11.2 c 1.6,1.26 3.27,2.3 5,3.12 l 10.53,-13.48 2.73,2.14 -9.97,12.76 c 3.26,1.41 6.9,1.72 10.92,0.91 4.01,-0.8 6.46,-1.78 7.36,-2.92 0.53,-0.68 -1.14,-2.45 -5,-5.29 l 3.7,-2.03 z m -21.65,-5.48 -4.78,-3.73 -15.16,19.41 4.78,3.73 15.16,-19.41 z m -1.02,16.45 c -0.81,-0.37 -2.45,-1.43 -4.94,-3.18 l -6.47,8.27 4.62,3.61 6.79,-8.7 z m 64.17,-55.921 2.14,2.913 -30.44,23.778 -2.22,-2.85 7.62,-5.95 -6.75,-8.494 -5.38,4.204 -2.22,-2.846 5.52,-4.317 -5.6,-7.17 2.84,-2.22 5.61,7.17 9.33,-7.293 -5.6,-7.17 2.95,-2.31 5.61,7.17 5.41,-4.23 2.22,2.842 -5.41,4.23 6.68,8.554 7.69,-6.011 z m -10.64,8.321 -6.69,-8.554 -9.34,7.294 6.69,8.55 9.34,-7.29 z m 21.45,4.23 -0.79,3.43 c -4.98,-1.24 -11.05,-1.38 -18.22,-0.44 l 0.4,-3.661 c 7.4,-0.908 13.59,-0.683 18.61,0.671 z m -24.25,6.73 c -0.37,7 -1.81,13.25 -4.33,18.77 l -3.48,-1.13 c 2.56,-5.35 3.87,-11.22 3.93,-17.61 l 3.88,0 z m 59.76,-36.591 -2.01,3.097 c -3.15,-3.03 -5.91,-4.83 -8.29,-5.389 l 7.3,19.009 -3.41,1.309 -6.67,-17.385 c -0.22,3.349 -1.69,7.714 -4.44,13.072 l -3.94,-1.057 c 3.95,-6.746 5.79,-13.106 5.52,-19.073 l -8.45,3.244 -1.25,-3.244 8.62,-3.311 -2.14,-5.572 c -4.05,2.302 -6.59,3.645 -7.6,4.031 l -2.52,-2.524 c 7.5,-3.487 12.85,-7.084 16.05,-10.774 l 3,1.725 c -1.1,1.41 -3.04,3.24 -5.85,5.494 l 2.43,6.327 7.52,-2.888 1.25,3.247 -7.52,2.884 1.22,3.173 0.87,-1.298 c 3.92,0.919 7.37,2.884 10.31,5.903 z m 18.45,5.441 -3.37,1.294 -1.7,-4.41 -7.06,2.711 1.69,4.41 -3.37,1.294 -12.73,-33.18 13.8,-5.299 12.74,33.18 z m -6.31,-6.36 -8.56,-22.29 -7.06,2.711 8.55,22.29 7.07,-2.711 z m 65.68,-2.348 -3.58,0.439 -0.27,-2.163 -29.58,3.633 0.28,2.295 -3.58,0.439 -4.89,-39.824 36.75,-4.512 4.87,39.69 z m -4.27,-5.167 -3.76,-30.659 -29.59,3.633 3.77,30.66 29.58,-3.634 z m -2.05,-8.906 c -0.1,3.75 -0.35,6.202 -0.81,7.35 -0.46,1.136 -1.14,1.77 -2.06,1.882 -1.24,0.154 -3.09,-1.387 -5.54,-4.612 -1.94,2.771 -3.74,4.803 -5.41,6.093 l -3.17,-1.706 c 3.48,-3.442 5.72,-6.007 6.71,-7.706 -1.5,-3.079 -2.79,-7.5 -3.89,-13.271 l -15.14,1.86 -0.42,-3.428 15.04,-1.845 -0.53,-4.337 3.58,-0.44 0.53,4.335 3.16,-0.387 c -0.77,-0.82 -1.77,-1.589 -2.97,-2.317 l 3.09,-2.147 c 1.16,0.949 2.5,2.297 4.02,4.051 l 1.6,-0.244 0.42,3.38 -8.89,1.091 c 0.72,3.904 1.54,7.234 2.5,9.971 1.14,-2.778 2.02,-5.928 2.67,-9.446 l 3.32,1.391 c -1.13,4.41 -2.54,8.318 -4.25,11.712 1.5,2.52 2.46,3.753 2.85,3.708 0.29,-0.04 0.36,-2.021 0.22,-5.951 l 3.37,1.013 z m -13.73,0.165 -12.84,1.578 -1.23,-9.941 12.85,-1.575 1.22,9.938 z m -3.99,-3.004 -0.37,-3.056 -5.88,0.72 0.37,3.06 5.88,-0.724 z m 5.05,6.979 -13.59,4.68 -1.86,-2.974 14.92,-4.995 0.53,3.289 z m 79.36,-0.18 c -1.16,-0.07 -2.35,-0.222 -3.56,-0.435 l 2.55,-20.782 -19.87,-2.439 -2.53,20.648 -3.7,-0.454 2.95,-24.074 9.4,1.153 c 1.09,-0.534 2.3,-1.834 3.63,-3.907 l 3.23,1.726 c -0.23,0.513 -1,1.43 -2.29,2.742 l 13.16,1.617 -2.97,24.205 z m -25.07,-23.312 -3.1,2.301 c -1.11,-2.244 -3.16,-4.605 -6.15,-7.073 l 2.81,-2.217 c 2.87,2.126 5.01,4.45 6.44,6.989 z m 21.59,18.973 -2.55,2.137 c -1.58,-2.096 -3.2,-3.585 -4.88,-4.473 l -0.31,2.482 -3.58,-0.439 0.42,-3.423 c -1.11,1.852 -3.26,3.258 -6.44,4.218 l -1.86,-3.045 c 2.54,-0.468 4.52,-1.623 5.95,-3.468 l -4.94,-0.657 0.36,-2.955 3.5,0.432 c -0.69,-1.114 -1.41,-1.935 -2.19,-2.468 l 2.76,-1.473 c 1.54,1.072 2.5,2.527 2.9,4.364 l 0.57,0.07 0.54,-4.392 c -1.47,0 -3.53,-0.112 -6.15,-0.356 l -1.45,-3.44 c 0.93,0.201 1.89,0.367 2.9,0.491 5.07,0.622 9.68,0.417 13.83,-0.633 l 1.63,3.072 c -2.02,0.525 -4.39,0.807 -7.12,0.844 l -0.6,4.853 0.51,0.06 c 1.48,-1.297 2.62,-2.831 3.43,-4.593 l 3.11,1.848 c -1.14,1.8 -1.99,2.884 -2.55,3.237 l 2.74,0.333 -0.37,2.955 -7.23,-0.888 -0.14,1.128 1.25,-0.799 c 1.88,0.852 3.87,2.509 5.96,4.973 z m -24.74,-10.103 -3.24,2.329 c -1.5,-2.958 -3.55,-5.464 -6.14,-7.492 l 2.71,-2.183 c 2.77,1.923 4.99,4.376 6.67,7.346 z m -0.54,6.394 c -1.85,7.665 -4.56,13.515 -8.13,17.558 l -3.54,-2.089 c 3.99,-4.515 6.76,-10.178 8.33,-16.976 l 3.34,1.507 z m 32.12,19.939 -2.71,3.086 c -8.05,-2.602 -12.81,-6.495 -14.23,-11.677 -3.06,4.893 -8.86,7.507 -17.43,7.841 l -1.83,-3.885 c 8.07,0.03 13.24,-1.631 15.51,-4.973 l -12.79,-1.571 0.42,-3.442 14.31,1.758 c 0.39,-0.701 0.73,-1.803 1.06,-3.3 l 3.55,1.088 c -0.15,0.866 -0.44,1.755 -0.84,2.674 l 14.24,1.751 -0.42,3.439 -12.08,-1.482 c 1.55,3.904 5.97,6.803 13.24,8.693 z m 53.32,18.27 c -0.3,0.772 -0.8,1.354 -1.5,1.744 -0.7,0.386 -1.5,0.528 -2.3,0.408 -0.9,-0.12 -2.65,-0.701 -5.43,-1.762 l 0,-3.878 4.23,1.793 c 0.4,0.184 0.9,0.176 1.3,-0.02 0.4,-0.191 0.7,-0.513 0.9,-0.963 l 5.9,-15.529 -11.81,-4.571 6.31,-16.545 15.3,5.865 -12.9,33.461 z m 7,-28.343 1.3,-3.176 -8.6,-3.277 -1.2,3.176 8.5,3.277 z m -2.6,6.912 1.4,-3.672 -8.5,-3.281 -1.4,3.675 8.5,3.278 z m -16.18,-2.52 -11.92,-4.568 -8.12,21.191 -3.37,-1.293 14.49,-37.736 15.26,5.861 -6.34,16.548 z m 0.45,-11.277 1.28,-3.326 -8.51,-3.273 -1.28,3.326 8.51,3.273 z m -2.58,6.762 1.35,-3.54 -8.51,-3.274 -1.39,3.54 8.55,3.274 z m 77.91,49.366 -18.6,-13.996 2.1,-2.775 7.6,5.752 3.8,-5.058 -6.2,-4.696 2.1,-2.774 6.2,4.694 3.7,-4.875 2.9,2.172 -3.7,4.875 6.7,5.055 -2.1,2.775 -6.7,-5.055 -3.8,5.058 8.1,6.068 -2.1,2.78 z m -21.3,-10.85 -4.9,-1.174 -10.3,13.624 -2.9,-2.18 9.3,-12.284 -6.2,-1.515 -0.3,-3.933 8.9,2.306 5.8,-7.688 -2.7,-1.987 c -1.5,1.211 -3.8,2.546 -6.8,3.997 l -1.6,-3.393 c 4.4,-1.699 8.3,-4.519 11.9,-8.483 l 2.2,2.831 c -0.7,0.829 -1.6,1.789 -2.8,2.873 l 1.8,1.391 6,-7.909 2.9,2.172 -6,7.912 3.4,2.565 -2.1,2.767 -3.3,-2.565 -4.8,6.282 4.8,1.361 -2.3,3.03 z m 17.1,18 -4.4,-3.3 -6.2,8.26 c -0.9,1.09 -1.8,1.71 -2.9,1.85 -1,0.15 -2.4,-0.38 -4,-1.58 l -2.8,-2.07 0.9,-3.87 c 1.7,1.51 2.9,2.52 3.6,3.05 1.2,0.82 1.9,0.9 2.5,0.2 l 6,-8.01 -12.8,-9.67 2.1,-2.751 12.8,9.661 2.6,-3.42 2.8,2.17 -2.6,3.42 4.4,3.3 -2,2.76 z m -14.5,-2.57 -3.6,0.19 c 0,-3.64 -0.8,-6.74 -2.4,-9.29 l 3.4,-0.37 c 1.6,2.44 2.5,5.6 2.6,9.47 z m 46.5,55.57 c -0.9,0.68 -1.8,0.99 -2.7,0.92 -0.9,-0.1 -1.7,-0.49 -2.4,-1.3 l -3,-3.72 1.4,-4.61 3.5,4.91 c 0.5,0.73 1.2,0.76 2,0.1 l 28.7,-23.22 2.2,2.8 -29.7,24.12 z m 3.4,-21.9 c -2.8,2.25 -5.9,4.27 -9.1,6.05 -3.3,1.78 -5.6,2.63 -6.9,2.55 -1.2,-0.1 -2.4,-0.82 -3.6,-2.23 -1,-1.27 -2,-3.06 -3,-5.38 l 2.6,-3.13 c 1.4,3.27 2.2,5.06 2.5,5.39 0.4,0.57 1.1,0.95 1.9,1.14 0.8,0.18 2.7,-0.57 5.6,-2.28 2.9,-1.7 4.5,-2.71 4.8,-3.03 l -5.7,-7.04 c -6.5,3.9 -12.8,5.07 -19,3.5 l 0.2,-3.93 c 2.5,0.82 5.4,0.94 9,0.39 3.5,-0.56 8.3,-3.2 14.2,-7.92 l -2.8,-3.41 11.7,-9.47 12.5,15.47 -11.7,9.46 -7.4,-9.17 -3.8,3.13 8,9.91 z m 3.6,-8.86 6.4,-5.09 -8,-9.86 -6.3,5.1 7.9,9.85 z m -7.1,20.91 -2.3,-2.79 21.4,-17.38 2.3,2.79 -21.4,17.38 z m 50.5,26.19 c -7.1,-1.06 -12.6,-2.74 -16.7,-5.04 l 0.9,-3.92 c 4.9,2.85 10.5,4.69 16.6,5.49 l -0.8,3.47 z m 5.6,23.74 -8.6,-18.45 3.1,-1.47 8.6,18.45 -3.1,1.47 z m -14.9,-17.11 c -1.6,-0.1 -4.7,-0.73 -9.5,-1.98 l -19.7,9.23 -1.5,-3.25 16.3,-7.64 c -3.4,-1.93 -5.3,-3.02 -5.6,-3.23 l 1.4,-3.78 c 4.9,3.43 11.3,5.83 19.1,7.2 l -0.5,3.45 z m 5.7,24.6 -3.6,-7.68 -18,8.39 c -2.6,1.2 -4.6,0.22 -6.1,-2.97 -0.8,-1.72 -1.5,-3.24 -2,-4.55 l 2.8,-2.55 c 1.2,2.85 1.9,4.51 2.1,4.95 0.4,0.79 0.7,1.28 1.1,1.46 0.3,0.18 0.8,0.12 1.4,-0.15 l 17.1,-7.98 -5.2,-11.05 3.2,-1.46 10.3,22.13 -3.1,1.46 z m -7.5,69.51 -3.6,-1.78 c 1.8,-4.06 4.1,-7.75 7,-11.08 -3.9,-1.85 -7.5,-4.64 -10.9,-8.37 l 2.3,-2.86 c 3.5,3.87 7.3,6.75 11.4,8.64 2.2,-1.86 4.9,-3.54 8.2,-5.03 -1.7,-0.19 -3.6,-0.68 -5.6,-1.46 l 0.9,-3.88 c 2.4,1.07 5.2,1.88 8.5,2.44 3.4,0.54 6.8,0.55 10.4,0 3.7,-0.52 6.1,-0.93 7.2,-1.22 l 0.3,3.8 c -2.9,0.52 -5.8,0.89 -8.8,1.11 l 2.5,13.01 -3.4,0.67 -0.6,-3.39 c -6.6,0.89 -12.9,0.23 -18.9,-1.95 -3.6,3.6 -5.9,7.38 -6.9,11.34 z m 25.1,-12.97 -1.3,-6.52 -2.9,0 c -1.1,0.21 -2.8,0.95 -5.3,2.19 -2.4,1.25 -4.2,2.37 -5.6,3.37 5.3,1.42 10.2,1.74 15.1,0.95 z m -21.4,-6.29 -12.3,-20.74 2.8,-3.18 2.2,4.18 21.3,-4.13 0.7,3.67 -20.1,3.92 2.3,3.85 25.8,-5.03 -1.9,-9.91 3.4,-0.66 4.2,21.49 -3.4,0.67 -1.6,-7.91 -10.2,1.99 1.1,5.73 -3.4,0.66 -1.1,-5.73 -10.9,2.12 5,8.25 -3.9,0.76 z m -8.8,78.66 4.2,-33.82 -3.2,-0.38 0.5,-3.68 40.7,5 -4.4,36.36 -3.6,-0.44 4,-32.68 -30.4,-3.74 -4.2,33.83 -3.6,-0.45 z m 21.9,-3.54 2.5,-21.15 10.7,1.31 -2.6,21.15 -10.6,-1.31 z m 3.7,-3.15 4.1,0.5 1.7,-14.03 -4.1,-0.51 -1.7,14.04 z m -19.4,4.87 1.6,-12.89 12.9,1.58 -1.6,12.89 -12.9,-1.58 z m 3.8,-3.16 6.1,0.74 0.7,-5.73 -6,-0.74 -0.8,5.73 z m -2.1,-12.15 1.6,-12.75 13,1.6 -1.5,12.74 -13.1,-1.59 z m 3.9,-3.14 6.2,0.76 0.6,-5.61 -6.1,-0.75 -0.7,5.6 z"
     id="path216"
     style="fill:#00785e" />
  <path
     d="m 751.17,524.4 6.24,3.75 15.45,-26.29 0.1,0 -4.1,33.11 5.67,3.41 27.41,-19.12 0.1,0.1 -15.98,25.99 6.25,3.75 19.01,-31.65 -9.48,-5.7 -25.74,17.96 3.67,-31.2 -9.57,-5.77 -19.01,31.65 z m 85.52,21.6 9.99,-13.54 2.35,16.61 -12.34,-3.07 z m -17.72,10.99 8.14,2.02 5.93,-7.95 16.85,4.2 1.55,9.83 8.37,2.06 -7.02,-39.79 -8.93,-2.21 -24.89,31.84 z m 106.05,-12.42 c -1.24,-7.91 -8.2,-14.28 -20.9,-13.61 -14.51,0.75 -20.12,10.16 -19.58,20.55 0.54,10.35 7.37,19.13 20.69,18.41 15.18,-0.78 19.57,-8.85 20.27,-16.23 l -8.36,0.45 c -0.42,3.9 -2.82,9.52 -10.87,9.93 -7.64,0.42 -13.24,-4.65 -13.64,-12.33 -0.51,-9.6 4.56,-14.63 11.69,-15 6.5,-0.34 11.27,2.73 12.34,8.25 l 8.36,-0.42 z m 36.89,2.03 1.87,-16.73 10.36,13.24 -12.23,3.49 z m -9.85,18.37 8.06,-2.32 1.15,-9.83 16.69,-4.8 6.27,7.73 8.28,-2.36 -25.97,-30.98 -8.85,2.55 -5.63,40.01 z m 58.04,-35.66 c 3.1,5.21 8.9,14.36 24.2,5.18 15.3,-9.19 9.9,-18.57 6.8,-23.82 l -10.8,-18.03 -6.7,4.01 10.8,17.85 c 2.6,4.39 5.6,9.82 -3.1,15.04 -8.6,5.17 -12,0 -14.6,-4.43 l -10.8,-17.85 -6.6,4.01 10.8,18.04 z"
     id="path218"
     style="fill:#00785e" />
  <g
     transform="matrix(3.75e-5,0,0,3.75e-5,600,0)"
     id="g220"
     style="fill:#fbd116">
    <polygon
       points="8394400,3607400 8638100,4347700 8000000,3890200 7362000,4347700 7605600,3607400 6967600,3149800 7756300,3149800 8000000,2409400 8243800,3149800 9032400,3149800 "
       id="polygon222" />
    <polygon
       points="3984400,5401000 4035700,5882400 4515400,5983100 4067400,6180000 4118600,6661400 3790400,6301700 3342400,6498600 3587600,6079400 3259400,5719600 3739200,5820200 "
       id="polygon224" />
    <polygon
       points="5713700,3646500 5514200,4088800 5878700,4412700 5390900,4362100 5191400,4804300 5089400,4330800 4601600,4280200 5026400,4038100 4924400,3564600 5288900,3888500 "
       id="polygon226" />
    <polygon
       points="12016000,5401000 11964000,5882400 11485000,5983100 11933000,6180000 11881000,6661400 12210000,6301700 12658000,6498600 12412000,6079400 12741000,5719600 12261000,5820200 "
       id="polygon228" />
    <polygon
       points="10286000,3646500 10486000,4088800 10121000,4412700 10609000,4362100 10809000,4804300 10911000,4330800 11398000,4280200 10974000,4038100 11076000,3564600 10711000,3888500 "
       id="polygon230" />
  </g>
</svg>
