<svg width="16" height="19" viewBox="0 0 16 19" fill="none" xmlns="http://www.w3.org/2000/svg">
<path fill-rule="evenodd" clip-rule="evenodd" d="M14.89 6.78C14.74 6.78 14.62 6.9 14.62 7.05V13.32L7.57 18L0.53 13.31V1.95L0.96 1.78C5.22 0.11 9.93 0.11 14.2 1.78L14.79 2.01C14.93 2.06 15.08 2 15.13 1.86C15.18 1.72 15.12 1.57 14.98 1.52L14.39 1.29C9.99 -0.43 5.16 -0.43 0.76 1.29L0.17 1.52C0.07 1.56 0 1.66 0 1.77V13.45C0 13.54 0.04 13.62 0.12 13.67L7.43 18.53C7.43 18.53 7.53 18.57 7.58 18.57C7.63 18.57 7.68 18.56 7.73 18.53L15.04 13.67C15.11 13.62 15.16 13.54 15.16 13.45V7.04C15.16 6.89 15.04 6.77 14.89 6.77V6.78ZM7.8901 10.8601V3.35008C7.8901 3.20008 7.7701 3.08008 7.6201 3.08008C7.4701 3.08008 7.3501 3.20008 7.3501 3.35008V10.8601C7.3501 11.0101 7.4701 11.1301 7.6201 11.1301C7.7701 11.1301 7.8901 11.0101 7.8901 10.8601ZM7.62006 14.2294C7.04006 14.2294 6.56006 13.7494 6.56006 13.1694C6.56006 12.5894 7.04006 12.1094 7.62006 12.1094C8.20006 12.1094 8.68006 12.5894 8.68006 13.1694C8.68006 13.7494 8.20006 14.2294 7.62006 14.2294ZM8.15006 13.1694C8.15006 12.8794 7.91006 12.6394 7.62006 12.6394C7.33006 12.6394 7.09006 12.8794 7.09006 13.1694C7.09006 13.4594 7.33006 13.6994 7.62006 13.6994C7.91006 13.6994 8.15006 13.4594 8.15006 13.1694Z" fill="#232020"/>
</svg>
