<svg width="19" height="20" viewBox="0 0 19 20" fill="none" xmlns="http://www.w3.org/2000/svg">
<path fill-rule="evenodd" clip-rule="evenodd" d="M11.9789 3.89579C12.0289 3.97579 12.1089 4.02579 12.1989 4.02579V4.01579C12.2389 4.01579 12.2789 4.00579 12.3189 3.98579C12.4389 3.92579 12.4889 3.77579 12.4189 3.65579L11.1439 1.34664C12.5936 1.71023 13.9191 2.44961 15.009 3.4952C16.649 5.0852 17.579 7.2152 17.619 9.5052C17.659 11.7952 16.809 13.9552 15.219 15.6052C13.959 16.9052 12.349 17.7652 10.569 18.0852C10.439 18.1152 10.349 18.2452 10.369 18.3752C10.389 18.4952 10.489 18.5752 10.609 18.5752L10.629 18.5552H10.669C12.549 18.2152 14.249 17.3152 15.579 15.9352C17.259 14.1952 18.159 11.9052 18.119 9.4852C18.079 7.0752 17.099 4.8152 15.359 3.1352C14.2851 2.1026 12.9928 1.35661 11.578 0.947971L13.8889 0.485792C14.0189 0.455792 14.1089 0.325792 14.0789 0.195792C14.0489 0.0657919 13.9189 -0.0242081 13.7889 0.00579192L10.5589 0.655792C10.4889 0.675792 10.4289 0.725792 10.3889 0.795792C10.3534 0.857806 10.3494 0.927668 10.3768 0.991473C10.3818 1.07161 10.4221 1.14349 10.4831 1.18639L11.9789 3.89579ZM4.13909 19.1364C4.15909 19.2564 4.26909 19.3364 4.37909 19.3364H4.41909L7.64909 18.6864C7.71909 18.6664 7.78909 18.6164 7.81909 18.5464C7.85909 18.4764 7.85909 18.3964 7.81909 18.3264L6.22909 15.4464C6.16909 15.3264 6.01909 15.2764 5.89909 15.3464C5.77909 15.4064 5.72909 15.5564 5.79909 15.6764L7.0845 18.0046C5.58773 17.6523 4.21891 16.9012 3.09886 15.8267C-0.291141 12.5467 -0.39114 7.11669 2.88886 3.72669C4.14886 2.42669 5.75886 1.56669 7.53886 1.24669C7.66886 1.21669 7.75886 1.08669 7.73886 0.956689C7.70886 0.826689 7.58886 0.736689 7.44886 0.756689C5.56886 1.09669 3.86886 2.00669 2.53886 3.37669C-0.93114 6.96669 -0.83114 12.7167 2.75886 16.1867C3.84859 17.2345 5.16318 17.9872 6.60249 18.3918L4.32909 18.8464C4.19909 18.8764 4.10909 19.0064 4.13909 19.1364Z" fill="#232020"/>
</svg>
