<svg width="20" height="20" viewBox="0 0 20 20" fill="none" xmlns="http://www.w3.org/2000/svg">
<path fill-rule="evenodd" clip-rule="evenodd" d="M9.54004 5.01C9.54004 5.16 9.66004 5.28 9.81004 5.28C9.96004 5.28 10.08 5.16 10.08 5.01V0.27C10.08 0.12 9.96004 0 9.81004 0C9.66004 0 9.54004 0.12 9.54004 0.27V5.01ZM9.54004 19.3403C9.54004 19.4903 9.66004 19.6103 9.81004 19.6103C9.96004 19.6103 10.08 19.4903 10.08 19.3403V14.5903C10.08 14.4403 9.96004 14.3203 9.81004 14.3203C9.66004 14.3203 9.54004 14.4403 9.54004 14.5903V19.3403ZM19.3501 10.0693H14.6001C14.4501 10.0693 14.3301 9.9493 14.3301 9.7993C14.3301 9.6493 14.4501 9.5293 14.6001 9.5293H19.3501C19.5001 9.5293 19.6201 9.6493 19.6201 9.7993C19.6201 9.9493 19.5001 10.0693 19.3501 10.0693ZM0.27 10.0693H5.01C5.16 10.0693 5.28 9.9493 5.28 9.7993C5.28 9.6493 5.16 9.5293 5.01 9.5293H0.27C0.12 9.5293 0 9.6493 0 9.7993C0 9.9493 0.12 10.0693 0.27 10.0693ZM13.1898 6.67992L13.1848 6.67987C13.2531 6.67848 13.321 6.64873 13.3698 6.59992L16.7298 3.23992C16.8298 3.13992 16.8298 2.96992 16.7298 2.86992C16.6298 2.76992 16.4598 2.76992 16.3598 2.86992L12.9998 6.22992C12.8998 6.32992 12.8998 6.49992 12.9998 6.59992C13.0486 6.64873 13.1165 6.67848 13.1848 6.67987L13.1798 6.67992H13.1898ZM3.05492 16.8205L3.05992 16.8205H3.04992L3.05492 16.8205ZM3.23992 16.7405C3.19111 16.7894 3.12325 16.8191 3.05492 16.8205C2.9866 16.8191 2.91873 16.7894 2.86992 16.7405C2.76992 16.6405 2.76992 16.4705 2.86992 16.3705L6.22992 13.0105C6.32992 12.9105 6.49992 12.9105 6.59992 13.0105C6.69992 13.1105 6.69992 13.2805 6.59992 13.3805L3.23992 16.7405ZM16.5498 16.8205L16.5448 16.8205C16.6131 16.8191 16.681 16.7894 16.7298 16.7405C16.8298 16.6405 16.8298 16.4705 16.7298 16.3705L13.3698 13.0105C13.2698 12.9105 13.0998 12.9105 12.9998 13.0105C12.8998 13.1105 12.8998 13.2805 12.9998 13.3805L16.3598 16.7405C16.4086 16.7894 16.4765 16.8191 16.5448 16.8205L16.5398 16.8205H16.5498ZM6.22992 6.59969C6.27992 6.64969 6.34992 6.67969 6.41992 6.67969L6.40992 6.68969C6.47992 6.68969 6.54992 6.65969 6.59992 6.60969C6.69992 6.50969 6.69992 6.33969 6.59992 6.23969L3.23992 2.87969C3.13992 2.77969 2.96992 2.77969 2.86992 2.87969C2.76992 2.97969 2.76992 3.14969 2.86992 3.24969L6.22992 6.59969Z" fill="#232020"/>
</svg>
