<svg width="20" height="20" viewBox="0 0 20 20" fill="none" xmlns="http://www.w3.org/2000/svg">
<path fill-rule="evenodd" clip-rule="evenodd" d="M18.1027 2.66686L9.72003 0.544444L6.49658 1.35803L14.0025 3.77597L18.1027 2.66686ZM13.0568 4.03178L5.89004 1.71418C5.8078 1.69068 5.74626 1.62923 5.71962 1.55413L1.32459 2.66342L9.72 4.93438L13.0568 4.03178ZM0.26988 2.38672L9.66003 0.00444444C9.66003 0.00444444 9.75003 -0.00555556 9.79003 0.00444444L19.25 2.39444C19.39 2.43444 19.48 2.57444 19.44 2.71444L19.44 2.71457V16.6344C19.44 16.7544 19.36 16.8644 19.24 16.8944L9.82201 19.2738C9.79064 19.2864 9.75629 19.2934 9.7202 19.2934V19.2844H9.72C9.72 19.2844 9.67 19.2844 9.64 19.2744L0.19 16.4544C0.08 16.4144 0 16.3144 0 16.1944V2.65438C0 2.57438 0.04 2.49438 0.1 2.44438C0.152419 2.40694 0.210445 2.38632 0.26988 2.38672ZM18.92 16.4244L9.9902 18.6787V5.42022L18.92 3.00438V16.4244ZM0.53 3.00438L9.4502 5.42027V18.6607L0.53 15.9944V3.00438Z" fill="#232020"/>
</svg>
