<?xml version="1.0" encoding="utf-8"?>
<!-- Generator: Adobe Illustrator 22.1.0, SVG Export Plug-In . SVG Version: 6.00 Build 0)  -->
<svg version="1.1" id="圖層_1" xmlns="http://www.w3.org/2000/svg" xmlns:xlink="http://www.w3.org/1999/xlink" x="0px" y="0px"
	 viewBox="0 0 500 500" style="enable-background:new 0 0 500 500;" xml:space="preserve">
<path d="M47,220.4c1.9-8.6,3.5-17,5.5-25.3c3-12.2,6.6-22,22.4-24.6c15.6-2.6,24.5-22.7,17.9-37.7c-3.7-8.4-2-13.1,3.7-18.5
	c4.8-4.6,9.1-9.8,13.9-14.4c7.2-6.8,13.2-12.2,25.7-7.1c16.1,6.6,33.5-5,36.5-22.4c1.7-9.9,6.3-13.9,14.9-16
	c6.9-1.7,13.7-4,20.7-5.6c7.6-1.8,13.8-1.6,20,5.8c12.5,15,32,15.2,44.8,0.6c6.5-7.4,12.8-8.6,21.2-6.3c6,1.6,11.9,3.6,17.9,4.9
	c9.5,2.1,15.3,5.9,17.3,17.1c3.3,17.9,21.4,28.1,38.3,21.6c8.9-3.4,14.1-1.9,19.9,4.1c5.3,5.5,11,10.6,16.3,16.1
	c5.9,6,8.5,11.5,4.6,21.1c-6.5,16.1,3.4,33.8,20.7,37.5c12,2.5,16.6,8.8,18.6,19.5c1,5.6,3.3,11,4.4,16.6c1.5,7.9,1.9,14.3-6.3,20.9
	c-14.8,12-14.6,32.9,0.3,44.7c7.9,6.2,7.6,12.2,6,19.7c-1.4,6.5-3.5,12.9-5,19.4c-2.2,9.5-6.2,15.2-17.4,17
	c-17.5,2.8-27.9,21.9-21.2,38.4c3.6,8.9,1.8,14-4.2,19.6c-4.2,3.9-8,8.2-11.9,12.4c-7.8,8.1-14.7,13.7-28.1,7.9
	c-14.4-6.3-32.2,5.7-35,22.6c-1.8,10.7-7.2,14.4-16.2,16.5c-5.6,1.3-11,3.2-16.5,4.6c-9.4,2.5-17,3-24.7-6.6
	c-11.2-13.8-31.7-13.4-42.6,0.5c-6.9,8.8-13.5,8.6-22.1,6.5c-6-1.5-11.8-3.8-17.9-4.9c-9.8-1.9-15-6.2-17-17.2
	c-3.3-18.1-21.3-27.7-38.3-21.1c-8.8,3.4-14.2,2-19.9-4.4c-3.8-4.2-8.2-7.9-12.3-12c-7.8-7.7-14-14.2-8-27.8
	c6.4-14.6-5.9-32.9-22.2-35.3c-10.7-1.6-14.6-7.1-16.8-16c-1.5-6-3.3-11.9-4.8-17.9c-2.2-8.9-3.2-16,6.5-23.3
	c13.8-10.3,12.9-30.6,0.4-43C53.9,225.6,50.4,223.2,47,220.4z M250.1,402.8c84,0.2,154-69.3,153.7-152.7
	c-0.2-83.2-68.6-151.7-152.4-152.6c-83.2-0.9-153.7,69.2-153.6,152.8C97.9,333.5,167,402.6,250.1,402.8z"/>
<path d="M180.2,249.7c0-39.8,30.7-70.4,70.6-70.5c40.1,0,70.9,31.3,70.7,72c-0.2,38.6-31.2,69.6-70,70
	C211.4,321.6,180.2,290.3,180.2,249.7z M279.7,250.2c0-15.9-13.4-28.9-29.4-28.6c-15.2,0.3-28.5,13.2-28.9,28.1
	c-0.4,14.9,13.8,29.4,29,29.7C265.8,279.5,279.7,265.6,279.7,250.2z"/>
</svg>
