<?xml version="1.0" encoding="utf-8"?>
<!-- Generator: Adobe Illustrator 22.1.0, SVG Export Plug-In . SVG Version: 6.00 Build 0)  -->
<svg version="1.1" id="圖層_1" xmlns="http://www.w3.org/2000/svg" xmlns:xlink="http://www.w3.org/1999/xlink" x="0px" y="0px"
	 viewBox="0 0 500 500" style="enable-background:new 0 0 500 500;" xml:space="preserve">
<path d="M445.4,282.3c-4.9,25.6-9.4,49.6-14.3,75c-53.7,0-106.3,0-159.8,0c-4.1,18.7-7.8,36-12.3,56.7
	c-39-44.9-75.8-87.1-114.6-131.7C246.1,282.3,344.4,282.3,445.4,282.3z"/>
<path d="M54.9,223.4c4.9-25.2,9.4-48.7,14.3-73.7c53.5,0,106.3,0,160,0c3.8-18.8,7.3-36.3,11.6-57.9c39.1,45,75.8,87.2,114.4,131.6
	C253.7,223.4,155.2,223.4,54.9,223.4z"/>
<path d="M137.6,356.6c-38.7,0-72.4,0-107.9,0c4.3-23.5,7.9-45.9,12.7-68c2-9.2,24.9-11.9,33-3.1C95.8,307.7,115.3,330.9,137.6,356.6
	z"/>
<path d="M457.1,222.6c-21.1,5.7-34.3-0.8-45.8-16.3c-13.9-18.6-30.1-35.4-47.4-55.3c36.9,0,70.6,0,106.4,0
	C465.8,175,461.5,198.8,457.1,222.6z"/>
</svg>
