<?xml version="1.0" encoding="utf-8"?>
<!-- Generator: Adobe Illustrator 22.1.0, SVG Export Plug-In . SVG Version: 6.00 Build 0)  -->
<svg version="1.1" id="圖層_1" xmlns="http://www.w3.org/2000/svg" xmlns:xlink="http://www.w3.org/1999/xlink" x="0px" y="0px"
	 viewBox="0 0 500 500" style="enable-background:new 0 0 500 500;" xml:space="preserve">
<path d="M368.6,249.6c-31.8,30.8-62.3,60.3-95.6,92.6c0-17.9-0.4-32.5,0.3-47c0.2-3.2,3.8-6.5,6.4-9.4
	c11.2-12.7,22.6-25.4,34.7-38.9c-8.8-8.4-19.7-19.4-31.4-29.6c-7.5-6.5-11-13.6-10.2-23.8c0.8-10.7,0.2-21.4,0.2-36.2
	C306.3,189.6,336.8,219,368.6,249.6z"/>
<path d="M226.3,342.3c-33.4-32.4-64-62-95.7-92.7c31.4-30.2,62.1-59.9,95.6-92.1c0,18,0.6,32.2-0.4,46.3c-0.3,4-4.5,8.2-7.7,11.5
	c-11.5,11.3-23.3,22.1-36.2,34.3c10.8,10.3,20.7,20.6,31.5,29.7c9.8,8.2,14.8,17.3,13.2,30.4C225.4,319.1,226.3,328.7,226.3,342.3z"
	/>
<path d="M113.9,340.4c-28.4-31.2-56.8-62.4-82.2-90.2c24.9-27.5,53.6-59.2,82.2-90.8c1.3,0.8,2.5,1.5,3.8,2.3
	c0,14.2,0.6,28.4-0.4,42.5c-0.3,4-4.4,8.2-7.6,11.3c-11.4,11.3-23.2,22.1-34.5,32.8c11.9,12.4,23.5,23.5,33.8,35.6
	c4.3,5.1,7.6,12.3,8.3,18.9c1.3,11.6,0.4,23.4,0.4,35.1C116.5,338.8,115.2,339.6,113.9,340.4z"/>
<path d="M423.4,247.9c-10-9.6-20.6-20.4-32.1-30.3c-7.5-6.5-11.2-13.4-10.4-23.6c0.9-10.7,0.2-21.5,0.2-36.4
	c32.9,31.9,63.3,61.2,91.1,88.1c-29.6,31.5-58.9,62.7-90.9,96.8c0-18.6-0.4-33.2,0.3-47.7c0.2-3.2,3.8-6.5,6.4-9.3
	C399.5,273.2,411.1,261,423.4,247.9z"/>
</svg>
