<?xml version="1.0" encoding="utf-8"?>
<!-- Generator: Adobe Illustrator 22.1.0, SVG Export Plug-In . SVG Version: 6.00 Build 0)  -->
<svg version="1.1" id="圖層_1" xmlns="http://www.w3.org/2000/svg" xmlns:xlink="http://www.w3.org/1999/xlink" x="0px" y="0px"
	 viewBox="0 0 500 500" style="enable-background:new 0 0 500 500;" xml:space="preserve">
<path d="M413.5,362.9c-22.3,12.8-44.4,25.8-66.9,38.1c-4,2.2-9.5,2.3-14.3,2.3c-54.1,0.1-108.1,0.4-162.2-0.2
	c-8.4-0.1-17.5-2.8-25-6.8c-20-10.6-39.3-22.5-62.4-36c112.8,0,221.3,0,329.9,0C412.8,361.1,413.2,362,413.5,362.9z"/>
<path d="M412.2,348.7c-108.1,0-216.3,0-329.3,0c15.9-9.6,28.7-16.3,40.5-24.5c21.5-14.9,44.4-20.9,71-19.8
	c45.6,1.9,91.3,0.3,137,0.8c7.4,0.1,15.5,2.6,22.1,6.1c20.3,10.9,40.1,22.9,60,34.4C413,346.7,412.6,347.7,412.2,348.7z"/>
<path d="M270.3,44.5c22.6,13,45.3,25.9,67.7,39.3c3.5,2.1,5.7,6.7,7.9,10.5c27.6,47.6,55.1,95.2,82.6,142.9c2.2,3.8,5,8,5.1,12.1
	c0.5,26.1,0.2,52.1-2.6,79.1C376.8,234.7,322.6,141,268.5,47.2C269.1,46.3,269.7,45.4,270.3,44.5z"/>
<path d="M258.3,51.6c54.5,94.4,109,188.9,163.5,283.3c-0.6,0.6-1.3,1.1-1.9,1.7c-22.6-13-45.3-25.8-67.6-39.2
	c-3.9-2.3-6.5-7.2-9-11.4c-27.6-47.5-55-95.2-82.3-142.9c-2.6-4.6-5.2-9.9-5.3-15c-0.5-25.2-0.2-50.5-0.2-75.7
	C256.4,52.1,257.3,51.8,258.3,51.6z"/>
<path d="M78.9,334.3C132.9,240.7,187,147,241,53.4c1,0.2,2,0.4,3,0.6c0,26.4,0.2,52.8-0.2,79.2c-0.1,3.6-2.8,7.3-4.8,10.7
	c-27.4,47.7-54.8,95.4-82.6,142.9c-3.1,5.2-8.1,10-13.3,13.2c-20.5,12.5-41.4,24.3-62.2,36.3C80.2,335.6,79.6,335,78.9,334.3z"/>
<path d="M66.9,326.4c0-26-0.2-52.1,0.2-78.1c0.1-4.1,3.2-8.2,5.4-12.1c27.4-47.7,54.9-95.3,82.5-142.9c2-3.4,4-7.4,7.1-9.3
	c22.3-13.3,45-26.2,69.7-36.9C178,140.4,124.2,233.6,70.4,326.9C69.3,326.7,68.1,326.6,66.9,326.4z"/>
<path d="M365.1,99.3c20.6,11.8,41.3,23.4,61.5,35.8c3.6,2.2,6.8,8.3,6.9,12.7c0.7,23.3,0.3,46.6-2.6,71.4
	c-22.7-39.3-45.4-78.6-68.1-117.8C363.6,100.7,364.3,100,365.1,99.3z"/>
<path d="M323.9,281.1c-20.5-11.8-41.2-23.4-61.5-35.6c-3.2-1.9-6.6-6.5-6.7-9.9c-0.6-24.5-0.3-49.1,2.6-74.6
	c22.7,39.3,45.4,78.7,68.1,118C325.6,279.7,324.8,280.4,323.9,281.1z"/>
<path d="M137.7,101c-22.6,39-45.1,78.1-67.7,117.1c-1-0.1-2-0.3-3-0.4c0-25.2-0.1-50.5,0.2-75.7c0-1.9,2.2-4.6,4-5.7
	c21.5-12.6,43.1-25,64.6-37.5C136.4,99.6,137.1,100.3,137.7,101z"/>
<path d="M244.2,164c0,24.1,0.2,48.1-0.3,72.2c-0.1,3.1-2.9,7.4-5.8,9.1c-20.3,12.2-40.9,23.9-64.2,33.6
	c22.2-38.5,44.4-77.1,66.5-115.6C241.8,163.5,243,163.7,244.2,164z"/>
<path d="M321.3,416c-24.3,14.1-44.7,26.1-65.4,37.8c-2.6,1.5-7.1,2.4-9.3,1.2c-21.4-12-42.5-24.5-67.4-39
	C228.2,416,272.7,416,321.3,416z"/>
<path d="M316.9,292.9c-44.4,0-88.9,0-133.3,0c-0.3-0.8-0.6-1.6-0.9-2.4c21.2-12.3,42.3-24.6,63.6-36.7c2.1-1.2,5.9-1.2,7.9-0.1
	c21.4,12.1,42.6,24.5,63.9,36.9C317.6,291.3,317.2,292.1,316.9,292.9z"/>
</svg>
