<?xml version="1.0" encoding="utf-8"?>
<!-- Generator: Adobe Illustrator 22.1.0, SVG Export Plug-In . SVG Version: 6.00 Build 0)  -->
<svg version="1.1" id="圖層_1" xmlns="http://www.w3.org/2000/svg" xmlns:xlink="http://www.w3.org/1999/xlink" x="0px" y="0px"
	 viewBox="0 0 500 500" style="enable-background:new 0 0 500 500;" xml:space="preserve">
<path d="M165.8,111.3c0,14.5,0,28.2,0,41.6c-64.9,17.6-95.5,52.4-89.3,100.9c5.9,46.3,42.8,80.3,88.6,81.5
	c47.6,1.2,82.6-32.2,92.7-89.5c13.6,0,27.3,0,40.9,0c7.8,36.6-22.1,90.3-63.9,115C186,389.5,123,384.5,80.4,348.4
	c-44.4-37.6-60.5-99.7-39.4-152.1C62.1,143.9,113.6,108.4,165.8,111.3z"/>
<path d="M247.4,244.2c-14.6,0-28.3,0-42,0c-7.3-39.5,23.5-92.9,67.2-117.2c50-27.7,112.2-20.6,154.9,17.7
	c43,38.6,56.5,100.2,33.7,153.3c-21,48.9-74.6,84.4-123.4,80.4c0-12.2-0.8-24.7,0.6-36.9c0.3-3,7.7-6.8,12.2-7.5
	c44.6-7.1,77.4-44.7,77.4-89.3c-0.1-47.5-37.7-87.2-85.3-90.1c-47.1-2.8-89.2,32.9-94.6,80.2C247.8,237.5,247.7,240.1,247.4,244.2z"
	/>
</svg>
