<?xml version="1.0" encoding="utf-8"?>
<!-- Generator: Adobe Illustrator 22.1.0, SVG Export Plug-In . SVG Version: 6.00 Build 0)  -->
<svg version="1.1" id="圖層_1" xmlns="http://www.w3.org/2000/svg" xmlns:xlink="http://www.w3.org/1999/xlink" x="0px" y="0px"
	 viewBox="0 0 500 500" style="enable-background:new 0 0 500 500;" xml:space="preserve">
<path d="M116.7,419.5C102.9,406,88.3,391.7,74,377.7c98.2-97.9,196.1-195.6,294.3-293.4C381.5,97.8,396,112.7,410,127
	C313,223.7,215.1,321.4,116.7,419.5z"/>
<path d="M366.2,421.6c-23-23.2-45.9-46.3-68.8-69.3c-0.4-0.4-0.8-0.7-1.1-1.1c-6-8.9-3.4-74.7,2.8-83.5
	c36.4,37.2,72.9,74.6,109.4,112C397,391,382.6,405.3,366.2,421.6z"/>
<path d="M184.5,237.4c-36.9-37.2-73.2-73.7-110-110.8c14.4-12.9,29.9-26.8,47.1-42.2c20.3,20.5,43.7,43.7,66.4,67.6
	C195.7,160.3,192.6,227.6,184.5,237.4z"/>
<path d="M274.5,460.7c-21.9,0-42.2,0-64.4,0c0-29.4,0-58.1,0.1-86.8c0-2,0.4-4.6,1.7-5.8c20.3-20,40.9-39.8,62.6-60.9
	C274.5,358.9,274.5,409,274.5,460.7z"/>
<path d="M211.1,44.3c21.2,0,41.5,0,64.1,0c0,29.2,0.1,58-0.1,86.8c0,2.3-1.5,5.1-3.1,6.9c-19.1,20.1-38.4,39.9-57.6,59.9
	c-1.1-0.8-2.2-1.5-3.2-2.3C211.1,145.9,211.1,96.1,211.1,44.3z"/>
</svg>
