<?xml version="1.0" encoding="utf-8"?>
<!-- Generator: Adobe Illustrator 22.1.0, SVG Export Plug-In . SVG Version: 6.00 Build 0)  -->
<svg version="1.1" id="圖層_1" xmlns="http://www.w3.org/2000/svg" xmlns:xlink="http://www.w3.org/1999/xlink" x="0px" y="0px"
	 viewBox="0 0 500 500" style="enable-background:new 0 0 500 500;" xml:space="preserve">
<path d="M448.6,194.9c0,7.4,0,13.9,0,21.9c-16.6-5.1-26.5,15.2-42.9,9.1c-3.3-1.2-7.1-2.6-9.4-5.1c-5.2-5.8-28.9-5.6-33.6,0.8
	c-4.6,6.3-26.7,6.4-31.1,0.1c-4-5.7-28.4-7-32.7-1.8c-7.7,9.1-23,5.9-33.4,0.2c-8.1-4.4-22.7-4-30.9,0.5c-9.5,5.2-24.4,5-34,0.1
	c-8.4-4.3-22.2-3-31.5,0.9c-7.2,3-26.3,6.9-31.7-0.2c-4.2-5.5-28.7-6.4-33-1.3c-7.5,8.8-23.5,7.5-32.5-0.1c-4.6-3.9-13-3.2-20.3-4.7
	c0-6.4,0-12.9,0-20.3C183.7,194.9,315.4,194.9,448.6,194.9z"/>
<path d="M51.4,295.6c0-7,0-13.4,0-20.2c8-3.6,19.2,3.1,24.2-9.5c1.9-4.7,23.6,3.5,28.5,4.5c10.6,2,23.2,3.1,32.6-0.9
	c7.9-3.4,26.4-6.8,31.8,0.8c1,1.5,3.1,3.8,4.1,3.5c9.9-2.9,22.8,8,30.5-7.2c2.6-5.1,26.9-0.8,30.7,4.3c1.1,1.4,3.3,3.3,4.4,3
	c9.8-3.1,22.9,8,30.1-7.6c2.1-4.6,26.9-0.6,30.3,4c4.4,6,28.7,5.5,33-0.6c4.8-6.8,26.2-6.9,31.1-0.1c4.9,6.8,28.5,6.6,33.7-0.3
	c5.1-6.8,25.1-4.9,31.4,0.4c4.9,4.1,12.9,4.5,20.6,6.8c0,5,0,11.5,0,19C316.1,295.6,184.1,295.6,51.4,295.6z"/>
</svg>
