<?xml version="1.0" encoding="utf-8"?>
<!-- Generator: Adobe Illustrator 22.1.0, SVG Export Plug-In . SVG Version: 6.00 Build 0)  -->
<svg version="1.1" id="圖層_1" xmlns="http://www.w3.org/2000/svg" xmlns:xlink="http://www.w3.org/1999/xlink" x="0px" y="0px"
	 viewBox="0 0 500 500" style="enable-background:new 0 0 500 500;" xml:space="preserve">
<path d="M445.1,366.7c-8.9,8.3-17.6,17-27,24.7c-3.6,3-9,5.4-13.5,5.4c-54.1,0.2-108.2,1.7-162.2-0.6
	c-61.3-2.6-104.5-35.1-127.6-91.2c-23-56-11.7-107.7,27.2-153.6c2.7-3.2,5.7-6.2,8.6-9.4c0.3-0.3,0.2-0.8,0.8-3.1
	c-31.4,0-62.4,0-93.4,0c-1-1.7-2.1-3.3-3.1-5c10.6-9.5,21-19.3,32-28.3c2.8-2.3,7.8-2.5,11.8-2.5c50.8-0.2,101.6-1.2,152.4,0.2
	c63.2,1.7,110.1,31.8,134.6,90.2c24.4,58.2,13.2,112.2-29.6,159.1c-2.2,2.4-4.4,4.9-6.5,7.4c-0.2,0.2,0.1,0.8,0.3,2.7
	c30.9,0,62.1,0,93.2,0C443.8,363.9,444.4,365.3,445.1,366.7z M251.3,138.2c-63,0.6-113.1,50-112.7,111.2
	c0.4,64.7,50.5,113.8,115.3,113.1c59.8-0.6,109.7-52.5,109.4-113.6C363,188.4,311.7,137.7,251.3,138.2z"/>
</svg>
