<?xml version="1.0" encoding="utf-8"?>
<!-- Generator: Adobe Illustrator 22.1.0, SVG Export Plug-In . SVG Version: 6.00 Build 0)  -->
<svg version="1.1" id="圖層_1" xmlns="http://www.w3.org/2000/svg" xmlns:xlink="http://www.w3.org/1999/xlink" x="0px" y="0px"
	 viewBox="0 0 500 500" style="enable-background:new 0 0 500 500;" xml:space="preserve">
<path d="M430.8,276c-49,0-95.7,0-143.7,0c3.6-14.6,6.2-28.6,10.7-41.9c1.2-3.5,8.1-6.9,12.5-7.1c17.6-0.8,35.2-0.3,55.1-0.3
	c-7.2-29.3-13.7-56.2-20.4-83.1c-2.9-11.8-5.2-23.9-9.5-35.2c-2-5.2-8.9-12.6-12.6-12.1c-5.3,0.7-12.5,7.1-13.9,12.4
	c-14,51.9-26.9,104.1-40.1,156.3c-12.3,48.7-24.2,97.6-36.9,146.2c-7.2,27.8-31.5,46.3-60.4,47.7c-26.4,1.3-54-15.1-61.4-41.5
	c-17.5-62.4-32.6-125.5-49.2-190.5c21.3,0,40.6,0,59.8,0c31.1,0,62.1-0.4,93.2,0.2c9.5,0.2,13.2-3.1,15.3-12.2
	c9.2-39,18.7-78,29.1-116.7c11.1-41.4,45.6-62.1,82.9-50.3c21.4,6.7,36.4,21.2,42,42.7C399.8,151.5,414.9,213.1,430.8,276z
	 M126.7,277.4C137.2,318.7,147,359,157.9,399c1.1,3.9,8.3,8.6,12.5,8.4c4.2-0.2,10.2-5.1,11.9-9.4c4-10.3,6.1-21.4,8.8-32.3
	c7.3-29.2,14.5-58.5,21.9-88.4C183.5,277.4,156.2,277.4,126.7,277.4z"/>
</svg>
