<?xml version="1.0" encoding="utf-8"?>
<!-- Generator: Adobe Illustrator 22.1.0, SVG Export Plug-In . SVG Version: 6.00 Build 0)  -->
<svg version="1.1" id="圖層_1" xmlns="http://www.w3.org/2000/svg" xmlns:xlink="http://www.w3.org/1999/xlink" x="0px" y="0px"
	 viewBox="0 0 500 500" style="enable-background:new 0 0 500 500;" xml:space="preserve">
<path d="M74.9,246.4c21.5-20.6,43-41.3,65.5-63C117,161.1,95,140.2,72.9,119.1c16.7-16.2,31.3-30.2,47-45.3
	c19.6,20.7,40.4,42.5,63.2,66.6c23.5-25.3,44.1-47.3,64.6-69.4c16.6,17.2,30.7,31.8,44.4,45.9c-57.1,56.8-115.5,115-174.5,173.7
	C104.7,277.4,90.6,262.7,74.9,246.4z"/>
<path d="M206.2,377.8c58-58,115.9-115.9,173.6-173.5c14.4,14.7,28.9,29.3,44.6,45.4c-20.9,19.6-42.6,40-66.3,62.1
	c24.6,22.9,46.6,43.5,68.9,64.4c-17.5,16.8-32.2,30.9-48,46.2c-19.6-20.6-40.3-42.5-62.6-66c-23.2,24.2-44.1,45.9-65,67.7
	C235.3,407.5,221.1,393,206.2,377.8z"/>
<path d="M293.2,244.8c-12.8-13-27.1-27.5-40.9-41.6c43-43,86.1-86.1,129.2-129.3c13.9,13.7,28.3,28,42.4,42
	C380.6,158.6,337.4,201.1,293.2,244.8z"/>
<path d="M206.3,251.1c12.9,12.9,27.2,27.2,41.2,41.2c-43.1,42.7-86.2,85.3-128.2,126.9c-12.7-12.4-27.4-26.9-41.8-41
	C119.2,337,162.3,294.5,206.3,251.1z"/>
</svg>
