<svg xmlns="http://www.w3.org/2000/svg" viewBox="0 0 40.814 30.362">
  <defs>
    <style>
      .cls-1 {
        fill: #0f6caf;
      }

      .cls-1, .cls-2, .cls-3 {
        fill-rule: evenodd;
      }

      .cls-2 {
        fill: #de0a25;
      }

      .cls-3 {
        fill: #138e3b;
      }
    </style>
  </defs>
  <g id="Group_197" data-name="Group 197" transform="translate(0)">
    <path id="Path_72" data-name="Path 72" class="cls-1" d="M39.819,38.226a5.052,5.052,0,0,1-.042.648q-.02.153-.051.3-.039.21-.1.416c-.016.055-.031.109-.049.163l-.049.146c-.017.044-.033.088-.049.131s-.032.084-.051.124l-.049.114-.049.107-.049.1c-.016.031-.032.064-.049.095s-.033.061-.049.091-.032.058-.049.086-.033.056-.049.082-.032.053-.049.077-.033.051-.051.076l-.049.074-.049.07-.049.068-.049.067-.049.063c-.017.02-.032.042-.049.062s-.033.041-.049.059-.032.039-.049.058-.032.038-.049.056-.032.037-.049.056-.032.034-.051.053-.032.035-.049.052l-.051.05-.049.047-.049.049-.049.046c-.017.016-.033.029-.049.046s-.033.027-.049.044l-.049.042L38,42.092l-.049.041-.049.041-.049.039c-.017.012-.033.025-.051.037s-.032.025-.049.036-.033.025-.049.036-.032.024-.049.034-.033.024-.049.034l-.049.033-.051.032c-.016.009-.031.021-.049.03s-.033.021-.049.029a.415.415,0,0,1-.049.03c-.017.009-.032.021-.049.029s-.033.019-.051.027a.5.5,0,0,1-.049.027.434.434,0,0,1-.049.025.286.286,0,0,1-.049.027l-.049.025-.049.025-.051.025a.525.525,0,0,1-.049.024c-.017.008-.033.017-.049.024l-.049.024-.051.021-.049.023-.049.023a.332.332,0,0,0-.049.021l-.049.02c-.016.007-.032.012-.05.019l-.049.019-.05.018-.049.018-.049.018-.049.016c-.017,0-.032.012-.049.016s-.034.009-.049.016l-.051.014-.049.013-.05.015-.049.013-.049.012-.049.013-.049.012-.051.011-.049.011-.049.009a.251.251,0,0,1-.049.009l-.051.009-.049.008-.049.008c-.016,0-.032,0-.049.007l-.049.006-.049.008a.347.347,0,0,0-.051,0,.328.328,0,0,1-.049,0c-.017,0-.032,0-.049.006l-.049.005-.049,0-.049,0-.049,0-.049,0h-.1l-.051,0H27.238V32.624l.105.026.049.013.049.012.049.013.051.012.049.012.049.011.049.011.049.012.05.009.049.012.049.009.049.011.049.011.049.009.051.011.049.011.049.01.049.009.051.009.049.009.049.009.049.008.049.011.05.007.049.009.051.008.049.008.049.008.049.008.049.01.049.007.05.008.049.007.051.007.049.008.049.007.049.007.049.008.051.007.049.006.049.007.049.007.051.007.049.005.049.007.049.007.049.005.049.006.051.006.049.006.049.007.049.005.049.007.051.006.049.005.049,0,.049.005.049,0,.049.006.051,0,.049,0,.049,0,.049,0,.051,0,.049,0,.049,0,.049,0,.049,0,.05,0,.049,0,.049.006.049,0,.049,0,.049.005.05,0,.049,0,.049,0,.049,0,.05,0,.049,0,.05,0,.049,0,.049,0,.051,0,.049,0,.049,0h.049l.049,0h.147l.051,0h.2l.049,0h.691l.049,0h.1l.049,0h.147l.049,0,.051,0,.049,0h.049l.049,0,.049,0,.049,0,.049,0,.049,0,.051-.005.049,0,.049,0,.051-.005.049,0,.05,0,.049,0,.049,0,.049,0,.049-.006.049,0,.049-.005.049-.007.049,0,.049-.007.051-.006.049-.007.049-.006.049-.007c.017,0,.033,0,.049-.007l.05-.007.049-.007.049-.009a.386.386,0,0,0,.049-.008l.049-.007.051-.008a.327.327,0,0,1,.049-.009L35,33.048l.049-.009.049-.009a.363.363,0,0,0,.049-.011l.049-.011L35.249,33l.049-.011.049-.011.05-.011.049-.013.049-.012.049-.013.049-.013.049-.014c.017-.005.033-.007.051-.013s.033-.008.049-.013l.049-.014.049-.014.051-.016.049-.016a.411.411,0,0,0,.049-.016l.049-.017.049-.017a.4.4,0,0,1,.05-.017l.049-.019.051-.018c.016-.006.032-.013.049-.018l.049-.02a.428.428,0,0,0,.049-.021l.049-.02.049-.02.05-.022.049-.023.051-.023.049-.024.049-.024.049-.024.049-.025c.017-.007.033-.017.051-.025l.049-.026c.017-.007.034-.017.049-.025l.049-.027.051-.027.049-.027c.017-.011.033-.021.049-.029s.034-.022.049-.032.033-.022.049-.031.033-.023.049-.032.033-.024.051-.035.032-.024.049-.035l.049-.037c.017-.012.033-.025.049-.036l.049-.039.051-.041c.016-.014.033-.026.049-.042s.032-.027.049-.044.034-.03.049-.046a.316.316,0,0,0,.049-.049.474.474,0,0,0,.049-.049c.017-.016.033-.032.051-.051a.7.7,0,0,0,.049-.054c.017-.019.034-.037.049-.056s.034-.039.049-.059l.049-.062c.017-.022.032-.044.049-.066l.049-.07.049-.074c.017-.026.033-.051.049-.079s.033-.054.049-.082.032-.061.049-.089l.051-.1c.017-.036.032-.072.049-.108s.034-.076.051-.116l.049-.13a3.691,3.691,0,0,0,.147-.559c.021-.117.037-.232.049-.351a4.948,4.948,0,0,0,.024-.5V23.238H34.384V29.11c0,.092,0,.182-.011.271a2.46,2.46,0,0,1-.051.331q-.02.1-.049.2c-.014.051-.032.1-.049.149s-.032.083-.049.124-.032.073-.049.107q-.045.092-.1.179c-.016.026-.033.053-.049.077s-.033.047-.049.072-.032.044-.049.065l-.051.061-.049.056c-.017.019-.034.036-.051.053s-.033.033-.049.049-.032.031-.049.047-.033.029-.051.043l-.049.042c-.017.014-.033.025-.049.037l-.049.037c-.017.012-.033.025-.049.034s-.033.024-.049.033l-.049.031a.453.453,0,0,1-.049.027c-.017.009-.032.019-.05.027s-.033.018-.049.026-.032.017-.049.025a.381.381,0,0,1-.049.025l-.049.022-.049.023-.05.021a.35.35,0,0,1-.049.019l-.049.019-.049.017-.049.016-.051.016-.049.013-.049.014a.377.377,0,0,0-.049.013l-.049.011-.049.011a.5.5,0,0,1-.05.011l-.049.007a.358.358,0,0,0-.049.009l-.049.007-.049.006c-.017,0-.033.005-.049.006l-.049,0a48.454,48.454,0,0,1-.1.009l-.051,0a.3.3,0,0,1-.049,0l-.051,0a.3.3,0,0,1-.049,0h-.3l-.05,0H31.36l-.049,0-.051,0-.049,0-.051-.014-.049,0-.049,0-.049,0-.051,0-.049,0-.049-.005-.049,0-.049-.006-.049,0-.051-.007-.049-.005-.049-.008-.049-.006-.03,0-.051-.007-.049-.008-.049-.009-.049-.007-.051-.009-.049-.008-.049-.009-.049-.009-.049-.011L30,31.441l-.051-.009-.049-.011-.049-.011L29.8,31.4l-.049-.012-.051-.012-.049-.012-.049-.014-.049-.012-.049-.013-.049-.012L29.4,31.3l-.049-.016L29.3,31.27l-.049-.014-.051-.015-.049-.014-.049-.014-.049-.014-.049-.017-.05-.015-.049-.018-.05-.016-.049-.015-.049-.019-.049-.016-.049-.017-.049-.019-.05-.017-.049-.018-.05-.02-.049-.018-.049-.019-.049-.018-.049-.021-.051-.02-.049-.021-.049-.02-.049-.021-.051-.021-.049-.019-.049-.022-.049-.021-.049-.022-.049-.023-.051-.02-.049-.024-.049-.021-.049-.024-.049-.024-.033-.017-.049-.023-.049-.025-.049-.023-.105-.05V17.986a5.028,5.028,0,0,1,.154-1.241c.015-.061.033-.121.049-.18s.031-.1.049-.157.033-.095.051-.143.032-.087.049-.13.033-.079.049-.12.032-.075.049-.111l.049-.105c.016-.033.032-.066.05-.1s.033-.063.049-.094.032-.059.049-.089l.049-.086.049-.082c.017-.025.032-.052.049-.077s.033-.05.051-.075.033-.049.049-.073.032-.047.049-.07l.049-.067c.017-.023.033-.044.051-.065l.049-.063.049-.061c.016-.021.032-.041.049-.059l.049-.057c.017-.019.032-.037.05-.056s.033-.037.049-.054.032-.034.051-.053.032-.034.049-.051l.049-.05.049-.049.049-.049.049-.045.05-.045.049-.043c.017-.014.032-.028.051-.042s.032-.028.049-.042.034-.027.049-.042l.049-.039.049-.039c.017-.012.033-.025.051-.037s.032-.025.049-.037l.049-.036c.016-.012.032-.024.049-.035s.033-.024.051-.034l.049-.034c.017-.011.033-.023.049-.032l.049-.032.049-.029.049-.03.051-.028.049-.028.049-.026.049-.027.049-.026.051-.025.049-.025.049-.025.049-.024.049-.024.049-.023.051-.022.049-.023c.017-.006.033-.013.049-.02l.049-.021.033-.016.049-.019.049-.017.049-.017.049-.018.05-.017.049-.016.049-.016.049-.016c.016,0,.032-.009.049-.014l.049-.014.051-.013.049-.012.049-.012.049-.012.051-.011.049-.011.051-.011.049-.009L31.428,13,31.479,13l.049-.008.049-.008.049-.006.049-.007.049-.005.049-.006.049-.005.05,0,.049,0,.051,0,.049,0,.049,0,.049,0h.049l.049,0h7.626v25.3h-.025Z" transform="translate(-27.238 -12.926)"/>
    <path id="Path_73" data-name="Path 73" class="cls-2" d="M66.62,38.226a5.248,5.248,0,0,1-.042.648q-.019.153-.049.3c-.016.076-.032.153-.051.227s-.03.125-.049.188q-.044.155-.1.308c-.016.045-.032.089-.049.133s-.032.081-.051.123-.032.077-.049.116-.032.071-.049.1-.032.068-.049.1-.032.066-.049.1-.032.061-.051.091-.03.058-.049.087a.826.826,0,0,1-.049.082l-.049.079c-.016.025-.033.051-.049.075s-.032.049-.049.074-.033.046-.051.071-.032.045-.049.068-.032.045-.048.066-.033.042-.049.064-.032.041-.049.061-.033.041-.049.061-.032.039-.049.059-.033.036-.049.056l-.049.053-.049.054c-.018.018-.033.035-.052.051s-.033.032-.049.049-.032.032-.049.049l-.049.048L65,41.917l-.049.044c-.016.017-.032.028-.049.044l-.049.043-.049.041c-.018.014-.032.027-.052.042l-.049.039-.049.039a.5.5,0,0,1-.049.037c-.018.012-.033.025-.049.037s-.033.024-.049.035a.5.5,0,0,1-.049.035c-.017.012-.033.024-.049.033a.324.324,0,0,1-.052.034c-.016.011-.031.022-.049.032a.348.348,0,0,1-.049.031.544.544,0,0,1-.049.031.551.551,0,0,1-.049.028l-.049.03c-.018.009-.032.02-.049.028s-.033.018-.049.026l-.049.026-.049.026-.049.025-.049.026-.052.025c-.017.008-.032.018-.049.025s-.032.016-.049.025l-.049.023-.049.022-.049.023-.049.021-.049.021-.049.021c-.017.006-.032.013-.049.018s-.033.014-.051.02-.032.011-.049.018l-.049.017-.049.019-.049.016-.05.015-.049.016-.049.015-.049.014-.049.012-.051.014-.049.012c-.018,0-.032.009-.049.012l-.049.012-.049.012-.051.011-.049.009-.049.011-.049.007-.049.009-.049.008c-.017,0-.033,0-.051.007l-.049.006-.049.007-.049,0-.051.007a.3.3,0,0,0-.049.005l-.051,0-.049,0-.049,0-.049,0-.049,0h-.1l-.049,0H54.036V31.6l.105.087.049.039.049.038.049.037a.483.483,0,0,0,.049.034c.016.012.033.024.049.035s.033.024.049.035l.049.031.051.034.049.032c.017.01.033.021.051.03a.3.3,0,0,0,.049.03l.049.029.049.027.049.027.049.027.049.025.049.026c.017.008.033.017.049.026l.049.025.049.025.051.025.049.024c.017.008.033.016.051.024l.049.024.049.023.049.023.049.021.049.022.049.022.049.021.049.02.05.02.049.021a.374.374,0,0,1,.049.019l.049.018c.016.006.032.013.049.018s.033.012.049.019l.051.017.049.016c.016.007.032.012.049.018s.033.009.049.016l.049.016.051.016.049.015.049.014.049.014.049.016.049.013.05.014.049.012.049.014.049.012.05.014.049.012.049.012.049.011.049.011.051.012.049.011.049.011.049.009L57.2,33l.049.01.051.011.049.009.049.008.049.009.051.007.049.01.051.008.049.008.049.008.049.008.049.007.049.007.049.006.049.007.049.007.049.006.049.006.049.006.049.007.051,0,.049,0,.049.007.049.005.049,0,.049,0,.049,0,.049,0,.049,0,.049,0,.051.005.049,0,.049,0,.049.005.049,0,.05,0,.049,0,.049,0,.049,0,.049,0,.049,0,.049,0,.049,0h.049l.051,0,.049,0,.049,0,.049,0h.049l.049,0h.05l.049,0h.788l.049,0h.1l.05,0h.049l.049,0h.051l.049,0,.049,0h.049l.049,0h.148l.049,0,.049,0,.052,0,.049,0,.049,0,.049,0,.049,0,.049,0,.049,0,.049-.005.049,0,.049,0,.049,0,.049,0,.049,0,.049,0,.049-.005.052,0,.047-.005.049,0,.049-.007.05-.005.049,0,.049-.006.049-.005.049-.006.049-.006.051-.006.049-.006.049-.007.049,0,.049-.008.05-.007.049-.007.049-.005.049-.007.049-.01.051-.007.049-.007.049-.008.049-.007.049-.007.05-.008L63.423,33l.049-.009.049-.008.049-.008.051-.008.049-.008.049-.009.049-.01.049-.008.051-.008.049-.008.049-.011.049-.009.049-.008.049-.009.049-.011.049-.01.049-.009.049-.009.049-.009.049-.009.052-.012.049-.009.049-.011.049-.011.049-.01.049-.012.049-.009.049-.012.052-.011.049-.011.049-.012L65,32.688l.049-.012.049-.012.049-.012.049-.012.049-.012v-2.14l-.049.025-.049.024-.047.018-.049.024-.049.024-.049.024-.049.024-.049.024-.052.023-.049.023-.049.024-.049.024-.049.021-.049.021-.049.023-.049.023-.052.02-.049.021-.049.021-.049.021-.049.02-.049.019L64.116,31l-.049.019-.049.019-.049.019-.049.019-.049.018-.051.018-.049.017-.049.016-.049.017-.049.017-.05.016-.049.016-.049.015-.049.017-.049.014-.051.014-.049.016-.049.013-.049.014-.049.014-.05.013-.049.013-.049.014-.049.012-.049.012-.051.012-.049.012-.049.009-.049.012-.049.011-.051.011-.049.009-.049.012-.049.009-.049.009-.049.008-.051.008-.049.009-.049.007-.047.008-.052.007-.049.007-.049.007-.049.008-.049,0-.049.007-.049.007-.049.006L61.7,31.6l-.049.005-.082,0-.049,0-.048,0-.049.005-.049,0-.03,0h-.019l-.049.005-.051,0-.049,0-.052-.023-.049,0-.047,0-.049,0h-.4c-.016,0-.033,0-.049,0l-.049,0-.049,0-.049,0-.049-.005-.049,0-.049,0a.3.3,0,0,1-.049,0l-.049,0-.049-.006-.049-.005-.049-.007-.049-.007-.049-.008-.051-.007-.049-.007a.414.414,0,0,0-.049-.011c-.016,0-.033-.005-.049-.01a.379.379,0,0,1-.051-.011.357.357,0,0,1-.049-.009.424.424,0,0,1-.049-.012l-.049-.012-.049-.012c-.017,0-.034-.009-.049-.012l-.051-.014-.049-.014-.049-.014a.4.4,0,0,1-.049-.017l-.049-.016L59.1,31.36c-.017-.006-.032-.014-.049-.018L59,31.323l-.049-.019a.48.48,0,0,0-.051-.02l-.049-.022-.049-.023-.049-.023a.478.478,0,0,1-.049-.025l-.051-.024-.049-.025c-.017-.007-.034-.017-.049-.025a.506.506,0,0,0-.049-.026.339.339,0,0,0-.049-.027c-.017-.009-.032-.022-.049-.03s-.033-.02-.049-.029-.033-.022-.049-.03-.033-.024-.049-.032-.033-.024-.049-.035-.034-.025-.051-.036-.032-.025-.049-.037-.034-.025-.049-.038-.034-.026-.049-.042l-.049-.042-.049-.044-.049-.047q-.026-.024-.049-.049l-.049-.051-.049-.054c-.017-.018-.033-.038-.049-.057l-.049-.061-.049-.063-.05-.067-.049-.071-.051-.076c-.016-.025-.032-.055-.049-.082s-.033-.058-.049-.087-.034-.064-.049-.095-.034-.072-.051-.105-.033-.075-.049-.116q-.054-.138-.1-.279c-.017-.058-.035-.117-.049-.177a4.155,4.155,0,0,1-.1-.589,4.722,4.722,0,0,1,0-.876q.017-.181.051-.359a3.761,3.761,0,0,1,.1-.41c.016-.05.033-.1.049-.149s.031-.088.049-.131.033-.076.049-.114.033-.072.051-.105.032-.064.049-.1q.068-.127.149-.246c.015-.024.032-.047.049-.072s.032-.044.05-.066.033-.043.049-.063.032-.041.049-.059l.049-.057c.016-.019.032-.037.049-.053l.049-.053.049-.047.049-.047.049-.044.049-.043c.016-.014.033-.026.049-.041l.049-.039.049-.038.051-.035c.016-.012.033-.024.049-.035l.049-.033.049-.031.049-.031.049-.029.049-.027.049-.027.049-.025c.016-.008.032-.018.049-.025l.051-.024.049-.025.049-.023c.016-.006.032-.014.049-.021l.049-.022.051-.019L59,24.883l.049-.017.049-.019.049-.016.049-.016.049-.016.049-.014.049-.014.051-.014.049-.012.049-.012.049-.012.049-.012.049-.009a.5.5,0,0,1,.051-.009l.049-.009.049-.009.049-.007.051-.008.049-.007.049-.007.049-.007.049-.005.049-.005.049-.005.049,0,.049,0,.049,0,.049,0,.049,0,.049,0,.049,0h.5l.049,0,.049,0,.049,0,.049,0,.051,0,.049,0h.019l.03,0,.049,0,.049.005.049,0,.049,0,.049,0,.048.006.049.005.049.005.049.005.049.007.049.006.049.007.052.007.049.007.049.007.049.007.049.009.049.008.052.008.049.009.049.008.049.009.049.009.049.009.049.009.049.011.049.011.049.011.049.012.052.012.049.012.049.012.049.012.049.013.049.013.049.013.049.014.049.014.049.014.052.014.049.016.049.016.049.015.049.015.049.016.049.016.049.016.049.016.049.018.052.017.047.018.049.017.049.018.049.019.049.019.049.019.049.02.049.021.049.02.051.021.049.02.051.021.049.022.049.022.051.027.05.021.049.023.049.023.049.023.05.023.049.024.049.023.049.025.049.024.051.024.049.025.049.024.049.025V23.6l-.049-.012-.049-.012-.049-.011-.051-.012-.049-.012-.049-.011-.049-.011-.049-.011-.05-.011-.049-.011-.068-.026-.049-.011-.049-.01-.049-.011-.049-.009-.049-.009-.052-.011-.047-.01-.051-.009-.049-.009-.049-.009-.049-.009-.049-.011-.049-.009-.049-.008-.049-.009-.049-.008-.049-.008-.051-.009-.049-.008-.049-.008-.049-.009-.049-.008-.051-.008-.049-.008-.049-.008-.049-.008-.049-.007-.051-.007-.049-.007-.049-.008-.049-.007-.049-.007-.05-.005-.049-.009-.049-.007-.049-.007-.049-.007-.051-.006-.049-.007-.049-.006-.049-.005-.049-.006-.05-.006-.049-.006-.049-.006-.049-.006-.049-.005-.049-.005-.051-.005-.049-.006-.049-.005-.048,0-.037-.011-.049-.005-.049,0-.049-.005-.049,0-.049,0-.049,0-.049,0-.049,0-.049,0-.049,0-.049,0-.049,0-.049,0-.049,0-.052,0-.044-.005-.051,0h-.049l-.049,0-.049,0-.048,0h-.1l-.049,0H60.63l-.048-.005h-.787l-.049,0h-.2l-.049,0h-.1l-.051,0H59.3l-.049,0-.049,0-.049,0-.049,0-.049,0-.049,0-.049,0-.051,0-.049,0-.049,0-.049,0-.049,0-.05,0-.049,0-.049,0-.049,0-.049,0-.049,0-.049.005-.049.005-.049.006-.049.005-.051.005-.049.006-.049.006-.049.007-.049.006-.049.006-.041.016-.049.006-.049.007-.049.008-.049.006-.049.008-.049.008-.051.008-.049.008-.051.008-.049.008-.049.009-.049.009-.051.009-.049.009-.049.009-.049.011-.049.011-.049.011-.051.011-.049.011-.049.012-.049.012-.049.012-.051.012-.042.012-.049.013-.049.013-.05.013-.049.015-.049.014-.049.014-.049.014-.049.014-.051.016-.049.015-.049.016-.049.016-.049.017-.051.017-.049.017-.049.018-.049.018-.049.019-.049.019-.05.019-.049.019-.049.02-.049.02-.049.021-.049.021-.049.022-.049.023-.049.023c-.017.007-.032.016-.05.023l-.049.025-.051.025-.049.025-.049.025-.049.026-.049.026-.049.026-.049.027c-.017.008-.033.019-.049.028l-.049.029-.049.029-.049.03-.051.031-.049.033-.051.032-.049.034-.1.068-.049.037-.049.037-.049.038-.049.039c-.036.028-.072.058-.105.087V17.988a5.008,5.008,0,0,1,.155-1.24q.042-.171.1-.337c.016-.047.031-.1.049-.142s.033-.086.049-.129.033-.079.049-.12.032-.075.049-.112.033-.071.051-.105.032-.066.049-.1.033-.063.051-.094l.049-.089.049-.085.049-.082c.016-.026.033-.053.049-.078l.049-.075c.016-.025.033-.049.049-.074s.032-.047.049-.071.033-.045.049-.066.032-.044.049-.066.033-.043.049-.064.033-.041.051-.061.033-.041.049-.059.032-.038.05-.057.033-.037.049-.056l.049-.054c.016-.018.033-.035.049-.053s.032-.034.049-.051l.049-.05.049-.049.049-.049.049-.045.05-.045.049-.044c.017-.016.032-.028.049-.043s.033-.027.049-.042.032-.027.049-.04l.049-.039.051-.039.049-.037c.017-.012.032-.025.049-.037l.049-.036c.017-.011.034-.024.049-.034s.032-.023.051-.033a1.752,1.752,0,0,1,.147-.1l.049-.032.049-.029.05-.028c.016-.009.033-.02.049-.028l.049-.026.049-.027a.552.552,0,0,1,.05-.025c.016-.008.033-.018.049-.025l.049-.025.049-.025.049-.024L57,13.392l.049-.023.049-.022.049-.021.049-.021.049-.02c.017-.005.032-.013.051-.019l.049-.019c.017-.006.033-.013.049-.018l.049-.018.051-.018.049-.016.051-.017c.016,0,.032-.011.049-.014l.049-.016.049-.014.049-.013.049-.014.049-.012.049-.012.049-.012.049-.011.049-.011c.017,0,.033-.007.049-.009l.049-.009L58.232,13,58.281,13l.049-.008.049-.008.049-.006.049-.007.049-.005.049-.005.049-.006.049,0,.051,0,.049,0,.049,0,.049,0,.049,0h.051l.049,0h7.6v25.3h0Z" transform="translate(-39.927 -12.926)"/>
    <path id="Path_74" data-name="Path 74" class="cls-3" d="M93.441,38.23a5.128,5.128,0,0,1-.071.833c-.017.086-.032.171-.051.254s-.032.136-.049.2l-.049.174q-.045.146-.1.29c-.018.044-.032.084-.049.126s-.032.077-.051.118-.03.074-.049.109-.033.071-.049.1-.032.068-.049.1-.033.062-.051.091-.032.061-.049.088-.032.056-.049.084-.032.054-.049.08-.032.051-.049.077-.031.05-.049.075-.032.047-.049.072-.031.046-.049.072-.032.044-.051.066-.032.043-.049.064-.033.043-.049.063-.032.042-.049.062l-.051.058a.72.72,0,0,1-.049.057c-.016.019-.032.037-.049.056s-.031.036-.049.054a.51.51,0,0,1-.051.051c-.017.019-.032.033-.049.051l-.049.049c-.016.017-.032.031-.049.047l-.049.047-.049.046c-.017.016-.032.029-.051.044s-.031.029-.049.044-.032.026-.048.042l-.049.04-.049.039a.63.63,0,0,1-.052.039l-.049.038-.049.038c-.017.012-.032.024-.049.034s-.033.025-.049.036-.032.023-.052.034-.032.024-.049.034l-.049.031c-.017.009-.033.023-.049.032s-.032.021-.049.029a.373.373,0,0,1-.049.031c-.017.008-.032.02-.049.028l-.039.035a.477.477,0,0,1-.052.026.274.274,0,0,1-.049.026.542.542,0,0,1-.049.026c-.017.008-.033.018-.049.025l-.049.026c-.017.008-.033.018-.049.025s-.033.018-.049.025-.032.017-.049.024l-.052.024-.049.024-.049.021-.049.022-.049.021c-.017.007-.032.015-.049.021a.489.489,0,0,0-.049.02.375.375,0,0,0-.049.019l-.049.018c-.017.006-.032.013-.049.018s-.033.013-.051.018l-.049.016-.049.016-.05.015-.049.014-.051.016-.049.012a.446.446,0,0,1-.049.014l-.049.013-.049.013-.049.012-.05.011-.049.011-.05.009-.049.012a.359.359,0,0,0-.049.009l-.051.007-.049.007-.049.007-.049.007-.049.007-.05,0a.309.309,0,0,0-.049,0l-.049,0c-.016,0-.032,0-.049,0l-.049,0c-.018,0-.032,0-.049,0l-.05,0-.049,0h-.1l-.051,0H80.857V32.977h8.1l.049,0,.049,0,.049,0,.049,0,.049,0,.052,0,.049,0a.3.3,0,0,1,.049-.005l.049-.007.049-.005.052-.007.049-.007.049-.008.049-.009a.4.4,0,0,0,.049-.009c.017,0,.032-.007.049-.009l.025-.011.049-.011.05-.015a.337.337,0,0,0,.049-.012c.018,0,.032-.008.049-.013s.032-.009.051-.013a.4.4,0,0,0,.049-.017l.049-.014.049-.017a.4.4,0,0,1,.049-.016l.05-.019.049-.017c.016-.008.032-.013.049-.021a.514.514,0,0,1,.049-.021c.017-.006.031-.015.049-.022s.032-.016.051-.023l.049-.025a.464.464,0,0,0,.049-.024l.049-.025c.017-.007.033-.018.049-.025a.515.515,0,0,0,.049-.027c.017-.007.032-.019.051-.026s.031-.02.047-.028l.052-.031c.017-.009.032-.022.049-.032s.033-.023.049-.034.032-.024.049-.034.033-.025.049-.038a.384.384,0,0,0,.049-.039c.018-.013.032-.026.049-.041a.5.5,0,0,0,.049-.042l.052-.046c.016-.017.032-.03.049-.047s.033-.033.049-.051l.049-.054a.678.678,0,0,0,.049-.058.732.732,0,0,0,.052-.062l.049-.066.049-.073c.018-.025.033-.053.049-.076s.032-.058.049-.087.033-.063.049-.1a1.125,1.125,0,0,0,.049-.111,2.037,2.037,0,0,0,.1-.3A2.091,2.091,0,0,0,92,30.773a2.244,2.244,0,0,0,0-.642,1.865,1.865,0,0,0-.049-.247,1.932,1.932,0,0,0-.147-.394q-.023-.048-.049-.094c-.017-.026-.032-.055-.049-.082s-.032-.05-.049-.074q-.046-.069-.1-.134a.532.532,0,0,0-.052-.058.358.358,0,0,0-.049-.056c-.014-.018-.032-.035-.049-.053l-.049-.048c-.017-.017-.032-.032-.049-.046l-.052-.044c-.015-.014-.032-.027-.049-.042l-.049-.04a.4.4,0,0,0-.049-.036.467.467,0,0,0-.049-.036.358.358,0,0,0-.049-.034c-.017-.011-.032-.023-.049-.034s-.032-.021-.049-.029-.033-.021-.052-.03a.458.458,0,0,0-.048-.027c-.018-.009-.033-.019-.051-.027a.329.329,0,0,0-.049-.025.479.479,0,0,0-.049-.025c-.017-.01-.032-.017-.049-.025l-.049-.024-.049-.024-.051-.022a.5.5,0,0,1-.049-.021l-.049-.02-.049-.02-.049-.018c-.018-.005-.032-.012-.05-.018l-.049-.017-.049-.016c-.017,0-.034-.012-.049-.016l-.049-.015-.051-.014-.049-.014a.423.423,0,0,1-.049-.012l-.05-.012a.414.414,0,0,0-.049-.011.237.237,0,0,0-.05-.011.358.358,0,0,0-.049-.009l-.049-.011-.049-.008-.049-.008-.049-.008-.05-.007-.049-.007-.05-.005-.049-.005-.049-.005-.051,0-.049,0-.046,0v-.059l.046-.005.049-.009.051-.008.049-.009.049-.011.05-.012c.017,0,.033-.007.049-.009s.032-.009.05-.013l.049-.013c.018,0,.032-.009.049-.014l.049-.014.049-.017c.018,0,.032-.011.049-.017a.356.356,0,0,1,.05-.016l.049-.019.05-.019.049-.021.049-.021c.018-.007.032-.015.051-.022l.049-.024c.017-.008.033-.015.049-.025l.049-.025.049-.026.05-.027.049-.028c.017-.011.034-.021.049-.032l.049-.032c.017-.011.033-.023.049-.034s.032-.024.051-.035l.049-.038.049-.039.049-.043.049-.044.049-.047.051-.051c.017-.018.031-.035.047-.053s.035-.037.052-.056l.049-.061c.018-.021.033-.044.049-.065a.75.75,0,0,0,.049-.072c.018-.025.033-.051.049-.077s.034-.056.049-.086a.989.989,0,0,0,.049-.1,1.147,1.147,0,0,0,.049-.112c.019-.045.035-.088.052-.134a2.141,2.141,0,0,0,.1-.462,2.181,2.181,0,0,0,0-.481,1.969,1.969,0,0,0-.049-.295q-.02-.088-.049-.174c-.017-.045-.032-.089-.052-.134a.914.914,0,0,0-.049-.111,1.026,1.026,0,0,0-.049-.095.843.843,0,0,0-.049-.084c-.016-.026-.031-.051-.049-.076a.661.661,0,0,0-.049-.068c-.017-.022-.032-.043-.049-.063s-.032-.039-.049-.058-.034-.037-.052-.055-.032-.034-.048-.051-.033-.033-.051-.047-.033-.032-.049-.046l-.049-.043-.049-.041-.049-.039-.049-.035c-.017-.012-.033-.024-.051-.035l-.049-.032c-.018-.011-.033-.021-.049-.031l-.049-.029-.049-.029c-.018-.008-.032-.017-.05-.026l-.049-.025-.049-.025c-.017-.007-.033-.017-.049-.024l-.049-.023-.051-.021-.049-.021c-.018-.006-.032-.013-.049-.021l-.05-.018-.049-.018c-.017-.006-.032-.012-.05-.016l-.049-.017-.049-.014-.049-.016-.049-.014c-.018,0-.032-.008-.049-.012l-.05-.013-.049-.012c-.017,0-.032-.007-.05-.011l-.049-.009c-.018,0-.031-.007-.049-.009l-.051-.009-.049-.008-.049-.008-.049-.007-.045,0-.05-.006-.049-.006-.049-.005-.049-.005-.049,0-.049,0-.049,0-.049,0h-.021l-.029,0-.049,0-.052,0-.049,0-.049,0-.049,0h-.049l-.049,0H80.857V17.993a5.051,5.051,0,0,1,.105-1.032c.017-.072.032-.143.052-.213s.029-.12.049-.178.032-.105.049-.157l.049-.143c.017-.043.032-.087.049-.13l.049-.12c.018-.037.032-.075.049-.112l.049-.105c.018-.033.032-.065.051-.1s.032-.063.049-.094.032-.059.049-.089.032-.057.049-.085.031-.054.049-.081l.049-.078L81.7,15.2c.017-.024.033-.049.049-.073s.033-.047.052-.07.032-.045.049-.068.032-.044.049-.064a.777.777,0,0,1,.049-.064c.017-.021.031-.041.049-.061s.032-.039.049-.058.031-.039.049-.058.032-.037.049-.055l.049-.055.049-.053c.017-.016.033-.033.049-.051l.049-.05.052-.048a.465.465,0,0,1,.049-.047l.049-.046.049-.045.049-.043.052-.043.049-.042.048-.04.049-.039.049-.038.049-.038c.018-.012.032-.024.049-.035l.049-.036.049-.035c.018-.012.032-.024.049-.034l.051-.034.049-.031.051-.033.049-.031c.018-.009.032-.021.049-.03l.051-.028c.017-.009.032-.02.049-.028l.049-.027.049-.026.049-.026a.559.559,0,0,1,.051-.025l.049-.025.049-.025.049-.024.049-.024c.018-.007.032-.015.049-.023s.032-.014.051-.021l.049-.021.049-.021.049-.02.051-.019.049-.019.049-.018.049-.017.051-.018.049-.016.051-.016.049-.015.05-.014.049-.014.049-.014.051-.013.049-.013.049-.012c.017,0,.031-.008.049-.012l.049-.011.051-.011.049-.009.049-.009.049-.009L85.117,13l.049-.008.049-.007.049-.007.052-.006a.374.374,0,0,1,.049-.006l.049-.005.049,0,.049-.005.049,0,.052,0,.049,0,.049,0c.017,0,.033,0,.049,0h.049l.049,0h7.589V38.23h-.008ZM83.376,28.724h2.961a.373.373,0,0,0,.049,0l.049,0a.3.3,0,0,1,.049,0l.049,0a.408.408,0,0,0,.049.007l.049.007.029.005.02,0,.051.012.049.014c.017.007.033.012.049.018a.427.427,0,0,1,.049.021l.049.021.05.024c.018.007.032.016.049.025l.049.027c.018.009.034.023.049.032s.033.024.049.035.034.025.051.037l.049.044c.017.014.033.03.051.046a.522.522,0,0,1,.049.054c.018.019.034.038.051.058a.24.24,0,0,0,.037.072c.018.025.033.051.049.077s.033.061.049.091a1.469,1.469,0,0,1,.1.282,1.389,1.389,0,0,1,.035.312,1.389,1.389,0,0,1-.084.477c-.014.039-.032.076-.049.116s-.032.063-.049.092-.032.053-.049.077l-.049.067a.6.6,0,0,1-.052.059c-.014.019-.031.034-.049.054a.529.529,0,0,1-.049.046l-.049.043a.482.482,0,0,1-.052.038.4.4,0,0,1-.049.035.283.283,0,0,1-.049.03.183.183,0,0,1-.049.028c-.017.009-.032.018-.049.026a.516.516,0,0,0-.049.024l-.049.021a.35.35,0,0,1-.049.019c-.017.005-.032.013-.049.017l-.049.015-.05.013-.021.005a.112.112,0,0,0-.028,0l-.049.008-.049.006-.049,0-.049,0-.049,0-.049,0H83.352v-2.67h.024v0Zm-.024-1.5V24.756H86.1l.049,0,.049,0c.017,0,.033,0,.049,0l.049,0c.017,0,.027,0,.037,0l.012,0a.328.328,0,0,1,.049.011.416.416,0,0,1,.049.012l.051.013.049.017.049.018a.471.471,0,0,1,.049.021.313.313,0,0,1,.049.024.553.553,0,0,1,.05.025l.049.028c.017.01.032.021.049.032s.034.024.049.036a.457.457,0,0,1,.05.039.5.5,0,0,1,.049.044.606.606,0,0,1,.049.048,1.128,1.128,0,0,1,.1.118c.018.024.034.049.049.074s.035.058.05.088.033.074.049.113a1.21,1.21,0,0,1,.079.45,1.448,1.448,0,0,1-.03.284,1.111,1.111,0,0,1-.148.367c-.016.025-.032.05-.049.074s-.032.043-.049.063a.61.61,0,0,1-.049.055c-.017.017-.031.033-.049.049s-.032.028-.049.044a.531.531,0,0,1-.05.039c-.016.012-.033.025-.049.036l-.049.031c-.017.009-.033.02-.049.028a.55.55,0,0,1-.05.025c-.016.007-.032.017-.049.024l-.049.021c-.016.006-.032.013-.049.019l-.049.016-.051.014-.049.012-.049.009-.012,0-.037,0-.049,0-.049,0-.049,0-.049,0H83.352Z" transform="translate(-52.635 -12.93)"/>
  </g>
</svg>
