<svg id="Group_196" data-name="Group 196" xmlns="http://www.w3.org/2000/svg" viewBox="0 0 48.203 37.342">
  <defs>
    <style>
      .cls-1 {
        fill: #ff5f00;
      }

      .cls-2 {
        fill: #eb001b;
      }

      .cls-3 {
        fill: #f79e1b;
      }
    </style>
  </defs>
  <g id="Group_194" data-name="Group 194">
    <path id="Path_67" data-name="Path 67" d="M31.388,71.3V68.824a1.44,1.44,0,0,0-1.53-1.566,1.632,1.632,0,0,0-1.406.7,1.449,1.449,0,0,0-1.324-.7,1.408,1.408,0,0,0-1.2.577V67.34h-.786V71.3h.786V69.029A.925.925,0,0,1,26.921,68c.579,0,.91.371.91,1.03V71.3h.786V69.029A.925.925,0,0,1,29.61,68c.579,0,.91.371.91,1.03V71.3h.868Zm12.9-3.916H42.843V66.186h-.785v1.195h-.827v.7h.827v1.855c0,.907.331,1.442,1.323,1.442a2.318,2.318,0,0,0,1.075-.288l-.248-.7a1.365,1.365,0,0,1-.744.206.578.578,0,0,1-.621-.66v-1.9h1.447v-.66Zm7.362-.124a1.242,1.242,0,0,0-1.075.577V67.34h-.786V71.3h.786V69.071c0-.66.331-1.072.868-1.072a2.445,2.445,0,0,1,.538.082l.248-.742a2.8,2.8,0,0,0-.579-.083Zm-11.125.412a2.844,2.844,0,0,0-1.613-.412c-.993,0-1.613.454-1.613,1.237,0,.659.455,1.03,1.323,1.154l.414.041c.455.083.744.247.744.454,0,.288-.331.495-.951.495a2.184,2.184,0,0,1-1.323-.413l-.414.618a3,3,0,0,0,1.7.495c1.158,0,1.779-.536,1.779-1.278s-.5-1.031-1.365-1.154l-.414-.042c-.372-.041-.7-.165-.7-.412s.331-.495.786-.495a2.99,2.99,0,0,1,1.241.33l.413-.618Zm12.035,1.649a1.948,1.948,0,0,0,2.068,2.061,2.073,2.073,0,0,0,1.405-.454l-.413-.618a1.658,1.658,0,0,1-1.034.371,1.323,1.323,0,0,1,0-2.638,1.658,1.658,0,0,1,1.034.371l.414-.618a2.073,2.073,0,0,0-1.406-.453,1.849,1.849,0,0,0-2.068,1.978Zm-5.583-2.061a1.9,1.9,0,0,0-1.944,2.061,1.939,1.939,0,0,0,2.026,2.06,2.537,2.537,0,0,0,1.613-.535l-.414-.577a1.981,1.981,0,0,1-1.158.413,1.161,1.161,0,0,1-1.2-1.031H48.84v-.329A1.859,1.859,0,0,0,46.979,67.257Zm0,.742a.987.987,0,0,1,1.034.99H45.862A1.062,1.062,0,0,1,46.979,68ZM36.268,69.318V67.34h-.786v.495a1.524,1.524,0,0,0-1.282-.577,2.061,2.061,0,1,0,0,4.122,1.524,1.524,0,0,0,1.282-.577V71.3h.786Zm-3.226,0a1.241,1.241,0,1,1,1.241,1.319,1.214,1.214,0,0,1-1.241-1.319ZM63.6,67.257a1.242,1.242,0,0,0-1.075.577V67.34h-.785V71.3h.785V69.071c0-.66.331-1.072.868-1.072a2.445,2.445,0,0,1,.538.082l.248-.742a2.8,2.8,0,0,0-.579-.083Zm6.369,3.462a.249.249,0,0,1,.166.041c.041,0,.083.041.124.083s.083.082.083.124.042.082.042.165a.247.247,0,0,1-.042.165c-.041.041-.041.083-.083.124s-.083.083-.124.083-.083.041-.166.041a.249.249,0,0,1-.165-.041c-.042-.042-.083-.042-.124-.083s-.083-.083-.083-.124-.041-.083-.041-.165a.247.247,0,0,1,.041-.165c.042-.042.042-.083.083-.124s.083-.083.124-.083S69.932,70.72,69.973,70.72Zm0,.7a.153.153,0,0,0,.124-.041.091.091,0,0,0,.083-.083l.083-.083c0-.041.042-.082.042-.123a.153.153,0,0,0-.042-.124.091.091,0,0,0-.083-.083L70.1,70.8c-.042,0-.083-.041-.124-.041a.153.153,0,0,0-.124.041.091.091,0,0,0-.083.083l-.083.083c0,.041-.041.082-.041.124a.153.153,0,0,0,.041.123.091.091,0,0,0,.083.083l.083.083a.153.153,0,0,0,.124.041Zm.042-.453a.153.153,0,0,1,.124.041c.041.041.041.041.041.083s0,.041-.041.082a.145.145,0,0,1-.083.041l.124.124h-.124l-.124-.124H69.89v.124h-.083v-.371Zm-.083.041v.083h.124v-.083Zm-9.388-1.69V67.34h-.786v.495a1.524,1.524,0,0,0-1.282-.577,2.061,2.061,0,1,0,0,4.122,1.524,1.524,0,0,0,1.282-.577V71.3h.786Zm-3.184,0A1.241,1.241,0,1,1,58.6,70.637,1.193,1.193,0,0,1,57.359,69.318Zm11.208,0V65.774h-.786v2.061a1.524,1.524,0,0,0-1.282-.577,2.061,2.061,0,1,0,0,4.122,1.524,1.524,0,0,0,1.282-.577V71.3h.786V69.318Zm-3.226,0a1.241,1.241,0,1,1,1.241,1.319,1.214,1.214,0,0,1-1.241-1.319Z" transform="translate(-22.598 -34.203)"/>
    <path id="Path_68" data-name="Path 68" class="cls-1" d="M52.486,11.823h14.35V35.151H52.486Z" transform="translate(-35.549 -8.65)"/>
    <path id="Path_69" data-name="Path 69" class="cls-2" d="M38.733,20.631A14.859,14.859,0,0,1,44.4,8.967a14.838,14.838,0,1,0,0,23.327,14.859,14.859,0,0,1-5.666-11.663Z" transform="translate(-20.307 -5.794)"/>
    <path id="Path_70" data-name="Path 70" class="cls-3" d="M90.227,20.646A14.893,14.893,0,0,1,66.157,32.31a14.839,14.839,0,0,0,0-23.328,14.893,14.893,0,0,1,24.07,11.664Z" transform="translate(-42.024 -5.808)"/>
  </g>
</svg>
