<svg id="rema-logo" xmlns="http://www.w3.org/2000/svg" viewBox="0 0 193.199 43.045">
  <defs>
    <style>
      .cls-1 {
        fill: #222;
      }
    </style>
  </defs>
  <path id="路径_177" data-name="路径 177" class="cls-1" d="M366.226,60.54H345.1c-8.1,0-13.313,4.426-14.737,12.323l-5.528,30.609h10.714L340.831,74.2a3.718,3.718,0,0,1,3.886-3.219h3.7l-5.87,32.484h10.714l5.866-32.484h3.7c2.2,0,3.07,1.336,2.732,3.219s-5.291,29.269-5.291,29.269h10.714l5.532-30.613C377.942,64.954,374.329,60.536,366.226,60.54Z" transform="translate(-230.27 -60.516)"/>
  <path id="路径_178" data-name="路径 178" class="cls-1" d="M128.387,60.59h-17.3c-8.654,0-14.4,4.92-15.655,11.853L89.8,103.523h10.714l2.937-16.214h11.941l6.936,16.206h11.808l-7.057-16.5c6.542-.982,10.638-4.659,11.8-11.08l.716-3.967C140.916,64.7,136.989,60.586,128.387,60.59Zm.266,12.681c-.113.628-.141.776-.229,1.279-.274,1.509-1.738,2.313-3.6,2.313H105.338s.322-1.762.579-3.219a3.219,3.219,0,0,1,3.178-2.619h16.7C127.579,71.034,128.906,71.839,128.653,73.271Z" transform="translate(-89.8 -60.546)"/>
  <path id="路径_179" data-name="路径 179" class="cls-1" d="M260.266,75.929l.716-3.971c1.316-7.282-2.611-11.4-11.213-11.4h-17.3c-8.654,0-14.4,4.925-15.655,11.857L214.127,87.3l-.1.6c-1.67,9.254,1.436,15.691,12.36,15.671h19.968c3.146,0,8.179-2.579,10.018-10.461H227.379a2.8,2.8,0,0,1-2.981-3.42c.209-1.139.439-2.414.439-2.414h19.847C253.442,87.291,258.894,83.513,260.266,75.929Zm-33.546.9s.318-1.758.583-3.219A3.186,3.186,0,0,1,230.477,71h16.709c1.774,0,3.11.8,2.849,2.237-.113.624-.141.777-.229,1.279-.274,1.5-1.738,2.309-3.593,2.309Z" transform="translate(-163.791 -60.528)"/>
  <path id="路径_180" data-name="路径 180" class="cls-1" d="M452.563,88.128l-.72,3.967c-1.312,7.286,2.615,11.4,11.217,11.4h17.3c8.654,0,14.4-4.92,15.659-11.853L498.7,76.754l.109-.6c1.67-9.254-1.44-15.671-12.359-15.671H466.479c-3.146,0-8.183,2.579-10.018,10.461h29a2.8,2.8,0,0,1,2.981,3.42L488,76.774H468.153C459.4,76.782,453.943,80.544,452.563,88.128Zm33.542-.913-.579,3.219a3.187,3.187,0,0,1-3.179,2.615H465.654c-1.774,0-3.11-.8-2.852-2.233.113-.628.141-.776.233-1.279.274-1.509,1.738-2.313,3.593-2.313Z" transform="translate(-306.034 -60.48)"/>
</svg>
