<svg id="Group_198" data-name="Group 198" xmlns="http://www.w3.org/2000/svg" viewBox="0 0 50.628 31.526">
  <defs>
    <style>
      .cls-1 {
        fill: #dc062b;
      }

      .cls-1, .cls-2, .cls-3, .cls-4 {
        fill-rule: evenodd;
      }

      .cls-2 {
        fill: #00437a;
      }

      .cls-3 {
        fill: #007482;
      }

      .cls-4 {
        fill: #fefefe;
      }
    </style>
  </defs>
  <path id="Path_76" data-name="Path 76" class="cls-1" d="M27.915,11H40.551A2.454,2.454,0,0,1,43,14.193L37.118,39.338a4.291,4.291,0,0,1-3.947,3.188H20.536a2.453,2.453,0,0,1-2.45-3.188l5.886-25.145A4.279,4.279,0,0,1,27.914,11" transform="translate(-18 -11)"/>
  <path id="Path_77" data-name="Path 77" class="cls-2" d="M49.926,11H64.457c1.763,0,.968,1.431.553,3.193L59.128,39.338c-.413,1.755-.284,3.188-2.052,3.188H42.545A2.447,2.447,0,0,1,40.1,39.338l5.882-25.145A4.287,4.287,0,0,1,49.926,11" transform="translate(-28.426 -11)"/>
  <path id="Path_78" data-name="Path 78" class="cls-3" d="M89.075,11a2.451,2.451,0,0,1,2.449,3.193L85.642,39.338a4.293,4.293,0,0,1-3.949,3.188H69.062a2.449,2.449,0,0,1-2.449-3.188L72.5,14.193A4.277,4.277,0,0,1,76.439,11Z" transform="translate(-40.984 -11)"/>
  <path id="Path_79" data-name="Path 79" class="cls-4" d="M83.624,45.335,82.083,50.41H82.5l-.322,1.048h-.412l-.1.323H80.2l.1-.323H77.325l.3-.97h.3l1.561-5.153L79.8,44.3h1.495l-.157.523a2.831,2.831,0,0,1,.776-.382c.377-.1,2.544-.135,2.544-.135l-.32,1.032h-.512Zm-2.635,0-.4,1.3a6.654,6.654,0,0,1,.685-.266,3.886,3.886,0,0,1,.613-.086l.286-.945ZM80.4,47.275l-.41,1.35a6.156,6.156,0,0,1,.7-.3q.307-.062.618-.1l.288-.945Zm-.952,3.148h1.191l.342-1.139H79.79l-.345,1.139Z" transform="translate(-46.099 -26.771)"/>
  <path id="Path_80" data-name="Path 80" class="cls-4" d="M74.985,44.3h1.6l.016.592c-.011.1.076.147.263.147h.325l-.3.977h-.863c-.746.053-1.03-.266-1.011-.625l-.03-1.092Zm.212,4.637H73.675l.261-.87h1.74l.246-.8H74.205l.292-.981h4.778l-.3.981h-1.6l-.25.795h1.607l-.267.87H76.729l-.309.366h.705l.172,1.1a.588.588,0,0,0,.055.228.912.912,0,0,0,.371.058h.214l-.326,1.066h-.543c-.083,0-.208-.006-.382-.013a1.034,1.034,0,0,1-.386-.164.516.516,0,0,1-.284-.372l-.169-1.094-.791,1.077a1.344,1.344,0,0,1-1.163.6h-1.1l.289-.953H73.5a.681.681,0,0,0,.309-.088.474.474,0,0,0,.234-.194L75.2,48.934ZM58.536,46.551h4.03l-.3.956H60.657l-.252.816h1.648l-.3.987H60.105l-.4,1.326c-.048.147.392.166.551.166l.823-.113-.331,1.093H58.892a1.755,1.755,0,0,1-.422-.057.44.44,0,0,1-.295-.214.416.416,0,0,1-.1-.429l.534-1.755h-.916l.3-1h.917l.244-.816h-.915l.293-.956Zm2.71-1.72H62.9l-.3,1H60.342l-.244.211c-.106.1-.142.061-.279.133a1.645,1.645,0,0,1-.743.191h-.723l.291-.961h.218a.805.805,0,0,0,.373-.056.874.874,0,0,0,.242-.313l.417-.751h1.641Zm2.363-.534h1.407L64.811,45a4.122,4.122,0,0,1,.756-.481,7.265,7.265,0,0,1,1.011-.217l2.279-.013-.776,2.574a3.012,3.012,0,0,1-.379.855.986.986,0,0,1-.384.352,1.44,1.44,0,0,1-.528.177c-.15.011-.381.014-.7.019h-2.2L63.276,50.3c-.059.2-.087.3-.048.354a.254.254,0,0,0,.209.1l.968-.092-.332,1.116H62.991c-.345,0-.6-.008-.771-.021a.9.9,0,0,1-.46-.089c-.1-.088-.254-.206-.25-.325a4.022,4.022,0,0,1,.127-.546L63.609,44.3ZM66.6,46.9H64.291l-.142.462h2a1.735,1.735,0,0,1,.305,0L66.6,46.9Zm-2.181-.418a2.6,2.6,0,0,1,1.223-.544c.176-.033,1.272-.022,1.272-.022l.167-.551H64.754l-.337,1.116Z" transform="translate(-36.8 -26.766)"/>
  <path id="Path_81" data-name="Path 81" class="cls-4" d="M54.033,39.909l-.132.618a.828.828,0,0,1-.25.462,1.011,1.011,0,0,1-.756.267l-.782.033-.006.7c-.008.2.045.177.076.208a.282.282,0,0,0,.1.063l.247-.014.746-.041-.309,1.02h-.856a2.756,2.756,0,0,1-1.189-.128c-.144-.091-.163-.2-.161-.4l.055-2.724h1.367l-.019.557h.328a.46.46,0,0,0,.236-.041.246.246,0,0,0,.091-.141l.137-.436h1.075ZM34.528,26.255c-.047.223-.924,4.249-.926,4.253a2.946,2.946,0,0,1-.793,1.77,1.415,1.415,0,0,1-.932.323.86.86,0,0,1-.968-.825l-.011-.186s.175-1.091.175-1.1.921-3.67,1.085-4.155a.442.442,0,0,0,.013-.055,13.69,13.69,0,0,1-2.131-.028c-.012.039-.057.267-.057.267l-.94,4.136-.081.351-.156,1.147a1.686,1.686,0,0,0,.2.853c.428.745,1.65.856,2.34.856a4.558,4.558,0,0,0,2.29-.532A3.378,3.378,0,0,0,35.1,31.056l.106-.411s.948-3.811,1.11-4.307a.179.179,0,0,1,.016-.055,13.79,13.79,0,0,1-1.805-.028m5.246,7.571q-.8-.022-1.6.029l-.028-.056c.064-.283.134-.56.2-.845l.092-.385c.137-.6.271-1.294.286-1.507.014-.127.059-.445-.308-.445a1.217,1.217,0,0,0-.479.149c-.089.319-.269,1.213-.356,1.621-.184.858-.195.958-.277,1.382l-.053.057q-.818-.022-1.636.029l-.034-.065c.125-.509.251-1.024.371-1.534a21.461,21.461,0,0,0,.478-2.618l.061-.041c.735-.1.913-.124,1.709-.285l.067.074-.123.441c.136-.08.265-.161.4-.23a2.511,2.511,0,0,1,1.022-.238.865.865,0,0,1,.89.5c.151.358.051.8-.147,1.665l-.1.443c-.2.964-.237,1.141-.352,1.8l-.074.057Zm2.582,0c-.384,0-.632-.011-.871,0s-.473.015-.829.032l-.019-.032-.023-.033a5.386,5.386,0,0,1,.2-.623,4.317,4.317,0,0,0,.181-.632q.134-.555.225-1.12c.053-.287.081-.532.12-.815l.028-.021.03-.028c.382-.053.623-.088.871-.128s.5-.082.9-.158l.014.034.011.036c-.072.3-.147.6-.22.9s-.144.6-.212.9c-.142.637-.2.875-.233,1.047s-.042.249-.1.579l-.037.03Zm5.709-2.18a1.567,1.567,0,0,0-1.69-2.26,2.8,2.8,0,0,0-1.912.658,3.114,3.114,0,0,0-.848,1.643c-.137.6-.295,1.667.7,2.066a2.9,2.9,0,0,0,1.03.167,2.7,2.7,0,0,0,2.028-.79,3.56,3.56,0,0,0,.7-1.485m-1.665-.07a3.308,3.308,0,0,1-.371,1.034.612.612,0,0,1-.475.307c-.053,0-.368,0-.373-.466a3.163,3.163,0,0,1,.1-.72c.167-.736.365-1.354.868-1.354.395,0,.424.46.248,1.2M63.6,33.89c-.767-.005-.988-.005-1.7.024l-.044-.057c.191-.726.384-1.449.555-2.183a15.683,15.683,0,0,0,.345-1.914l.058-.047q.888-.118,1.767-.285l.023.066q-.218.9-.429,1.8c-.291,1.255-.4,1.892-.508,2.549l-.07.053Z" transform="translate(-23.119 -18.225)"/>
  <path id="Path_82" data-name="Path 82" class="cls-4" d="M75.3,31.717c.223-.966-.676-.086-.818-.4-.219-.5-.083-1.507-.965-1.845a2.127,2.127,0,0,0-1.82.659,3.069,3.069,0,0,0-.844,1.632c-.138.587-.3,1.659.688,2.041a1.933,1.933,0,0,0,.882.158c.99-.053,1.744-1.543,2.3-2.131.431-.467.506.175.572-.111m-1.516-.072a3.559,3.559,0,0,1-.379,1.03.873.873,0,0,1-.617.3c-.051,0-.362,0-.373-.457a3.118,3.118,0,0,1,.1-.72c.169-.723.364-1.335.87-1.335.4,0,.566.446.4,1.186M63.744,33.811q-.8-.022-1.6.029l-.027-.056c.063-.283.136-.56.2-.845l.086-.385a14.435,14.435,0,0,0,.286-1.507c.015-.127.059-.445-.305-.445a1.206,1.206,0,0,0-.482.149c-.086.319-.271,1.213-.359,1.621-.178.858-.192.958-.272,1.382l-.057.057q-.817-.022-1.633.029l-.034-.065c.125-.509.25-1.024.371-1.534a22.337,22.337,0,0,0,.478-2.618l.056-.041c.734-.1.916-.124,1.711-.285l.062.074-.114.441c.131-.08.265-.161.4-.23a2.5,2.5,0,0,1,1.022-.238.876.876,0,0,1,.893.5c.148.358.047.8-.153,1.665l-.1.443c-.209.964-.239,1.141-.351,1.8l-.077.057ZM69.938,28.6a1.659,1.659,0,0,1-.863,1.133,2.732,2.732,0,0,1-1.212.188h-.284l.022-.114.521-2.258.017-.116.007-.089.209.022,1.1.094a.9.9,0,0,1,.479,1.139m-.687-2.363-.53.005c-1.374.016-1.925.012-2.152-.016-.019.1-.055.277-.055.277s-.493,2.271-.493,2.274l-1.233,5.056c1.2-.014,1.692-.014,1.9.009.047-.227.325-1.576.327-1.576s.237-.99.252-1.025a.588.588,0,0,1,.149-.144h.11a5.11,5.11,0,0,0,3.118-.671,3.307,3.307,0,0,0,1.239-1.964,2.917,2.917,0,0,0,.086-.684,1.431,1.431,0,0,0-.248-.873c-.467-.65-1.4-.662-2.47-.667m11.968,3.171-.062-.069c-.784.158-.926.183-1.647.28l-.053.053-.008.034,0-.012c-.537,1.232-.521.966-.958,1.936,0-.044,0-.072,0-.118l-.109-2.1-.068-.069c-.822.158-.842.183-1.6.28l-.059.053a.529.529,0,0,0-.013.083l.005.011a10.658,10.658,0,0,1,.167,1.137c.044.374.1.75.147,1.118.075.618.117.922.208,1.865-.512.842-.634,1.161-1.127,1.9l.032.069c.74-.027.911-.027,1.46-.027l.119-.136c.415-.89,3.574-6.283,3.574-6.283m-26.829.521c.421-.291.474-.692.121-.9a1.451,1.451,0,0,0-1.411.147c-.422.285-.471.69-.114.9a1.448,1.448,0,0,0,1.4-.149" transform="translate(-34.458 -18.211)"/>
  <path id="Path_83" data-name="Path 83" class="cls-4" d="M97.486,44.35,96.869,45.4a1.212,1.212,0,0,1-1.134.631l-.982-.017.286-.947h.193a.523.523,0,0,0,.227-.033.259.259,0,0,0,.126-.114l.365-.574h1.535Z" transform="translate(-54.354 -26.795)"/>
</svg>
