<svg id="Group_195" data-name="Group 195" xmlns="http://www.w3.org/2000/svg" viewBox="0 0 55.584 17.041">
  <defs>
    <style>
      .cls-1 {
        fill: #005098;
      }

      .cls-1, .cls-2 {
        fill-rule: evenodd;
      }

      .cls-2 {
        fill: #f6a500;
      }
    </style>
  </defs>
  <path id="Path_64" data-name="Path 64" class="cls-1" d="M35.124,41.865l2.814-16.51h4.5l-2.816,16.51Zm20.819-16.1a11.626,11.626,0,0,0-4.032-.693c-4.447,0-7.579,2.239-7.606,5.448-.025,2.373,2.236,3.7,3.943,4.486,1.751.809,2.339,1.326,2.332,2.049-.011,1.105-1.4,1.612-2.692,1.612a9.435,9.435,0,0,1-4.236-.866l-.58-.263-.632,3.7a14.239,14.239,0,0,0,5.012.881c4.731,0,7.8-2.213,7.836-5.64.017-1.879-1.182-3.308-3.779-4.486-1.572-.763-2.536-1.274-2.526-2.046,0-.686.816-1.421,2.576-1.421a8.309,8.309,0,0,1,3.369.633l.4.189.611-3.578m5.99,10.251q.9-2.307,1.794-4.615c-.027.044.369-.956.6-1.576l.3,1.424s.863,3.941,1.042,4.767H61.934Zm5.549-10.642H64.006a2.24,2.24,0,0,0-2.356,1.37L54.967,41.871h4.726s.773-2.035.947-2.481L66.4,39.4c.135.579.547,2.474.547,2.474h4.176l-3.642-16.5Zm-36.134,0L26.944,36.627l-.47-2.288a12.882,12.882,0,0,0-6.232-6.926l4.029,14.439,4.761-.005,7.085-16.478H31.35" transform="translate(-15.542 -25.069)"/>
  <path id="Path_65" data-name="Path 65" class="cls-2" d="M18.628,25.617H11.371l-.058.344c5.646,1.366,9.382,4.669,10.932,8.637l-1.578-7.587a1.884,1.884,0,0,0-2.04-1.394" transform="translate(-11.313 -25.329)"/>
</svg>
